<?xml version="1.0" standalone="no"?>
<!DOCTYPE svg PUBLIC "-//W3C//DTD SVG 1.1//EN" "http://www.w3.org/Graphics/SVG/1.1/DTD/svg11.dtd" >
<svg xmlns="http://www.w3.org/2000/svg" xmlns:xlink="http://www.w3.org/1999/xlink" version="1.1">
<metadata></metadata>
<defs>
<font id="alwaysheremedium" horiz-adv-x="546" >
<font-face units-per-em="2048" ascent="1638" descent="-410" />
<missing-glyph horiz-adv-x="614" />
<glyph horiz-adv-x="0" />
<glyph unicode="&#xd;" horiz-adv-x="681" />
<glyph unicode=" "  horiz-adv-x="614" />
<glyph unicode="&#x09;" horiz-adv-x="614" />
<glyph unicode="&#xa0;" horiz-adv-x="614" />
<glyph unicode="!" horiz-adv-x="229" d="M76 137.5q0 28.5 19.5 48t48 19.5t48 -19.5t19.5 -48t-19.5 -48t-48 -19.5t-48 19.5t-19.5 48zM127 358l4 1084h45l-4 -1084h-45z" />
<glyph unicode="&#x22;" horiz-adv-x="354" d="M117 1016v420h45v-420h-45zM287 1434h45l4 -418h-45z" />
<glyph unicode="#" horiz-adv-x="1069" d="M88 631v45l281 2l32 317l-309 -2v45l314 2l40 404l46 -4l-41 -400l251 2l41 394l45 -4l-40 -390l301 2v-45l-306 -2l-32 -317l331 2v-45l-335 -2l-66 -641l-45 4l66 637l-252 -2l-66 -631l-45 4l63 627zM414 678l252 2l32 317l-252 -2z" />
<glyph unicode="$" horiz-adv-x="860" d="M-47 422q2 49 6 76.5t22.5 65.5t51.5 67q63 49 164.5 63.5t183.5 -14.5q96 -29 131 -98q39 -80 -18 -185q-12 -20 -32 -9t-9 30q47 86 18 143q-27 51 -104 76q-74 25 -163 12.5t-143 -55.5q-39 -29 -50 -68t-13 -104q-4 -121 55.5 -209t161.5 -135q96 -47 215 -47t219 49 q61 29 98 93.5t46 137.5q8 78 -4.5 140.5t-45.5 160.5q-23 61 -56.5 102.5t-81.5 65t-91 35.5q-41 12 -106 23q-160 27 -211 45q-113 41 -154 137q-14 31 -14 127q0 127 65.5 216t173.5 122l-4 166h45l4 -156q63 10 133 2l-2 135h45l3 -143l10 -2q133 -35 205 -135 q0 51 6 90q4 23 26.5 19t18.5 -27q-10 -51 -2 -146q2 -14 4 -43q6 -10 2 -20q6 -59 6 -95q0 -23 -22.5 -22.5t-22.5 22.5q0 35 -6 97q-10 14 -17 35q-8 27 -12 34q-27 53 -81 92t-118 54q-170 43 -292.5 -41t-122.5 -254q0 -86 10 -111q35 -78 129 -110q45 -16 201 -43 q68 -10 112.5 -23.5t100 -40t95.5 -75t62 -115.5q18 -53 26.5 -80t20 -76t9.5 -80l-2 -86q-10 -84 -53.5 -158.5t-114.5 -109.5q-86 -41 -185 -51l4 -301h-45l-4 299q-68 -2 -133 12l-4 -295h-45l4 307q-35 10 -67 27q-113 53 -179.5 152.5t-62.5 232.5z" />
<glyph unicode="%" horiz-adv-x="1062" d="M127 1229q6 51 31 100q39 76 98 113q45 28 88 24q10 10 25 4q27 -8 57 -16q6 0 10 -2q18 -2 31 -6q197 -31 502 24q23 4 26 -18q0 -8 -2 -14h2l-796 -1444l-41 20l774 1403q-215 -35 -379 -24q45 -63 38 -137t-54 -140q-37 -49 -86.5 -78.5t-113 -33t-126.5 39.5 q-49 31 -69.5 82.5t-14.5 102.5zM172 1182q8 -66 64 -101q82 -43 148.5 -23.5t115.5 85.5q47 66 47 133t-53 108q-14 12 -37 19q-20 2 -39 6t-27 4q-10 -4 -20 0q-41 20 -90.5 -10.5t-81.5 -93.5q-35 -61 -27 -127zM579.5 254q6.5 51 30.5 100q39 76 99 113q45 29 90 25 q8 4 18 0q12 -4 72 -15q53 -8 86 -31q47 -35 61.5 -91t0 -110.5t-47.5 -103.5q-37 -49 -86 -78.5t-112.5 -32.5t-126.5 40q-49 31 -70 82t-14.5 102zM624.5 207q8.5 -66 63.5 -101q82 -43 148.5 -23.5t115.5 85.5q47 66 47 133.5t-53 108.5q-20 16 -63 24q-4 0 -17.5 2 t-21.5 2q-11 -4 -21 0q-41 20 -90 -10.5t-82 -93.5q-35 -61 -26.5 -127z" />
<glyph unicode="&#x26;" horiz-adv-x="1628" d="M8 244q0 98 18.5 181t59.5 155.5t82 127t106 128.5l-14 28l-55 109q-43 80 -66 135q-70 180 4 268q61 76 150.5 89.5t155.5 -31.5q74 -43 106.5 -124t1.5 -173q-25 -78 -131 -199l-98 -111q164 -315 422 -524q14 31 26 62q14 39 25 127q12 90 28 139q61 176 193 278 q133 104 313 86q104 -10 177 -94t92 -194q18 -117 -32 -215.5t-171 -137.5q-145 -49 -236 19q-78 55 -86 162q-8 104 47 163q66 72 166 19q20 -12 9 -31.5t-29 -9.5q-70 39 -113 -7t-35 -130q8 -86 68 -131q72 -51 197 -13q102 35 144 119t26 184q-16 98 -79 171t-149 81 q-162 16 -282.5 -77t-178.5 -259q-14 -41 -24 -129q-12 -92 -29 -137q-12 -37 -31 -74q141 -111 297 -163q70 -25 191 -27h102q92 0 101 -2q23 -2 21 -24.5t-25 -20.5q-37 2 -99 2h-102q-127 2 -205 31q-156 53 -303 166q-74 -117 -182 -193q-186 -129 -373 -63 q-86 29 -143.5 101.5t-57.5 162.5zM53 244q0 -76 48.5 -136.5t123.5 -87.5q162 -55 332 60q102 71 170 182q-262 211 -430 531q-125 -141 -184.5 -260t-59.5 -289zM176 1348q-55 -68 6 -224q23 -55 62 -131q51 -96 57 -108l6 -13l86 95q100 115 123 182q25 78 -3 144.5 t-87 103.5q-53 35 -125 24.5t-125 -73.5z" />
<glyph unicode="'" horiz-adv-x="225" d="M145 995l17 443h45l-17 -443h-45z" />
<glyph unicode="(" horiz-adv-x="444" d="M113 672q2 178 39 364q2 8 17 77t26.5 115t27.5 91q61 182 168 242q18 10 29.5 -9.5t-8.5 -31.5q-90 -49 -146 -215q-16 -43 -27.5 -88.5t-25.5 -113t-16 -75.5q-37 -182 -38 -356t34.5 -363.5t91 -357.5t131.5 -334q10 -20 -10.5 -30.5t-30.5 10.5q-78 170 -133.5 339.5 t-93 363.5t-35.5 372z" />
<glyph unicode=")" horiz-adv-x="428" d="M86.5 1541.5q10.5 20.5 30.5 10.5q82 -45 131 -153q12 -27 35 -90q20 -57 34 -86q25 -51 41.5 -117t22.5 -98q4 -31 14 -121q39 -319 -35 -637q-72 -317 -227 -662q-10 -20 -30.5 -10t-10.5 31q154 338 225 649q72 311 33 625q-10 88 -14 116q-6 35 -21 95 q-16 59 -39 108q-14 31 -36 90q-20 63 -33 88q-43 96 -111 131q-20 10 -9.5 30.5z" />
<glyph unicode="*" horiz-adv-x="673" d="M35 1309l24 41l254 -150v234h45v-236l236 160l24 -37l-233 -162l270 -155l-24 -41l-271 159v-295h-45v285l-213 -145l-24 37l221 153z" />
<glyph unicode="+" horiz-adv-x="1069" d="M72 487v45h467l-2 506h45l2 -506h465v-45h-465l2 -487h-45l-2 487h-467z" />
<glyph unicode="," horiz-adv-x="331" d="M111 -291l159 475l41 -16l-159 -475z" />
<glyph unicode="-" d="M53 522v45l473 4v-45z" />
<glyph unicode="." horiz-adv-x="229" d="M76 137.5q0 28.5 19.5 48t48 19.5t48 -19.5t19.5 -48t-19.5 -48t-48 -19.5t-48 19.5t-19.5 48z" />
<glyph unicode="/" horiz-adv-x="542" d="M-2 -86l483 1534l41 -12l-483 -1534z" />
<glyph unicode="0" horiz-adv-x="888" d="M35 367q-51 268 45 462q111 226 381 230q98 8 233 -78q139 -88 160 -182q20 -84 13 -224.5t-44 -263.5q-43 -141 -120.5 -234t-194.5 -102q-248 -18 -373 103q-27 27 -46 69.5t-26.5 68.5t-16.5 85t-11 66zM80 375l10 -68q10 -57 16.5 -79.5t21.5 -58.5t40 -58 q111 -106 336 -91q98 6 166.5 88t109.5 216q35 119 42 253t-13 214q-16 76 -139 153q-111 70 -193 70h-6q-250 0 -352 -205q-88 -180 -39 -434z" />
<glyph unicode="1" horiz-adv-x="401" d="M7.5 -17.5q-5.5 21.5 17.5 27.5q59 12 159 10l-6 916q-66 -96 -125 -127q-20 -10 -30 10.5t10 30.5q61 31 155 186q10 18 30 7t7 -31l-2 -4l6 -988q82 -2 127 3q23 2 25 -20.5t-21 -25.5q-45 -4 -139 -2h-37q-96 2 -151 -10q-20 -4 -25.5 17.5z" />
<glyph unicode="2" horiz-adv-x="884" d="M25 764q10 92 95 160.5t197 97.5q76 16 145.5 16t134.5 -28.5t99 -81.5q109 -168 -20 -400q-96 -168 -273 -311q-57 -45 -159 -113l-92 -59l663 -4q4 10 0 62.5t-4 70.5q0 23 22.5 23t22.5 -23q0 -8 3 -63.5t1 -69.5h4v-45l-776 4l-4 -2q-14 -10 -29 2h-4v6q-4 10 0 21 v18h23q33 25 145 98q100 63 156 111q170 137 260 297q117 207 24 352q-41 63 -135 83t-194 -7q-106 -27 -179 -86t-81 -133q-6 -49 17.5 -92t62.5 -66q33 -23 76.5 -15.5t76.5 52.5q29 37 5.5 61.5t-60.5 -4.5q-18 -12 -31.5 5.5t2.5 31.5q33 23 65.5 22t55 -23.5 t22.5 -55.5t-22 -66q-45 -57 -105.5 -67.5t-107.5 20.5q-51 29 -80 84t-22 117z" />
<glyph unicode="3" horiz-adv-x="960" d="M55 -225q-10 113 40 179t132 85q74 14 145.5 -13.5t94.5 -86.5q33 -80 -21 -134q-27 -25 -60.5 -25.5t-70.5 23.5q-18 12 -5.5 31t30.5 6q45 -31 74 -2q33 31 12 84q-16 41 -71.5 62.5t-116.5 9.5q-66 -12 -106 -65.5t-32 -149.5q6 -82 84 -139.5t195 -81.5 q113 -23 221.5 -7.5t163.5 62.5q106 92 126.5 251t-67.5 269q-39 45 -131 74q-43 14 -157 37q-23 4 -19 26q2 10 12 17q4 8 15 12q131 39 143 45q80 31 113 76q37 49 48 123.5t-5 148.5q-16 78 -56.5 139.5t-97.5 88.5q-63 31 -160.5 34.5t-191.5 -20.5q-100 -27 -161.5 -83 t-63.5 -136q-2 -86 36.5 -134.5t100.5 -60.5q57 -10 107.5 11.5t64.5 62.5q14 47 -19 80q-27 27 -63 -4q-16 -16 -31.5 1t2.5 31q35 29 68 28t57 -25q23 -23 31 -57t-4 -66q-18 -61 -85 -90t-136 -15q-78 14 -128.5 74.5t-46 163t76 168t182.5 94.5q100 27 206.5 22.5 t178.5 -38.5q68 -33 113.5 -103t62.5 -156q18 -80 6 -165.5t-55 -145.5q-41 -53 -134 -90q-33 -12 -84 -29q51 -10 89 -22q104 -33 149 -88q102 -129 79.5 -304t-142.5 -278q-66 -57 -188 -73.5t-234 8.5q-127 25 -217.5 91t-98.5 169z" />
<glyph unicode="4" horiz-adv-x="995" d="M25 8q-16 16 2 31l133 121q41 39 105.5 106.5t98 119.5t70.5 129t64 165q47 156 6 229q-10 20 -39 39t-59 25q-74 18 -119 -25q-41 -39 -45 -106q-4 -61 26 -92q29 -29 80 2q20 10 31.5 -9.5t-6.5 -31.5q-84 -47 -137 6q-43 45 -39 129q6 82 59 133q61 61 162 39 q35 -10 71.5 -32.5t55.5 -55.5q49 -90 -2 -262q-33 -109 -76 -195t-106.5 -164t-118 -132t-150.5 -140l584 4l-4 975h45l4 -975l203 2q-4 55 -4 90q0 23 22.5 23t22.5 -23q0 -39 4 -115q6 -78 6 -116q0 -23 -22.5 -23t-22.5 23q0 37 -4 96l-205 -2l2 -369q66 4 121 13 q23 2 25.5 -19.5t-17.5 -26.5q-117 -16 -268 -16q-23 0 -23 22.5t23 22.5q49 0 94 2l-2 371l-635 -4v8q-10 0 -16 8z" />
<glyph unicode="5" horiz-adv-x="1017" d="M37 -379q-37 104 6 188.5t125 118.5q84 35 147 -4q72 -43 72 -157q0 -23 -22.5 -23t-22.5 23q0 90 -49 118q-45 27 -109 2q-66 -29 -100.5 -97.5t-5.5 -151.5q29 -78 98.5 -122t159.5 -48.5t192 18.5q156 41 270.5 138t129.5 218q16 145 -40.5 243.5t-164.5 145.5 q-104 47 -233.5 43t-243.5 -57q-92 -41 -121 -74v-4h-4q-4 -4 -8 -10q-12 -18 -31 -6t-6 31l6 8l61 858l23 -2v20h774q4 8 14 9q23 2 25 -21q18 -223 18 -254q0 -23 -22.5 -22.5t-22.5 22.5q0 51 -16 221h-750l-57 -784q25 16 96 49q125 57 262 61q139 4 254 -47 q121 -53 185 -166q66 -111 47 -268q-16 -139 -142 -245.5t-290 -149.5q-80 -20 -157 -21.5t-146.5 17t-123 65.5t-77.5 117z" />
<glyph unicode="6" horiz-adv-x="1042" d="M88 459q-20 92 8 258q4 18 6 38.5t5.5 47t5.5 41.5q10 82 30 131q53 129 155.5 243.5t223.5 163.5q39 16 81 25.5t102.5 17t78.5 11.5q23 4 27 -18.5t-18 -26.5q-25 -4 -82.5 -11.5t-96.5 -15.5t-75 -23q-111 -47 -207 -153q-96 -109 -148 -230q-18 -43 -26 -120l-6 -41 q51 111 137 176t200 65q4 0 7 -2q6 4 12 4h45h57q14 0 50 -2t57.5 -6t50.5 -12t52.5 -20.5t43.5 -30.5q80 -66 120 -176.5t40 -235.5q0 -123 -38 -235.5t-109 -184.5q-164 -164 -451 -143q-172 12 -266 182q-66 119 -72 283zM133 465q4 -16 10 -33q6 -14 -6 -24 q14 -121 64 -211q80 -147 229 -158q264 -18 414 131q63 63 99 167.5t36 219.5q0 119 -37 219.5t-106 159.5q-16 14 -36 24.5t-47.5 16.5t-43 10t-52 6t-47.5 2h-53h-49q-4 0 -6 2q-7 -4 -13 -4q-156 0 -251 -136t-105 -331v-61z" />
<glyph unicode="7" horiz-adv-x="917" d="M49 979q-2 20 17 27v10l829 10v-22l4 -3l-4 -8v-12h-6l-262 -551q2 0 47 -10q31 -8 47 -8q45 -6 74 18q16 16 31.5 -1t-3.5 -32q-41 -39 -106 -30q-20 2 -53 10q-47 10 -56 12l-377 -792l-41 20l371 778q-33 0 -59 -6q-59 -18 -113 -86q-14 -16 -31.5 -2.5t-5.5 31.5 q63 78 137 100q41 12 93 6l258 543l-744 -10q14 -92 15 -176q0 -23 -22.5 -23t-22.5 23q0 88 -17 184z" />
<glyph unicode="8" horiz-adv-x="915" d="M23 365q-4 137 76.5 265t222.5 201l45 21q-125 31 -181 119q-59 92 -28 211q29 115 125 190q96 78 221 66q6 0 10 -4q131 -20 198.5 -115.5t55.5 -212.5q-8 -82 -54 -148.5t-124 -97.5q150 -37 231.5 -170t75.5 -291q-8 -190 -131 -305q-141 -131 -373 -100 q-180 25 -274 127t-96 244zM68 367q2 -125 85 -215.5t244 -112.5q213 -29 336 88q111 102 119 274q4 109 -36 204t-127 158.5t-204 63.5q-8 1 -14 7q-51 -2 -129 -43q-131 -70 -203 -185q-74 -119 -71 -239zM201 1171q-25 -100 22 -176q55 -86 193 -106q135 -20 216 47.5 t91 175t-55.5 191t-194.5 90.5q-2 0 -6 2q-96 -2 -170 -66.5t-96 -157.5z" />
<glyph unicode="9" horiz-adv-x="1054" d="M84 498q2 213 109 368q117 172 296 172q4 0 7 -2q6 4 12 4h43h47q16 0 46 -1t49.5 -4t44 -8t46.5 -13q106 -37 167 -139.5t73 -235.5q4 -6 6 -12q16 -104 -24 -297q-4 -20 -7 -39l-8 -47l-6 -41q-12 -82 -35 -131q-104 -215 -262 -314q-156 -100 -397 -120 q-23 -2 -25 20.5t21 24.5q229 18 376.5 112t245.5 297q20 41 33 117q2 14 6 51q-59 -113 -156.5 -184.5t-226.5 -81.5q-238 -18 -370 143q-113 141 -111 361zM129 498q-2 -203 100 -332q117 -143 332 -127q168 12 274.5 135t135.5 299q29 170 -25 313q-55 141 -178 187 q-18 6 -40.5 11t-40 7t-46.5 3t-43 1h-45h-45q-4 0 -6 2q-7 -4 -13 -4q-158 0 -260 -153q-98 -143 -100 -342z" />
<glyph unicode=":" horiz-adv-x="348" d="M190 921.5q0 28.5 19.5 48t48.5 19.5t48.5 -19.5t19.5 -48t-19.5 -48t-48.5 -19.5t-48.5 19.5t-19.5 48zM195 108.5q0 28.5 19 48t48 19.5t48.5 -19.5t19.5 -48t-19.5 -48t-48.5 -19.5t-48 19.5t-19 48z" />
<glyph unicode=";" horiz-adv-x="360" d="M145 -305l97 489l45 -8l-97 -489zM207 950.5q0 28.5 19.5 48t48 19.5t48 -19.5t19.5 -48t-19.5 -48t-48 -19.5t-48 19.5t-19.5 48z" />
<glyph unicode="&#x3c;" horiz-adv-x="1138" d="M-16 473l8 21l-6 14l14 6l1102 455l16 -41l-1057 -436l1051 -406l-16 -41z" />
<glyph unicode="=" horiz-adv-x="1069" d="M47 698v45l1002 -6v-45zM53 279v45l996 -2v-46z" />
<glyph unicode="&#x3e;" horiz-adv-x="1138" d="M-14 932l16 41l1116 -436l-16 -41l-15 4l-1064 -439l-17 41l1020 422z" />
<glyph unicode="?" horiz-adv-x="1142" d="M43 928q-70 201 16 350q78 133 252 195q156 59 343.5 32.5t306.5 -135.5q68 -59 126 -174q43 -84 35 -221q-8 -135 -98 -211q-68 -55 -197 -86q-27 -8 -104 -25q-63 -12 -96 -22q-96 -27 -127 -76q-29 -47 -17 -84q10 -31 49 -51q37 -18 85.5 -13t78.5 35q16 16 32.5 0 t0.5 -32q-43 -41 -106.5 -48.5t-110.5 19.5q-55 27 -72 78q-18 55 23 121q39 61 151 94q35 10 101 24l102 23q119 31 178 78q76 63 82 180q8 123 -30 197q-55 106 -115 161q-109 98 -284 123t-322 -30q-158 -55 -228 -175q-76 -131 -14 -311q25 -72 90.5 -99.5t144.5 -13.5 q80 16 136.5 67.5t62.5 121.5q8 84 -59 100q-31 8 -64 -5t-55 -44q-14 -18 -31.5 -4.5t-5.5 29.5q31 43 77 61.5t89 7.5q47 -12 72.5 -51t21.5 -98q-8 -88 -75.5 -148.5t-159.5 -79t-173 15.5t-112 124zM485 94.5q0 28.5 19.5 48t48.5 19.5t48.5 -19.5t19.5 -48t-19.5 -48 t-48.5 -19.5t-48.5 19.5t-19.5 48z" />
<glyph unicode="@" horiz-adv-x="1226" d="M138 937q30 177 120 294q74 92 252 176q82 37 188.5 46t213 -19.5t171.5 -92.5q31 -33 54.5 -78.5t31.5 -78.5q8 -29 21 -88q45 -207 -25 -357l-14 -34l-16 -41q-8 -16 -22.5 -37t-33.5 -37q-102 -80 -200 -47q-98 31 -138 96q-8 14 -14 29q-6 -18 -12 -33 q-23 -53 -58 -78q-41 -29 -98 -16q-86 23 -110 129q-20 88 8 194q31 106 88 156q35 27 71 27q41 0 78 -35q18 -14 3 -31.5t-31 -1.5q-27 23 -50 22q-20 0 -43 -16q-47 -39 -73 -133q-25 -94 -8 -172q18 -80 79 -94q35 -10 62 8q23 18 41 57q29 70 28 162v102q0 2 -1 7.5 t-2 12.5t-1 13q-2 12 0 21q2 16 21 20q12 2 22 -8q31 -31 27 -100q0 -16 -6 -58q-4 -37 -4 -57q-2 -66 20 -104q31 -51 113 -78q78 -23 160 43q18 14 29.5 31.5t25.5 50.5l18 51q61 133 21 327q-10 53 -19.5 84t-29 71t-45.5 67q-55 57 -151.5 82.5t-196 17.5t-173.5 -43 q-170 -78 -235 -164q-84 -106 -112.5 -273t3.5 -333q31 -174 116 -312.5t210 -197.5q61 -31 124.5 -39t160.5 -8q23 0 22.5 -22.5t-22.5 -22.5q-66 0 -106 2t-95 14.5t-104 34.5q-137 66 -227.5 213.5t-123.5 331.5q-33 170 -3 347zM707 944q2 -2 8 -2l-6 6z" />
<glyph unicode="A" horiz-adv-x="1359" d="M-39 -229.5q0 22.5 23 22.5q51 0 112 2l494 1745q-59 -2 -98 -8q-23 -4 -27.5 18.5t18.5 26.5q49 8 129 8q100 2 123 4t25 -20.5t-21 -24.5q-33 -2 -98 -2l150 -475h2v-6l393 -1249h131q23 0 22.5 -22.5t-22.5 -22.5h-301q-23 0 -23 22.5t23 22.5h123l-381 1208l-273 -12 l-342 -1209q20 0 138 8q23 2 24.5 -20.5t-20.5 -24.5q-217 -14 -301 -14q-23 0 -23 22.5zM498 1055l245 10l-127 403z" />
<glyph unicode="B" horiz-adv-x="1243" d="M-5.5 1561.5q3.5 21.5 23.5 19.5q53 -4 77 -4t77 5t82 5q96 4 135 4h131q96 0 151.5 -8t133.5 -22.5t140.5 -41t115.5 -63.5q82 -54 123 -152q39 -93 39 -196v-10q-2 -108 -44 -205.5t-118 -159.5q-59 -45 -131 -74q90 -25 155.5 -93t100.5 -165q32 -84 32 -179 q0 -37 -4 -76q-18 -138 -102 -226q-133 -145 -518 -188q-174 -18 -569 -19q-23 0 -23 22.5t23 22.5h55h61h66l-6 1780q-75 -5 -125 -5q-38 0 -62 3q-23 4 -19.5 25.5zM246 1542l2 -891q2 0 194 -6q52 -2 96 -2q67 0 117 4q242 14 377 123q68 51 106 140t40 188v10 q0 94 -35 176q-37 86 -107 135q-61 41 -142 69t-146.5 40t-171.5 16q-84 3 -134 3h-23q-52 -1 -165 -5h-8zM250 606l2 -848q195 4 338 19q367 41 489 172q73 79 89 203q4 34 5 67q0 87 -30 166q-41 119 -129 185q-71 54 -161 54q-22 0 -44 -3h-4q-68 -14 -148 -19 q-50 -4 -118 -4q-45 0 -99 2q-172 6 -190 6z" />
<glyph unicode="C" horiz-adv-x="1060" d="M6 524q10 145 35 267t70 246t124.5 231.5t188.5 193.5q90 68 202 84q32 4 61 4q76 0 142 -28q94 -37 150 -113q0 59 8 107q4 23 26.5 18.5t18.5 -27.5q-9 -46 -9 -113q0 -38 3 -83q15 -48 15 -104q0 -12 -1 -25q0 -8 -6 -15v-4q0 -23 -22.5 -22.5t-22.5 22.5q0 31 -6 140 q-41 125 -170 176q-59 25 -127 25q-26 0 -54 -4q-100 -14 -179 -75q-201 -154 -289 -378q-90 -223 -113 -527q-4 -49 -4 -96q0 -133 29 -258q39 -172 149 -262q78 -63 226 -115q107 -36 176 -36q34 0 59 9q98 35 171 128.5t105.5 202t32.5 216.5q0 23 23 23q10 0 16 -6.5 t6 -16.5q0 -115 -33.5 -229.5t-113.5 -217t-191 -141.5q-33 -12 -76 -12q-78 0 -190 39q-156 51 -239 119q-84 70 -132.5 192.5t-57.5 234.5q-5 59 -5 120q0 54 4 110z" />
<glyph unicode="D" horiz-adv-x="1300" d="M-3 -252.5q-5 21.5 15 27.5q44 10 106 10q26 0 56 -2q16 0 47 -2t37 -4l-8 1755q-72 0 -221 -6q-8 0 -15.5 6t-7.5 15t6 16.5t17 7.5q152 6 272 5q140 0 236 -7q342 -27 481 -146q225 -190 258 -573q6 -68 6 -136q0 -241 -74 -497q-4 -8 -16 -55t-19.5 -68.5t-22.5 -57.5 t-32 -59q-70 -100 -184 -178q-109 -76 -322 -78q-59 0 -174 7q-76 4 -100 4q-4 -2 -10 -2h-25v-2v-2h-45v6q-8 2 -39 4t-49 4q-20 1 -38 1q-64 0 -107 -11q-23 -4 -28 17.5zM295 1532l8 -1753q31 0 139.5 -6t169.5 -6q199 2 297 69q106 74 172 166q14 23 27.5 53.5t21 51 t19.5 65.5t14 57q74 250 74 487q0 66 -6 130q-33 365 -242 545q-129 109 -454 135q-87 6 -188 6h-52z" />
<glyph unicode="E" horiz-adv-x="1042" d="M-29 -243.5q0 22.5 23 22.5q37 0 82 4q9 54 9 136q0 27 -1 58q-6 197 -6 226q13 366 13 674q0 77 -1 151q-2 4 -2 8q0 6 2 13q0 139 -4 270q0 23 -5 74t-5 74.5t8 80.5h-24q-34 0 -62 -4q-23 -2 -26 19.5t18 25.5q30 5 71 4q31 0 68 -2q115 -8 131 -8q123 0 370 -1 t369 -1q23 0 23 -22q0 -10 -8 -17q0 -16 1 -34.5t3 -40t4 -33.5q1 -22 1 -43q0 -51 -7 -88q-4 -23 -26.5 -19t-18.5 27q7 34 7 80q0 19 -1 39q-2 6 -5 46t-3 60q-113 0 -349.5 1t-359.5 1q-25 0 -131 8q-8 -37 -8 -70.5t5 -80.5t5 -76q4 -123 4 -256q178 12 516 12 q-3 51 -3 94q0 65 7 115q4 20 25.5 17.5t19.5 -25.5q-7 -40 -7 -104q0 -53 5 -121q8 -126 7 -197v-37q-2 -23 -25 -20.5t-21 24.5q1 23 1 53q0 62 -5 156q-342 0 -520 -12q1 -73 1 -150q0 -307 -13 -665q0 -29 6 -226q1 -34 1 -64q0 -76 -7 -128q76 6 113 8q28 3 118 3 t243 -3q306 -6 364 -6q1 114 1 181.5t-1 86.5q-2 23 20.5 25t24.5 -21q2 -45 2 -95t-1 -111.5t-1 -94.5q0 -23 -23 -22q-8 0 -16 6q-63 0 -327 5q-146 3 -254 3q-87 0 -150 -2q-33 -2 -119 -8h-6q-8 -10 -21 -8q-6 2 -10 6q-49 -4 -86 -4q-23 0 -23 22.5z" />
<glyph unicode="F" horiz-adv-x="1083" d="M-23 -256q0 23 23 23h115q8 55 9 121v28q0 56 -3 124q-4 85 -4 128q0 109 -4 309.5t-4 265.5q-1 57 -1 112q0 271 17 466v13q0 30 -6 100q-2 26 -2 48q0 37 6 64h-25q-36 0 -67 -4q-20 -2 -23.5 19.5t19.5 25.5q9 5 53 4q33 0 86 -2q123 -6 135 -6q123 0 370 -1t369 -1 q23 0 23 -22q0 -8 -6 -17q0 -23 3 -77t3 -80.5t-4 -81.5q-2 -23 -24.5 -21t-20.5 25q4 55 4 76.5t-3 73.5t-3 79q-113 0 -350.5 1t-360.5 1q-27 0 -133 6q-6 -26 -6 -61q0 -21 2 -45q6 -72 6 -106v-15q-10 -119 -14 -254q61 8 137 11t131 3t143 -2t129 -2q-5 75 -5 132 q0 43 3 77q2 23 24.5 21t20.5 -25q-3 -33 -3 -79q0 -62 5 -150q6 -96 7 -164q0 -40 -3 -70q-2 -23 -24.5 -20.5t-20.5 24.5q3 32 3 75q0 57 -5 134q-43 0 -132 2t-144 2t-131 -4t-135 -12q-3 -78 -3 -173q0 -48 1 -100q0 -66 4 -266.5t4 -308.5q0 -37 4 -122q3 -68 3 -125 v-29q-1 -68 -9 -125h190q23 0 23 -23t-23 -23h-350q-23 0 -23 23z" />
<glyph unicode="G" horiz-adv-x="1376" d="M6 539q23 303 118 538.5t304 403.5q88 70 200 86q32 4 62 4q78 0 146 -29q92 -37 149 -112q0 61 8 108q4 23 26.5 18.5t18.5 -26.5q-8 -42 -8 -104q0 -44 4 -99q13 -50 13 -104v-21q0 -6 -5 -10v-8q0 -23 -22.5 -23t-22.5 23q0 35 -8 135q-37 129 -170 182 q-58 25 -125 25q-28 0 -58 -4q-101 -15 -179 -78q-201 -160 -293 -387q-92 -223 -113 -522q-3 -40 -3 -79q0 -128 30 -255q47 -205 149 -283q86 -66 228 -115q106 -37 176 -37q35 0 61 9q98 35 171 127t104.5 199.5t33.5 215.5q-2 10 -6 17q-2 4 -2 8l-12 6 q-51 20 -68.5 26.5t-59.5 17.5q-33 9 -55 9q-5 0 -10 -1q-24 -3 -59 -14t-65 -38q-49 -39 -60 -84q-6 -23 -27.5 -17.5t-17.5 25.5q14 61 76 113q45 35 90 51q30 10 62 10q16 0 32 -2q49 -8 79 -17t83 -30q10 -6 16 -8q100 -39 158 -39q86 0 162 78q16 16 32.5 0t0.5 -33 q-90 -90 -195 -90q-47 0 -108 19q8 -33 12 -86q6 -68 8 -170q0 -72 -1 -184.5t-1 -119.5q0 -23 -22.5 -22.5t-22.5 22.5q0 8 1 120t1 182q0 35 -2 63q-35 -139 -114 -246.5t-197 -148.5q-34 -13 -80 -13q-79 0 -191 39q-147 51 -239 121q-115 88 -164 309q-32 135 -32 270 q0 39 3 79z" />
<glyph unicode="H" horiz-adv-x="1026" d="M18 1525.5q-4 22.5 19 26.5q82 14 219 15q23 0 23 -22.5t-23 -22.5q-59 0 -100 -2v-486l708 4v504q-47 -4 -94 -12q-23 -4 -27 18.5t19 26.5q82 14 219 14q23 0 23 -22.5t-23 -22.5h-72v-1730q45 0 72 2q23 2 25 -20.5t-21 -24.5q-27 -2 -102 -2h-21q-46 0 -76 -7 q-23 -4 -26.5 18.5t18.5 26.5q35 6 86 7v1179l-708 -4v-1179q70 0 94 2q23 2 24.5 -20.5t-20.5 -24.5q-27 -2 -102 -3h-23q-45 0 -74 -6q-23 -4 -26.5 18.5t18.5 26.5q29 6 64 7v1706q-35 -2 -66 -9q-23 -4 -27 18.5z" />
<glyph unicode="I" horiz-adv-x="378" d="M-6.5 1576.5q0.5 22.5 22.5 22.5h140h2h2h147q23 0 23 -22.5t-23 -22.5h-129q-17 -250 -16 -589q0 -133 2 -279q0 -35 7 -372t7 -512q16 0 71.5 -0.5t86.5 -0.5q23 0 22.5 -22.5t-22.5 -22.5q-31 0 -86 1t-74 1h-43q-62 0 -113 -4q-23 -2 -24.5 20.5t20.5 24.5 q51 4 117 3q0 174 -7 510.5t-7 371.5q-2 139 -2 265q0 348 16 605h-117q-23 0 -22.5 22.5z" />
<glyph unicode="J" horiz-adv-x="1040" d="M-26 306q16 100 79 179q51 63 111 93q49 25 94 25q10 0 18 -1q54 -6 97 -43q63 -51 77 -142q2 -19 2 -39q0 -74 -40 -155q-12 -20 -32 -9t-9 30q36 76 36 138q0 15 -1 28q-11 73 -62 114q-31 27 -71 32q-7 1 -14 1q-35 0 -75 -19q-49 -24 -94 -81q-78 -108 -78 -225 q0 -9 1 -19q7 -127 89 -244q82 -115 206 -168q71 -31 144 -31q53 0 107 17q170 55 242 209q49 104 59 434q2 81 2 168q0 144 -6 303q-2 25 -12 109q-6 59 -6 98v18q12 258 12 410q-80 -4 -133 -20q-23 -6 -29 16.5t17 28.5q79 22 275 22h17q23 0 23 -22.5t-23 -22.5h-102 q0 -162 -12 -416v-17q0 -35 6 -89q10 -86 12 -115q6 -159 6 -304q0 -87 -2 -169q-10 -338 -63 -453q-39 -82 -109.5 -142t-161.5 -87q-61 -19 -121 -19q-79 0 -157 33q-137 60 -227 185q-57 80 -83 171q-16 56 -16 115q0 37 7 75z" />
<glyph unicode="K" horiz-adv-x="1241" d="M-29.5 -255q-11.5 19 9.5 32q44 24 128 24h19l16 1729q-63 0 -100 -14q-20 -8 -28 12t12 28q49 19 133 19h8q23 0 70 -2t67 -2q23 0 23 -22.5t-23 -22.5q-20 0 -62 2t-55 2l-12 -1251l703 1228q-76 0 -125 -10q-23 -4 -27 18.5t18 26.5q29 6 68 8t64 2h71h62 q23 0 22.5 -22.5t-22.5 -22.5h-25h-29h-26l-445 -780l562 -915q4 0 63 -3.5t88 -3.5q23 0 23 -22.5t-23 -22.5q-33 0 -94.5 3.5t-67.5 3.5l-10 -9l-6 9h-26q-56 0 -99 -7q-23 -2 -26 19.5t18 25.5q47 6 106 7l-534 870l-271 -475l-12 6l-4 -412q18 -2 61 -4q53 -4 76 -4 t23 -22.5t-23 -22.5q-25 0 -78 4q-49 2 -67 4h-37h-14q-75 0 -113 -20q-18 -10 -29.5 9z" />
<glyph unicode="L" horiz-adv-x="1087" d="M-23.5 -261.5q7.5 21.5 27.5 15.5q33 -10 78 -12l-12 1782q-33 -2 -58 -2q-23 0 -22.5 22.5t22.5 22.5q27 0 82 2q55 4 84 4q23 0 23 -22.5t-23 -22.5q-25 0 -63 -2l12 -1784q2 0 47 3t68 3q131 0 391 6t389 6q0 12 1 73q0 30 0.5 51.5t-0.5 33.5q-1 24 -4 67.5t-11 75.5 q-4 20 17.5 26t27.5 -17q8 -33 11 -79t4 -76q0 -15 0.5 -37t-0.5 -51q-1 -58 -1 -73q0 -16 -14 -20q-4 -18 -23 -19q-131 0 -393 -6t-395 -6q-18 0 -74 -3q-42 -2 -76 -2h-22q-43 1 -78 11q-23 8 -15.5 29.5z" />
<glyph unicode="M" horiz-adv-x="1415" d="M-43 -276.5q-2 22.5 20 24.5q37 4 106 4h50l-8 1786h-121q-23 0 -22.5 22.5t22.5 22.5h272q23 0 23 -22.5t-23 -22.5h-98l512 -1049l488 1059h-2q-117 -10 -177 -10q-23 0 -22.5 22.5t22.5 22.5q57 0 175 8q117 10 176 11q23 0 22.5 -23t-22.5 -23q-51 0 -121 -6l-4 -6 l2 -1790q88 2 141 13q23 4 27 -18.5t-19 -27.5q-59 -12 -166 -12q-115 0 -159 -6q-23 -2 -25 20.5t21 24.5q47 6 135 6l-2 1692l-461 -1004q57 -2 84 -2q23 0 22.5 -22.5t-22.5 -22.5q-16 -1 -126 5q-42 2 -69 3q-45 0 -51 -6q-23 -2 -25 20.5t21 24.5q32 4 79 5q15 0 32 -1 l-494 1004l8 -1698q94 2 152 15q20 4 25 -17.5t-17 -28.5q-66 -14 -180 -14q-131 0 -176 -4q-23 -2 -25 20.5z" />
<glyph unicode="N" horiz-adv-x="1247" d="M-18.5 -251.5q0.5 22.5 22.5 22.5h62h49q0 133 -4.5 404t-4.5 409q0 53 5.5 142t6.5 139v15q0 48 -5 124q-10 100 -15 280q-1 49 -1 89.5t1 72.5q4 55 11 84q-45 -2 -82 -4q-23 -2 -25 20.5t21 24.5q31 2 280 2q23 0 23 -22.5t-23 -22.5q-8 0 -117 2q29 -68 80 -176 q70 -150 94 -205q10 -20 19 -64q10 -43 16 -59q86 -213 205 -461q23 -45 88 -162q59 -104 86 -167q8 -16 34 -79t36 -85l35 -76q25 -51 41 -82t43 -70l49 -75q0 123 -4 376.5t-4 384.5q0 37 8 187q3 56 3 101.5t-3 80.5q-14 209 -21 324q-1 54 -1 100.5t1 83.5q2 80 15 117 q-88 0 -138 -15q-23 -6 -28.5 16.5t16.5 28.5q41 10 93 14q28 2 63 1q30 0 65 -1q76 -3 90 -3q23 0 23 -22.5t-23 -22.5q-12 0 -114 4q0 -4 -2 -8q-12 -27 -15 -111q-1 -38 -1 -83t1 -97q4 -115 21 -322q3 -38 3 -85t-3 -103q-8 -156 -8 -185q0 -131 4 -389t4 -385 q25 2 74 4t71.5 4.5t24.5 -20.5t-20.5 -25t-84.5 -6q-61 -2 -96 -6q-8 -4 -16 -2q-49 -4 -92 -14q-20 -4 -25.5 17.5t16.5 27.5q29 6 64 10q-27 35 -52.5 77t-43 73.5t-41.5 83.5l-33 77q-12 23 -38 84.5t-32 77.5q-27 61 -84 162q-72 127 -90 164q-115 240 -205 465 q-8 20 -18 65q-8 39 -17 58q-4 10 -94 200q-49 104 -75 170q-4 -23 -7 -59q-1 -30 -1 -70t1 -90q4 -178 15 -276q5 -77 5 -127v-15q-1 -52 -6 -143.5t-5 -138.5q0 -137 4 -408.5t4 -404.5q53 0 96 2q23 2 25 -20.5t-21 -24.5q-39 -2 -256 -2q-23 0 -22.5 22.5z" />
<glyph unicode="O" horiz-adv-x="1122" d="M55 393q-20 154 -19.5 284.5t19.5 237.5l19 105l16 104q6 35 20.5 90.5t33 90t48 77.5t72.5 79t103 69q47 27 70.5 39t61.5 23.5t81 15.5q4 2 6 2q9 1 18 1l88 -17q53 -20 85 -40t83 -59q41 -33 119 -143q82 -117 94 -164q29 -139 29 -313q0 -101 -10 -213 q-27 -305 -99 -519q-63 -186 -110 -264q-96 -158 -236 -170q-40 -4 -77 -4q-106 0 -192 30q-114 40 -202 159q-35 47 -57 118q-25 74 -33 120t-18.5 145.5t-12.5 115.5zM100 397l13 -118q10 -96 17 -138.5t28.5 -110t54.5 -112.5q77 -104 181 -140q78 -27 179 -27q34 0 70 3 q117 10 201 148q47 78 108 258q70 205 96 506q9 109 9 206q0 171 -29 304q-8 41 -86 149q-74 106 -111 133q-45 37 -73.5 56.5t-71.5 35t-84 15.5h-2q-61 -4 -100 -21q-39 -14 -113 -55q-53 -29 -92 -59q-39 -33 -66.5 -73t-45 -71t-30 -84t-18.5 -86t-16 -100l-19 -109 q-20 -106 -20 -233t20 -277z" />
<glyph unicode="P" horiz-adv-x="983" d="M-11 1542.5q-4 22.5 19 26.5q115 23 243 23q80 0 165 -9q258 -27 381 -129q129 -106 151 -317q2 -14 7.5 -56.5t7.5 -65t1 -58t-8 -64.5q-29 -125 -110.5 -221.5t-194 -152.5t-228.5 -87t-237 -39h-8l10 -612q14 -2 54 -2h59q23 0 23 -22.5t-22.5 -22.5t-65.5 1t-64 1 q-74 0 -127 -6q-23 -2 -25 20.5t21 24.5q45 4 102 4l-26 1759q-55 -4 -101 -14q-23 -4 -27 18.5zM162 1542l16 -1104h4q119 8 230.5 38t217 83t181.5 141t100 201q6 27 7.5 58.5t-1 53t-7.5 61.5t-7 59q-20 190 -135 288q-113 92 -358 117q-73 7 -147 7q-50 0 -101 -3z" />
<glyph unicode="Q" horiz-adv-x="1138" d="M-63 -594q6 45 57 88q14 20 29 37l47 63l59 78q53 72 92 103q-29 12 -53 30q-106 74 -158 226q-10 31 -18 62.5t-14.5 68.5t-10.5 64.5t-7 72.5t-4 67.5t-2 72.5t-1 65v69v64q0 25 -1 114v78v55q1 44 5 113.5t14 124.5q51 272 258 404q61 39 102.5 56t98.5 22h2 q18 3 35 3q112 0 215 -110l45 -55q25 -33 39 -56l39 -59l31 -47q66 -98 73 -346q1 -36 1 -72q0 -204 -38 -430q-47 -283 -137 -463q-106 -215 -248 -229q-38 -4 -74 -4q-76 0 -139 18h-2q-39 -16 -108 -108l-58 -78l-2 -4q126 65 229 65q32 0 62 -6q49 -10 121 -59 q16 -10 57 -40t64 -44q93 -61 165 -61q39 0 72 18q63 33 119 86t74 108q8 27 8 50q0 31 -16 51q-24 26 -69 26h-9q-53 -4 -95 -45t-42 -108q0 -23 -22.5 -23t-22.5 23q0 86 55 139t125 57q8 1 16 1q62 0 97 -42q27 -32 27 -77q0 -30 -11 -64q-20 -68 -81.5 -127t-131.5 -96 q-43 -22 -92 -22q-87 0 -193 69q-23 14 -61 43l-57 41q-66 43 -105 51q-27 6 -56 6q-105 0 -237 -78q-45 -25 -67 -43l-31 -47q0 -2 -4 -9t-6 -9q-6 -8 -9.5 -11t-7.5 -5q-14 -6 -24 4q-8 6 -8 14v6zM-3 752q1 -88 1 -115v-64v-69q0 -10 1 -63.5t2 -73t4 -64.5t7 -70.5 t9.5 -62.5t13.5 -68l16 -57q47 -137 144 -203q87 -61 219 -61q33 0 69 4q117 12 211 203q88 178 133 452q38 219 38 421q0 36 -1 71q-8 238 -65 323q-10 14 -33 50l-37 57q-14 23 -36.5 52.5t-43.5 51.5q-90 95 -181 95h-9q-4 -2 -10 -2q-57 -2 -95.5 -16.5t-99.5 -53.5 q-190 -121 -238 -375q-10 -55 -14 -121q-4 -68 -5 -111q-1 -21 -1 -53.5t1 -76.5z" />
<glyph unicode="R" horiz-adv-x="1060" d="M-15 1529.5q-2 22.5 21 24.5q150 18 278 18q309 0 482 -108q82 -51 128 -145t56 -197q2 -12 7.5 -55t7.5 -66.5t1 -59.5t-8 -64q-57 -246 -323 -383l274 -725q43 2 109 2q23 0 22.5 -22.5t-22.5 -22.5q-176 0 -285 -19q-23 -4 -27 18.5t19 26.5q66 10 137 15l-268 708 q-186 -84 -412 -100h-6l10 -615q14 0 52 -1t59 -1q23 0 22.5 -22.5t-22.5 -22.5q-19 0 -79 1h-54.5h-43.5q-38 -1 -75 -7q-23 -4 -27 18.5t19 26.5q45 6 104 8l-26 1762q-49 -6 -105 -13q-23 -2 -25 20.5zM160 1524l16 -1104h2q119 8 231.5 37.5t219 84t183.5 142.5t101 201 q6 27 7.5 58.5t-0.5 53t-7 64.5l-8 57q-10 94 -51 179t-113 130q-161 102 -444 102q-65 0 -137 -5z" />
<glyph unicode="S" horiz-adv-x="1048" d="M-53 260q4 63 7 92t24.5 76t62.5 80q94 80 256 88q20 1 40 1q138 0 222 -62q49 -39 66 -158q2 -18 2 -35q0 -60 -27 -113q-12 -20 -31.5 -9t-9.5 30q23 42 23 88q0 15 -2 31q-14 102 -50 129q-73 56 -198 56q-16 0 -33 -1q-147 -10 -229 -78q-33 -29 -50.5 -65.5 t-20.5 -64.5t-7 -89q-1 -16 -1 -32q0 -144 83 -255q92 -123 241 -170q84 -26 172 -27q70 0 142 17q18 4 56 10t65.5 13.5t48.5 17.5q78 39 124 118t56 173q5 46 5 91q0 96 -23 185q-35 129 -125.5 228.5t-227.5 138.5q-45 14 -143 27q-111 16 -158 26q-195 45 -252 180 q-20 47 -20 114t6 110q10 137 101 228t216 119q62 14 124 13q64 0 128 -14q82 -18 153 -66.5t114 -116.5q-1 26 -1 50q0 47 5 84q4 20 25.5 17t19.5 -26q-5 -33 -5 -79t5 -105q0 -12 4 -53q8 -10 2 -23q6 -74 6 -116q0 -23 -22.5 -23t-22.5 23q0 45 -6 122q-12 16 -21 41 q-12 35 -16 43q-35 68 -102.5 117t-145.5 66q-58 16 -116 16q-31 0 -63 -4q-89 -14 -162 -50t-121 -106.5t-54 -160.5q-6 -47 -6 -105.5t16 -97.5q47 -113 221 -154q35 -8 154 -24q102 -14 150 -27q150 -43 249 -153q98 -110 134 -248q24 -95 25 -197q0 -46 -5 -94 q-12 -104 -63.5 -193.5t-141.5 -134.5q-25 -12 -56.5 -20.5t-71.5 -14.5t-54 -10q-76 -14 -153 -14q-24 0 -50 2q-102 6 -193 50t-159 108.5t-104 160.5q-31 82 -32 177q0 16 1 32z" />
<glyph unicode="T" horiz-adv-x="1208" d="M-23 1563q-2 23 21 24h6h2q193 0 566.5 3t551.5 3q6 6 15 6q10 0 18 -6h8q23 0 23 -22.5t-23 -22.5q14 -143 15 -219q0 -23 -22.5 -22.5t-22.5 22.5q0 76 -15 219q-174 0 -483 -2l-10 -1808q16 0 39 4q78 8 104 8q23 0 23 -22.5t-23 -22.5q-25 0 -98 -8q-48 -5 -80 -5 q-16 0 -27 1q-18 2 -44.5 7t-35 5t-36.5 -4q-23 -4 -28 17.5t15 27.5q37 4 50.5 4t44 -6t38.5 -6q6 0 13 -2l10 1810q-379 -4 -567 -4q2 -14 5 -44t5 -46q3 -30 3 -56q0 -38 -7 -65q-6 -23 -28.5 -16.5t-16.5 28.5q7 22 7 56q0 22 -3 49q0 12 -5 54t-8 61z" />
<glyph unicode="U" horiz-adv-x="1271" d="M-21.5 1547.5q-5.5 21.5 17.5 27.5q41 8 88 8t103.5 -4t82.5 -4q23 0 23 -22.5t-23 -22.5q-33 0 -100 4q0 -37 -8 -332t-8 -487q0 -317 14 -475q8 -106 22 -174q16 -70 37 -97q4 -8 20.5 -30.5t25 -32.5t22.5 -24.5t27 -22.5q80 -51 184 -76q68 -16 136 -17q35 0 69 5 q106 12 186 65q80 55 115 154q42 122 60 278q15 136 16 234v26q-2 104 -14.5 300t-14.5 274q0 23 6 217q1 23 1 45q0 99 -15 166v4q-63 -2 -123 -6q-23 -2 -25 20.5t21 24.5q135 10 305 10q23 0 22.5 -22.5t-22.5 -22.5q-70 0 -133 -2q15 -66 16 -160q0 -28 -2 -59 q-6 -193 -6 -215q2 -78 11 -218.5t13 -236.5q3 -62 4 -135q0 -40 -2 -84q-2 -123 -20 -236.5t-57 -218.5q-39 -111 -129 -172t-207 -75q-35 -4 -71 -4q-74 0 -150 17q-112 25 -199 83q-14 10 -31.5 27.5t-27 28.5t-26.5 36t-22 27q-27 35 -43 114q-14 72 -24 181 q-14 160 -14 479q0 193 8 488.5t8 334.5q-18 1 -34 1q-49 0 -87 -9q-20 -4 -25.5 17.5z" />
<glyph unicode="V" horiz-adv-x="1363" d="M-174.5 1562.5q6.5 22.5 29.5 16.5q49 -14 135 -14h22q51 2 88 1q56 0 82 -3q23 -4 20 -25.5t-24 -19.5q-31 4 -76 4h-32l522 -1696l543 1696q-26 -1 -50 -1q-48 0 -86 5q-20 4 -17 25.5t26 19.5q38 -5 89 -5q25 0 54 1q154 10 170 10q23 0 22.5 -22.5t-22.5 -22.5 q-31 0 -137 -8l-563 -1757q139 -4 147 -5q23 0 23 -22.5t-23 -22.5t-143 4l2 -4l-45 -12l-4 16h-30q-72 0 -124 -8q-23 -2 -26 19.5t18 25.5q61 8 147 9l-540 1753h-9h-24q-94 0 -148 14q-23 6 -16.5 28.5z" />
<glyph unicode="W" horiz-adv-x="1968" d="M-179.5 1526.5q-4.5 21.5 15.5 27.5q98 23 311 23q23 0 23 -22.5t-23 -22.5h-106l637 -1747l22 -2l254 868l-325 889q-49 0 -86 -8q-23 -4 -27 18.5t19 26.5q29 4 64.5 7t60 3t65.5 -1t59 -1q23 0 23 -22.5t-23 -22.5q-20 0 -56 1t-52 1l299 -817l237 811q-86 -4 -127 -4 q-23 0 -22.5 22.5t22.5 22.5q41 0 124 3t124 3q23 0 23 -22.5t-23 -22.5q-33 0 -73 -2l-259 -883l299 -817l506 1731h-8q-25 2 -46 2q-42 0 -69 -8q-23 -6 -28.5 16t16.5 29q33 8 80 8q24 0 51 -2q12 0 36 -2t28 -2q37 -4 59.5 -4t22.5 -22.5t-23 -22.5q-25 0 -63 4h-11 l-524 -1799q82 -8 117 -8q23 0 22.5 -22.5t-22.5 -22.5q-33 0 -148 13q-50 5 -87 5q-28 0 -48 -3q-23 -2 -25.5 19.5t17.5 25.5q24 3 55.5 3t69.5 -3l-297 809l-233 -797q47 -2 83 -2q23 0 23 -22.5t-23 -22.5q-45 0 -176 4l-8 -4l-2 4q-66 2 -108 2q-23 0 -23 22.5t23 22.5 q39 0 92 -2l-635 1745q-82 -4 -146 -21q-23 -4 -27.5 17.5z" />
<glyph unicode="X" horiz-adv-x="1212" d="M-6.5 1518.5q-11.5 19.5 8.5 31.5q43 24 115 23h22q16 -2 68 -6q41 -4 61 -4q23 0 23 -22.5t-22.5 -22.5t-65.5 4l-17 2l406 -832l422 844q-72 -4 -117 -4q-23 0 -23 22.5t23 22.5q45 0 135 6t137 6q23 0 23 -22.5t-23 -22.5q-41 0 -102 -4l-451 -899l420 -862h129 q23 0 23 -22.5t-23 -22.5h-151l-4 -2v2h-162q-23 0 -23 22.5t23 22.5h139l-395 811l-406 -813q51 2 99 2q23 0 22.5 -22.5t-22.5 -22.5q-59 0 -121 -2l-6 -13l-23 13l-80 -4q-23 -2 -24.5 20.5t20.5 24.5l84 4l432 864l-432 887h-13q-65 0 -99 -19q-18 -10 -29.5 9.5z" />
<glyph unicode="Y" horiz-adv-x="1026" d="M-15 1558.5q4 22.5 27 18.5q29 -5 71 -5q21 0 46 1q117 6 125 6q23 0 22.5 -22.5t-22.5 -22.5q-27 0 -86 -4q20 -25 37.5 -50.5t45.5 -72.5t30 -51q80 -133 204 -297q41 53 162 239q100 156 168 236h-127q-23 0 -22.5 22.5t22.5 22.5h295q23 0 23 -22.5t-23 -22.5h-109 l-4 -4q-70 -78 -184 -256q-117 -182 -172 -254l2 -1272q72 0 123 8q23 2 26 -19.5t-18 -25.5q-47 -6 -98 -7h-36q-38 0 -83 1q-68 2 -94 2q-23 0 -23 22.5t23 22.5q4 0 135 -2l-2 1256q-139 182 -225 325q-10 14 -30.5 50t-31 52.5t-30 42t-37.5 44.5q-2 4 -4 6h-24 q-48 0 -83 6q-23 4 -19 26.5z" />
<glyph unicode="Z" horiz-adv-x="1267" d="M20 -254l7 10v37h24l1141 1747l-1100 -8q-3 -22 -3 -53.5t3 -71.5q12 -139 12 -158q0 -23 -22.5 -22.5t-22.5 22.5q0 2 -12 154q-3 40 -3 73q0 50 7 85q2 2 2 4v12l1188 8v-37l6 -4l-1143 -1751l983 -6q-2 37 -3 76v42.5v49.5q1 53 1 72q0 23 22.5 22.5t22.5 -22.5 q0 -20 -1 -78v-53v-42q1 -38 6 -75q0 -6 -2 -12v-25l-1057 6l-19 -27z" />
<glyph unicode="[" horiz-adv-x="483" d="M43 1432h33v10h358v-45h-346l21 -1782l354 8v-45l-410 -10v45h10z" />
<glyph unicode="\" horiz-adv-x="655" d="M-106 1409l40 21l703 -1422l-41 -20z" />
<glyph unicode="]" horiz-adv-x="483" d="M53 -387l365 8l-21 1776h-321v45h358v-10h8l21 -1819v-35l-410 -10v45z" />
<glyph unicode="^" horiz-adv-x="897" d="M125 586l346 819l-2 2l2 2l6 12l12 -4l21 10l369 -794l-41 -21l-342 738l-330 -781z" />
<glyph unicode="_" horiz-adv-x="1097" d="M-35 -195h1112v-45h-1112v45z" />
<glyph unicode="`" horiz-adv-x="382" d="M63 1427l33 33l269 -272l-33 -33z" />
<glyph unicode="a" horiz-adv-x="1138" d="M-18.5 -10.5q0.5 22.5 22.5 22.5q43 0 92 2l402 1416q-45 -2 -76 -9q-23 -4 -27 18.5t19 26.5q41 6 106 9q84 2 101 4q23 2 24.5 -20.5t-20.5 -24.5q-27 -2 -76 -4l444 -1403h103q23 0 22.5 -22.5t-22.5 -22.5h-246q-23 0 -23 22.5t23 22.5h96l-311 977l-215 -9 l-277 -979q39 2 107 9q23 2 24.5 -20.5t-20.5 -24.5q-162 -12 -250 -13q-23 0 -22.5 22.5zM434 1042l189 7l-99 309z" />
<glyph unicode="b" horiz-adv-x="1032" d="M34 1437.5q2 22.5 25 20.5q88 -6 134.5 -6t138.5 4t141 4q260 0 410 -102q66 -45 98.5 -122t32.5 -163q-2 -86 -36 -164t-95 -127q-45 -33 -99 -55q72 -25 125.5 -86t79.5 -141q21 -70 23 -138v-11q0 -63 -29 -126q-29 -66 -86 -106q-47 -33 -98 -58q-53 -25 -123 -38 l-115 -23q-45 -10 -137 -13t-120 -5q-19 -1 -71 -1h-60q-103 1 -110 1q-23 0 -22.5 22.5t22.5 22.5h72h70l-6 1380q-80 0 -144 6q-23 2 -21 24.5zM244 1409l2 -682q31 0 125 -3q70 -2 113 -2h25q44 1 116.5 9t127 29.5t101.5 58.5q53 39 83 107.5t32 146.5q0 78 -27 144 q-29 68 -84 104q-139 94 -385 94q-43 0 -126 -3t-103 -3zM248 682l2 -655q205 0 360 26q152 25 262 103q70 49 91 143q6 33 6 65q0 62 -23 121q-34 97 -104 157q-62 52 -139 53q-10 0 -21 -1h-2q-51 -10 -112.5 -14t-105.5 -4t-115 3t-99 3z" />
<glyph unicode="c" horiz-adv-x="888" d="M25 621q31 510 340 757q72 56 164 68q25 3 49 3q63 0 118 -24q70 -29 115 -84q0 43 6 80q4 23 26.5 19t18.5 -27q-6 -32 -6 -79q0 -38 4 -87q9 -34 9 -72q0 -13 -1 -26q0 -6 -4 -10v-4q0 -23 -22.5 -23t-22.5 23q0 29 -4 106q-31 100 -135 141q-49 22 -106 22 q-20 0 -40 -3q-80 -10 -141 -60q-295 -233 -323 -725q-2 -30 -2 -58q0 -99 22 -185q27 -113 81 -185.5t121 -115.5q66 -44 140 -56q27 -5 54 -4q46 0 88 14q68 22 125 71.5t90.5 140t33.5 208.5q0 23 22.5 23t22.5 -23q0 -127 -37.5 -226t-100 -156.5t-141.5 -81.5 q-52 -16 -107 -15q-28 0 -56 4q-178 29 -298 201q-105 151 -105 382q0 33 2 67z" />
<glyph unicode="d" horiz-adv-x="1036" d="M-1 15.5q-6 21.5 17 27.5q29 7 83 7q45 0 106 -5l-6 1364q-57 0 -168 -6q-23 -2 -25 20.5t21 24.5q142 7 248 7q89 0 153 -5q264 -20 379 -119q113 -96 166 -273q45 -149 45 -316q0 -31 -2 -63q-10 -202 -81 -373t-194 -253q-86 -59 -254 -61q-49 0 -135 6q-57 2 -76 2 q-6 -2 -12 -2q-25 0 -55 2h-2h-2q-59 4 -101 4q-53 0 -79 -6q-20 -4 -26 17.5zM244 1411l6 -1364q29 0 104 -4q86 -6 133 -6q154 2 230 53q111 76 177 236q67 160 77 354q2 32 2 64q0 158 -42 298q-50 168 -153 256q-104 88 -354 107q-82 6 -180 6z" />
<glyph unicode="e" horiz-adv-x="872" d="M0 -2.5q0 22.5 23 22.5h65q12 78 12 169.5t-6 206t-6 173.5q0 53 8 451v2v8q3 104 3 191q0 117 -5 206q-37 0 -69 -4q-23 -2 -25 20.5t20 24.5q104 8 262 8q66 0 142 -1q369 -12 405 -13q23 0 23 -22q0 -8 -6 -15q0 -16 3 -61t3 -64.5t-4 -66.5q-4 -23 -26.5 -18.5 t-18.5 26.5q4 43 4 58.5t-3 56.5t-3 61q-18 0 -379 13q-86 2 -157 2t-126 -2q5 -101 5 -237q0 -68 -1 -144q109 8 406 8q-3 49 -3 89.5t3 72.5q2 23 24.5 20.5t20.5 -25.5q-3 -24 -3 -61q0 -49 5 -119t5 -122q0 -39 -3 -66q-2 -23 -24.5 -21t-20.5 25q3 30 3 70t-3 92 q-303 0 -412 -8q-8 -365 -8 -435q0 -55 6 -178t6 -187.5t-12 -183.5q90 0 314.5 2.5t347.5 2.5q0 18 1 49.5t1 44.5q1 24 1 45q0 42 -3 72q-2 23 20.5 24.5t24.5 -20.5q3 -33 3 -76q0 -21 -1 -45q0 -14 -1 -38t-1 -44v-35v-2q0 -23 -23 -23q-4 0 -10 3q-127 0 -360.5 -2.5 t-329.5 -2.5q-6 -2 -15 -2q-2 0 -6 2h-73q-23 0 -23 22.5z" />
<glyph unicode="f" horiz-adv-x="872" d="M-25 -6.5q0 22.5 23 22.5h90q12 78 12 170.5t-6 208t-6 174.5q0 53 8 451v2v8q3 104 3 191q0 117 -5 206q-37 0 -69 -4q-23 -2 -25 20.5t20 24.5q104 8 262 8q66 0 142 -1q369 -12 405 -13q23 0 23 -22q0 -8 -6 -15q0 -16 3 -61t3 -64.5t-4 -66.5q-4 -23 -26.5 -18.5 t-18.5 26.5q4 43 4 58.5t-3 56.5t-3 61q-18 0 -379 13q-86 2 -157 2t-126 -2q5 -101 5 -237q0 -68 -1 -144q109 8 406 8q-3 49 -3 89.5t3 72.5q2 23 24.5 20.5t20.5 -25.5q-3 -24 -3 -61q0 -49 5 -119t5 -122q0 -38 -3 -66q-2 -23 -24.5 -21t-20.5 25q3 30 3 70t-3 92 q-303 0 -412 -8q-8 -365 -8 -435q0 -55 6 -169.5t6 -209t-12 -174.5h146q23 0 22.5 -22.5t-22.5 -22.5h-281q-23 0 -23 22.5z" />
<glyph unicode="g" horiz-adv-x="1136" d="M25 621q31 510 340 757q72 55 164 68q25 3 49 3q64 0 118 -24q70 -29 115 -84q0 43 6 80q4 23 26.5 19t18.5 -27q-6 -32 -6 -79q0 -39 4 -87q9 -34 9 -72q0 -13 -1 -26q0 -6 -4 -10v-4q0 -23 -22.5 -23t-22.5 23q0 29 -4 106q-31 100 -135 141q-49 22 -106 22 q-19 0 -40 -3q-79 -10 -141 -60q-295 -233 -323 -725q-2 -30 -2 -58q0 -99 22 -185q27 -113 81 -185.5t120.5 -115.5t140.5 -56q28 -4 55 -4q45 0 87 12q67 21 123.5 71t91 140.5t34.5 206.5l-4 9q-2 6 -2 12q-53 25 -88 35q-22 7 -46 7q-41 0 -85 -20q-72 -31 -84 -86 q-6 -23 -27.5 -17t-17.5 26q18 80 111 120q53 23 103 23q29 0 58 -8q39 -12 101 -41q53 -27 78 -33q15 -4 30 -4q62 0 127 67q16 16 32.5 0t0.5 -32q-81 -79 -161 -79q-21 0 -42 5q-16 4 -35 12q16 -63 17 -200q0 -49 -3 -133.5t-3 -104.5q0 -23 -22.5 -23t-22.5 23 q0 20 3 104t3 134v18q-47 -156 -164 -230q-92 -59 -197 -59q-28 0 -57 4q-178 29 -298 201q-105 151 -105 382q0 33 2 67z" />
<glyph unicode="h" horiz-adv-x="866" d="M-23 1447.5q0 22.5 23 22.5q29 0 98 -6q44 -4 76 -4h19q23 2 24.5 -20.5t-20.5 -24.5q-12 -1 -26 -1q-27 0 -60 3l2 -391l579 2l4 397q-47 0 -84 -4q-23 -2 -24.5 20.5t20.5 24.5q33 4 68 4t81 -1t66 -1q23 0 23 -22.5t-23 -22.5q-18 0 -82 2l-12 -1390q39 -3 64 -3 q13 0 22 1q23 2 25 -20.5t-21 -24.5h-17q-30 0 -91 4h-30q-43 0 -71 -4q-23 -4 -26.5 18.5t18.5 26.5q26 5 59 5q11 0 23 -1l8 946l-579 -2l4 -946q76 -6 98.5 -6t22.5 -22.5t-23 -22.5q-20 0 -111 6q-32 3 -57 3t-45 -3q-20 -2 -23.5 19.5t19.5 25.5q21 3 47 3q13 0 27 -1 l-6 1384q-39 4 -66 4q-23 0 -23 22.5z" />
<glyph unicode="i" horiz-adv-x="317" d="M-6.5 1433.5q0.5 22.5 22.5 22.5h117h2h58h59q23 0 22.5 -22.5t-22.5 -22.5h-98q-16 -221 -16 -529q0 -77 1 -159q2 -33 8.5 -297t6.5 -401q14 0 56 -2.5t64.5 -2.5t22.5 -22.5t-23 -22.5l-81 3q-34 2 -62 1q-17 -1 -32 -1q-40 -2 -76 -7q-23 -4 -27 18.5t18 26.5 q41 6 95 9q0 137 -6.5 401t-8.5 295q-1 92 -1 176q0 297 16 514h-93q-23 0 -22.5 22.5z" />
<glyph unicode="j" horiz-adv-x="854" d="M-26 435q14 81 69 147q63 78 139 92q18 3 35 3q53 0 92 -34q53 -45 63 -119q3 -15 3 -30q0 -61 -35 -129q-12 -20 -31.5 -9t-9.5 29q30 62 30 111q0 11 -1 22q-9 57 -47 90q-25 18 -55 24q-7 1 -14 1q-26 0 -57 -15q-40 -20 -79 -65q-62 -85 -62 -177v-16q6 -102 74 -194 t167 -135q58 -25 117 -25q41 0 83 12q72 25 127 75t75 118q34 107 34 286q0 102 -11 226q-3 28 -3 62q0 46 5 102q8 123 8 157q0 63 -2 190.5t-2 192.5q-59 -4 -102 -16q-23 -4 -28 17.5t15 27.5q78 18 240 19q23 0 23 -22.5t-23 -22.5h-80q0 -66 2 -194t2 -192 q0 -37 -8 -161q-5 -55 -5 -98q0 -32 3 -58q11 -128 11 -233q0 -183 -34 -295q-25 -80 -89 -138.5t-146 -83.5q-51 -17 -101 -17q-64 0 -128 28q-113 49 -187 151q-47 66 -69 141q-13 45 -13 93q0 31 5 62z" />
<glyph unicode="k" horiz-adv-x="1050" d="M-1.5 -28.5q-10.5 20.5 9.5 30.5q43 20 123 21l12 1400q-47 0 -80 -10q-20 -8 -27.5 13.5t15.5 27.5q31 12 69 14q19 1 42.5 1t52.5 -1q57 -2 66 -2q23 0 22.5 -22.5t-22.5 -22.5q-18 0 -53 1t-40 1l-8 -999l561 983q-57 0 -92 -10q-23 -4 -28 17.5t16 27.5q31 6 65 9 q21 2 50 2q20 0 42 -1q56 -2 62 -2q23 0 23 -22.5t-23 -22.5q-16 0 -63 2l-363 -633l455 -741q6 0 53 -3t69.5 -3t22.5 -22.5t-22 -22.5q-29 0 -78 3t-58 3l-8 -6l-4 6h-22q-43 0 -76 -6q-23 -4 -27 18.5t19 26.5q35 6 77 6l-425 696l-218 -381l-8 4l-4 -329q14 -2 45 -5 q43 -2 64 -2q23 0 22.5 -22.5t-22.5 -22.5q-20 0 -66 2q-49 4 -72 4h-16q-70 0 -102 -16q-20 -10 -30.5 10.5z" />
<glyph unicode="l" horiz-adv-x="868" d="M-16.5 1421.5q0.5 22.5 22.5 22.5q37 0 113 4q78 6 117 6q23 0 22.5 -22.5t-22.5 -22.5q-35 0 -84 -4l10 -1391q105 -1 166 -1h49q57 1 223 12l203 10q-12 225 -12 227q-2 23 20.5 25t24.5 -21q4 -47 8 -136t4 -105q0 -18 -14 -23q-6 -12 -21 -12q-43 -2 -181 -9.5 t-226 -11.5q-50 -2 -108 -2q-44 0 -94 1q-114 3 -192 16q-23 4 -18.5 26.5t26.5 18.5q47 -8 97 -13l-11 1387q-63 -4 -100 -4q-23 0 -22.5 22.5z" />
<glyph unicode="m" horiz-adv-x="1142" d="M-23.5 -3.5q-3.5 21.5 19.5 26.5q43 6 119 6l6 1398h-103q-23 0 -23 23t23 23h218q23 0 22.5 -23t-22.5 -23h-64l389 -813l379 820q-88 -6 -135 -7q-23 0 -23 23t23 23q45 0 137 6q92 8 139 8q23 0 23 -22.5t-23 -22.5q-39 0 -96 -4v-2l4 -2l-4 -9l4 -1396q68 2 107 8 q23 4 26.5 -18.5t-18.5 -26.5q-45 -6 -131 -8q-86 0 -125 -7q-23 -4 -27 18.5t19 27.5q41 6 104 6l-4 1300l-346 -751q51 -2 63 -3q23 0 23 -22.5t-23 -22.5q-14 0 -43.5 1t-40.5 1v-2l-4 2l-12 3q-57 0 -90 -15q-20 -8 -28.5 12.5t12.5 28.5q33 14 77 17l-362 757l-6 -1306 q72 0 116 8q23 4 27 -18.5t-18 -26.5q-51 -8 -146 -8q-96 0 -139 -7q-20 -2 -23.5 19.5z" />
<glyph unicode="n" horiz-adv-x="1003" d="M-2.5 20.5q0.5 22.5 22.5 22.5h48h36q0 94 3.5 279.5t3.5 333t-7 280.5q0 10 -6 100t-8 150q-3 59 -3 104q0 22 1 41q2 49 8 78q-31 -2 -57 -4q-23 -2 -25 20.5t21 24.5q45 4 112 4q12 0 50.5 -1t58.5 -1q23 0 23 -22.5t-23 -22.5q-14 0 -84 2l74 -180l86 -205l74 -168 l88 -194q16 -37 67 -127q45 -78 68 -132q98 -240 176 -350q0 86 2 270.5t2 326t-4 272.5q0 18 -6 106q-6 78 -8 143q-3 75 -3 124v22q2 57 11 86q-61 0 -99 -10q-23 -6 -28.5 16.5t16.5 28.5q33 8 74 10q20 1 46 1q24 0 54 -1q60 -2 70 -2q23 0 22.5 -22.5t-22.5 -22.5 q-12 0 -84 2q-2 -2 -2 -4q-10 -20 -12 -84q-1 -19 -1 -41q0 -44 3 -100q2 -55 8 -143.5t6 -108.5q4 -131 4 -278.5t-2 -332t-2 -278.5q31 2 108 6q23 2 25 -20.5t-20 -24.5q-98 -4 -138 -8q-10 -6 -20 -2q-35 -4 -68 -13q-20 -4 -25 17.5t17 27.5l41 9q-82 115 -182 362 q-20 47 -66 125q-53 94 -69 129q-84 178 -316 735q-2 -20 -4 -47q-1 -18 -1 -40q0 -44 3 -101q2 -59 8.5 -149.5t6.5 -102.5q6 -131 6 -279.5t-3 -334t-3 -279.5q39 0 69 2q23 2 25 -20.5t-21 -24.5q-31 -2 -203 -2q-23 0 -22.5 22.5z" />
<glyph unicode="o" horiz-adv-x="894" d="M20 569q-6 80 -6 159q0 100 10 198q18 176 62 280q45 109 150.5 189t220.5 90h4q7 1 13 1q71 0 159 -59q59 -39 127 -127q72 -90 90 -155q25 -115 25 -256q1 -78 -7 -165q-22 -243 -82 -415q-51 -154 -88 -213q-76 -129 -190 -137q-30 -5 -72 -5q-26 0 -56 2 q-79 5 -128 38q-102 68 -158 223q-57 156 -74 352zM66 573q16 -193 69 -338t141 -204q45 -30 155 -30q34 0 73 3q92 6 155 115q35 55 86 207q55 164 77 402q8 86 8 162q0 136 -25 243q-14 57 -80 141q-63 80 -117 117q-73 49 -127 49h-4h-6q-104 -4 -202.5 -77t-141.5 -173 q-41 -98 -59 -269q-9 -92 -9 -186q0 -80 7 -162z" />
<glyph unicode="p" horiz-adv-x="831" d="M30 1413.5q-4 22.5 19 26.5q111 19 211 19q137 0 252 -36q264 -82 289 -329q0 -10 4 -44t6 -52.5t1 -47t-5 -51.5q-23 -102 -88.5 -179t-156.5 -121t-182 -67.5t-187 -31.5l6 -477h39h45q23 0 22.5 -23t-22.5 -23q-170 0 -203 -4q-23 -2 -25 20.5t21 24.5q33 4 78 5 l-21 1382q-39 -4 -76 -10q-23 -4 -27 18.5zM178 1409l12 -864q96 8 182.5 31.5t170.5 64.5t142 109.5t77 156.5q4 20 5 45t-1 42.5t-5 49t-5 46.5q-20 219 -256 290q-105 32 -240 32q-40 0 -82 -3z" />
<glyph unicode="q" horiz-adv-x="999" d="M-8 -307q6 31 41 59l10 10l29 33l39 53q33 47 43 62q41 53 73 78q-74 37 -127 116q-23 33 -40 72t-27 88l-15 82q-6 33 -10 96l-4 82q0 23 1 90.5t1 75.5q0 18 -1 74q-1 27 -1 48.5t1 35.5q1 29 2 76t6 87t12 76q45 231 219 332q4 2 22.5 12.5t23.5 13.5t19.5 10t22.5 10 t20.5 7.5t24.5 6.5l29 4h4q8 1 15 1q34 0 70 -14q44 -18 62 -32l61 -47q174 -143 181 -519v-38q0 -274 -80 -525q-49 -152 -82 -213q-72 -131 -182 -139q-29 -2 -56 -2q-67 0 -118 14q-39 -18 -91 -86l-40 -57q83 40 160 40q10 0 20 -1q82 -4 178 -64q16 -10 45 -30l49 -33 q20 -12 39 -21q32 -14 62 -14q33 0 63 16q139 72 164 148q5 15 5 28q0 34 -34 58q-30 21 -59 21l-39 -9q-55 -25 -55 -112q0 -23 -23 -23t-23 23q0 117 82 153q30 13 59 13q42 0 83 -29q54 -39 54 -94q0 -21 -7 -43q-31 -92 -187 -175q-40 -20 -82 -20q-40 0 -81 18 q-20 10 -44 24.5t-52.5 34t-43.5 27.5q-86 53 -157 58h-15q-94 0 -205 -70q-27 -16 -32 -20l-25 -35q-2 -2 -5 -7t-5 -7q-4 -6 -8 -9.5t-6 -5.5q-14 -6 -27 4q-6 6 -6 17v6zM50 780q1 -86 1 -90v-76v-90q0 -18 2 -80.5t8.5 -91t15.5 -76t24.5 -82t35.5 -65.5 q55 -80 129 -109q57 -20 133 -20q25 0 52 2q86 6 147 117q33 57 80 203q76 246 76 520v28q-6 358 -164 484q-39 33 -55.5 45t-48 26.5t-60.5 12.5h-6q-12 0 -23.5 -2t-19.5 -3t-19 -6l-14 -6q-6 -2 -18.5 -8t-18.5 -8l-20 -12q-14 -10 -23 -15q-154 -88 -194 -299 q-8 -45 -13.5 -103t-6.5 -84v-41v-71z" />
<glyph unicode="r" horiz-adv-x="892" d="M30 1413.5q-4 22.5 19 26.5q111 19 211 19q137 0 252 -36q264 -82 289 -329q0 -10 4 -44t6 -52.5t1 -47t-5 -51.5q-43 -197 -254 -303l215 -565q37 2 82 2q23 0 22.5 -22.5t-22.5 -22.5q-125 0 -223 -15q-23 -2 -26 19.5t17 25.5q51 6 103 11l-209 546q-139 -59 -319 -75 l6 -477h39h45q23 0 22.5 -23t-22.5 -23q-170 0 -203 -4q-23 -2 -25 20.5t21 24.5q33 4 78 5l-21 1382q-39 -4 -76 -10q-23 -4 -27 18.5zM178 1409l12 -864q96 8 182.5 31.5t170.5 64.5t142 109.5t77 156.5q4 20 5 45t-1 42.5t-5 49t-5 46.5q-20 219 -256 290 q-105 32 -240 32q-40 0 -82 -3z" />
<glyph unicode="s" horiz-adv-x="860" d="M-47 422q2 49 6 76.5t22.5 65.5t51.5 67q63 49 165 63q34 5 65 6q63 0 118 -20q96 -29 131 -98q16 -32 16 -69q0 -54 -34 -116q-12 -20 -32 -9t-9 30q29 53 29 95q0 26 -11 48q-27 51 -104 76q-49 17 -105 17q-28 0 -58 -4q-89 -12 -143 -56q-39 -29 -50 -68t-13 -104 v-15q0 -111 56 -194q60 -88 161 -135q96 -47 215 -47t219 49q61 29 98 93.5t46 137.5q3 30 3 59q0 44 -8 82q-12 62 -45 160q-23 61 -56.5 102.5t-81.5 65t-91 35.5q-41 12 -106 23q-160 27 -211 45q-113 41 -154 137q-14 31 -14 127q0 129 66.5 218t174.5 121q55 16 114 17 q57 0 118 -16q133 -35 205 -135q0 51 6 90q4 23 26.5 19t18.5 -27q-6 -28 -6 -70q0 -34 4 -76q2 -14 4 -43q6 -10 2 -20q6 -59 6 -95q0 -23 -22.5 -22.5t-22.5 22.5q0 35 -6 97q-10 14 -17 35q-8 27 -12 34q-27 53 -81 92t-118 54q-58 15 -110 15q-103 0 -183 -56 q-122 -84 -122 -254q0 -86 10 -111q35 -78 129 -110q45 -16 201 -43q68 -10 112.5 -23.5t100 -40t95.5 -75t62 -115.5q18 -53 26 -80t20 -76q10 -42 10 -70v-10l-2 -86q-10 -84 -53.5 -158.5t-114.5 -109.5q-111 -53 -240 -53t-235 51q-113 53 -179 151q-63 93 -63 216v18z " />
<glyph unicode="t" horiz-adv-x="972" d="M2 1415q-2 23 18 27h9h2q150 0 439.5 2t424.5 2q6 6 14 6q10 0 19 -6h2q23 0 22 -23q0 -16 -16 -22q0 -12 2 -35t4 -31q4 -59 4 -98q0 -23 -22.5 -23t-22.5 23q0 37 -4 94q-2 8 -4 33t-2 37q-133 0 -365 -2l-8 -1376q16 0 55 -1.5t52 -1.5q23 0 22.5 -22.5t-22.5 -22.5 q-14 0 -59.5 1t-71.5 1h-33q-62 0 -84 -6q-23 -4 -28 17.5t16 27.5q29 6 108 7l8 1376q-287 -2 -430 -2q9 -63 10 -107q0 -32 -6 -53q-6 -23 -28.5 -16.5t-16.5 28.5q4 13 4 38q0 45 -12 128z" />
<glyph unicode="u" horiz-adv-x="1011" d="M-41.5 1417.5q-4.5 22.5 18.5 26.5q33 6 72 6t85 -3t67 -3q23 0 22.5 -22.5t-22.5 -22.5q-27 0 -78 4q0 -29 -7 -264.5t-7 -388.5q0 -256 12 -381q6 -84 18 -138q14 -55 31 -75l18 -25q12 -16 21 -25l16 -20q10 -12 21 -18q57 -48 140 -66q50 -11 100 -10q32 0 65 4 q84 12 148.5 57t91.5 117q35 96 48 222q12 117 12 193v12q-1 79 -11.5 246t-12.5 216q-1 8 -1 23q0 45 5 153v28q0 83 -10 140q-47 -2 -94 -6q-23 -2 -25 20.5t21 24.5q92 8 246 8q23 0 22.5 -22.5t-22.5 -22.5h-103q11 -65 11 -156v-16q-5 -123 -5 -163v-11 q2 -55 10.5 -171t11.5 -192q2 -45 2 -99q0 -35 -1 -77q-2 -102 -17.5 -193t-46.5 -173q-31 -86 -104.5 -137.5t-169.5 -65.5q-33 -4 -67 -4q-57 1 -115 13q-92 20 -158 71q-14 12 -27.5 27.5t-34 42t-22.5 26.5q-23 29 -37 94q-12 57 -20 144q-12 127 -13 385q0 154 7.5 389 t7.5 266h-21q-40 0 -71 -6q-23 -4 -27.5 18.5z" />
<glyph unicode="v" horiz-adv-x="1067" d="M-162 1449.5q6 22.5 29 16.5q38 -12 105 -12h20q56 1 90.5 1t46.5 -1q23 -2 20.5 -24.5t-24.5 -20.5q-31 2 -82 2l408 -1317l419 1315h-22q-43 0 -78 6q-23 4 -18.5 26.5t26.5 18.5q30 -5 73 -5q21 0 46 1q113 8 127 8q23 0 23 -22.5t-23 -22.5q-27 0 -106 -6l-439 -1378 q90 -2 109 -2q23 0 22.5 -22.5t-22.5 -22.5q-2 0 -121 2l-29 -8l-2 8q-70 0 -119 -4q-23 -2 -24.5 20.5t20.5 24.5q47 4 109 4l-426 1374h-2h-21q-72 0 -118 12q-23 6 -17 28.5z" />
<glyph unicode="w" horiz-adv-x="1564" d="M-152.5 1412.5q-5.5 21.5 17.5 27.5q82 18 248 18q23 0 22.5 -22.5t-22.5 -22.5h-39h-39l502 -1376l12 -2l199 684l-256 700q-35 -2 -64 -6q-23 -4 -27 18.5t19 26.5q39 6 198 6q23 0 23 -22.5t-23 -22.5h-40h-39l229 -626l182 622q-61 -2 -94 -2q-23 0 -22.5 22.5 t22.5 22.5q33 0 98.5 2t98.5 2q23 0 22.5 -22.5t-22.5 -22.5h-56l-202 -696l231 -633l395 1354q-16 1 -31 1q-36 0 -59 -7q-23 -6 -29 16.5t17 28.5q24 6 59 6q21 0 45 -2q10 0 28.5 -2t23.5 -2q29 -2 47 -2q23 0 22.5 -22.5t-22.5 -22.5q-20 0 -52 2l-4 2l-413 -1418 q61 -6 88 -6q23 0 22.5 -22.5t-23 -22.5t-116.5 11q-35 3 -61.5 3t-44.5 -3q-23 -4 -27 18t18 27q22 4 51 4q19 0 41 -2l-227 620l-180 -612q35 -2 61 -2q23 0 23 -22.5t-23 -22.5q-39 0 -116.5 3t-116.5 3q-23 0 -23 22.5t23 22.5q29 0 67 -2l-503 1374q-61 -4 -113 -16 q-20 -4 -25.5 17.5z" />
<glyph unicode="x" horiz-adv-x="983" d="M-16 1407.5q-10 20.5 10 30.5q39 18 102 18h13q14 -2 55 -6q33 -2 51 -2q23 0 23 -22.5t-23 -22.5q-20 0 -55 4h-2l317 -655l334 667q-53 -4 -88 -4q-23 0 -23 22.5t23 22.5q35 0 108 4q74 6 111 6q23 0 23 -22.5t-23 -22.5q-33 0 -78 -2l-360 -723l334 -686h100 q23 0 22.5 -22.5t-22.5 -22.5h-256q-23 0 -23 22.5t23 22.5h104l-309 635l-317 -635h69q23 0 23 -22.5t-23 -22.5q-45 0 -92 -2l-4 -8l-16 8q-35 -2 -74 -4q-23 -2 -25 20.5t21 24.5q37 2 69 4l345 688l-347 711h-12q-48 0 -78 -14q-20 -10 -30 10.5z" />
<glyph unicode="y" horiz-adv-x="739" d="M-95.5 1446.5q4.5 21.5 27.5 17.5q25 -6 66 -6h22q10 2 31 3t37 2t31 1q23 0 22.5 -22.5t-22.5 -22.5q-20 0 -58 -2q53 -59 127 -180q86 -141 113 -178q43 53 127 182q82 127 125 178h-90q-23 0 -23 22.5t23 22.5h233q23 0 23 -22.5t-23 -22.5h-86q-57 -66 -145 -202 q-90 -137 -135 -197l2 -1002q51 0 90 9q23 4 27 -18.5t-19 -26.5q-37 -6 -78 -8h-38q-27 0 -58 1q-55 2 -74 2q-23 0 -22.5 23t22.5 23q10 0 105 -3l-2 986q-31 39 -135 208q-82 133 -146 197v2h-19q-37 0 -65 6q-20 6 -15.5 27.5z" />
<glyph unicode="z" horiz-adv-x="997" d="M-6 -12l8 12v27h16l902 1376l-861 -6q-2 -14 -2 -32q0 -27 4 -62q8 -111 9 -125q0 -23 -22.5 -23t-22.5 23q0 12 -9 120q-4 36 -4 65q0 36 6 60q2 6 7 13v6l944 6v-33l8 -6l-905 -1382l770 -4q-2 20 -2 184q0 23 22.5 22.5t22.5 -22.5q0 -17 -1 -63v-42v-34q1 -30 5 -56 q2 -12 -6 -20v-15l-840 5l-12 -19l-29 19z" />
<glyph unicode="{" horiz-adv-x="653" d="M-104 496q-4 23 18 26q162 29 242 103q68 63 90 170q14 68 20 223q4 168 19 254l2 22q4 25 9 41.5t13 30.5q39 63 129 90q94 29 158 -16q37 -25 39 -66q0 -33 -23 -65q-20 -31 -52 -51.5t-62 -20.5q-23 0 -23 22.5t23 22.5q16 0 38.5 14.5t38.5 36.5q14 23 15 39 q-2 18 -19 31q-47 33 -120 10q-74 -20 -105 -72q-4 -8 -7 -19t-5 -29.5t-4 -28.5q-14 -82 -19 -246q-6 -160 -20 -234q-27 -121 -105 -192q-70 -63 -182 -96q106 -25 166 -111q53 -78 76 -235q4 -31 16 -130q8 -78 17 -122q27 -133 88 -191q51 -49 125 -49q43 0 59 31 q14 29 2 70.5t-43 60t-68 -3.5q-20 -12 -31 7.5t7 29.5q61 37 114 6q45 -27 63.5 -86.5t-5.5 -104.5q-27 -55 -98 -55q-92 0 -158 61q-70 68 -98 213q-10 47 -19 129q-12 102 -16 127q-20 145 -68 215q-61 90 -192 103q-16 2 -21 16q-20 -2 -24 19z" />
<glyph unicode="|" horiz-adv-x="215" d="M145 1507h45l7 -1890h-45z" />
<glyph unicode="}" horiz-adv-x="708" d="M-6 1321q25 72 78 98q66 31 133 -26q10 -8 19 -18.5t14.5 -19.5t10.5 -23.5t8 -20.5t7 -22.5t6 -20.5q20 -74 35 -240q14 -168 27 -229q27 -113 90 -168q78 -66 227 -66h4h13q23 0 22.5 -22.5t-22.5 -22.5q-115 0 -224 -90q-78 -68 -98 -154q-18 -84 -8 -210 q12 -162 10 -201q-4 -113 -61 -176q-82 -96 -176 -88q-70 6 -99 63q-23 47 -10 109q12 57 47 94q43 43 94 20q20 -10 10 -30.5t-30.5 -10t-42.5 -12.5q-25 -25 -35 -72q-8 -45 8 -77q16 -35 62 -39q72 -6 139 71q45 53 49 150q2 37 -10 194q-10 131 11.5 228.5t111.5 173.5 q53 47 108 72q-78 18 -129 63q-76 63 -104 190q-14 66 -29 236q-14 160 -35 231q0 4 -5 20.5t-6 22t-6 17.5t-8 17t-9.5 12.5t-14.5 15.5q-45 37 -84 18q-37 -18 -55 -71q-16 -53 2 -99q23 -47 82 -55q20 -4 17 -25.5t-25 -19.5q-84 12 -115 84q-27 59 -4 129z" />
<glyph unicode="~" horiz-adv-x="1193" d="M19.5 458q5.5 79 56.5 140q84 104 215 104q23 0 45 -4t39.5 -8t40 -16t36 -18.5t37.5 -24.5l33 -25q8 -6 35 -28.5t31 -27.5t31.5 -31.5t29.5 -26.5q94 -90 165 -128t153 -12q45 12 86 65.5t61 125.5q23 70 12.5 129t-49.5 86q-39 25 -93 22.5t-103 -28.5 q-49 -29 -69.5 -71t-4.5 -89q4 -12 24 -21q25 -12 56 -14t51 6q16 6 18 15q6 23 29 16.5t16 -29.5q-10 -31 -49 -45q-31 -10 -69 -8q-39 4 -70 18q-37 16 -47 45q-25 68 4 124.5t90 91.5q57 31 122 33.5t120 -29.5q57 -37 69.5 -116t-14.5 -151q-23 -78 -71 -140t-107 -81 q-37 -10 -72 -11t-66.5 10t-59 23.5t-59.5 37t-52.5 43t-51.5 49.5q-6 4 -18 16q-63 61 -99 92t-95.5 60.5t-114.5 29.5q-109 0 -182 -88q-41 -49 -44.5 -113.5t25.5 -111.5q29 -49 77 -67.5t116 8.5q47 20 36 67q-10 43 -57 35q-23 -4 -27 18.5t19 26.5q43 8 71.5 -13.5 t37 -56t-8 -68.5t-55.5 -50q-84 -33 -147.5 -9.5t-100.5 87.5q-37 57 -31.5 136z" />
<glyph unicode="&#xad;" d="M53 522v45l473 4v-45z" />
<glyph unicode="&#x2000;" horiz-adv-x="825" />
<glyph unicode="&#x2001;" horiz-adv-x="1651" />
<glyph unicode="&#x2002;" horiz-adv-x="825" />
<glyph unicode="&#x2003;" horiz-adv-x="1651" />
<glyph unicode="&#x2004;" horiz-adv-x="550" />
<glyph unicode="&#x2005;" horiz-adv-x="412" />
<glyph unicode="&#x2006;" horiz-adv-x="275" />
<glyph unicode="&#x2007;" horiz-adv-x="275" />
<glyph unicode="&#x2008;" horiz-adv-x="206" />
<glyph unicode="&#x2009;" horiz-adv-x="330" />
<glyph unicode="&#x200a;" horiz-adv-x="91" />
<glyph unicode="&#x2010;" d="M53 522v45l473 4v-45z" />
<glyph unicode="&#x2011;" d="M53 522v45l473 4v-45z" />
<glyph unicode="&#x2012;" d="M53 522v45l473 4v-45z" />
<glyph unicode="&#x2013;" horiz-adv-x="1097" d="M53 522v45l1024 4v-45z" />
<glyph unicode="&#x2014;" horiz-adv-x="2121" d="M53 522v45l2048 4v-45z" />
<glyph unicode="&#x2018;" horiz-adv-x="229" d="M59 1444l45 8l107 -461l-45 -8z" />
<glyph unicode="&#x2019;" horiz-adv-x="286" d="M141 1018l82 448l45 -8l-82 -448z" />
<glyph unicode="&#x201c;" horiz-adv-x="335" d="M66 1440l45 4l49 -424l-45 -4zM223 1446l45 4l49 -424l-45 -4z" />
<glyph unicode="&#x201d;" horiz-adv-x="391" d="M82 1026l68 416l45 -8l-68 -416zM260 1034l68 416l45 -8l-68 -416z" />
<glyph unicode="&#x202f;" horiz-adv-x="330" />
<glyph unicode="&#x205f;" horiz-adv-x="412" />
<glyph unicode="&#x25fc;" horiz-adv-x="1474" d="M0 0v1475h1475v-1475h-1475z" />
</font>
</defs>
</svg>
