<?xml version="1.0" standalone="no"?>
<!DOCTYPE svg PUBLIC "-//W3C//DTD SVG 1.1//EN" "http://www.w3.org/Graphics/SVG/1.1/DTD/svg11.dtd" >
<svg xmlns="http://www.w3.org/2000/svg" xmlns:xlink="http://www.w3.org/1999/xlink" version="1.1">
<metadata></metadata>
<defs>
<font id="alwaysheretoomedium" horiz-adv-x="731" >
<font-face units-per-em="2048" ascent="1638" descent="-410" />
<missing-glyph horiz-adv-x="614" />
<glyph horiz-adv-x="0" />
<glyph unicode="&#xd;" horiz-adv-x="681" />
<glyph unicode=" "  horiz-adv-x="614" />
<glyph unicode="&#x09;" horiz-adv-x="614" />
<glyph unicode="&#xa0;" horiz-adv-x="614" />
<glyph unicode="!" horiz-adv-x="483" d="M6 137.5q0 57.5 40 97t97.5 39.5t97.5 -39.5t40 -97t-40 -97.5t-97.5 -40t-97.5 40t-40 97.5zM104 358l5 1084h90l-4 -1084h-91z" />
<glyph unicode="&#x22;" horiz-adv-x="563" d="M94 1016v420h90v-420h-90zM264 1434h90l4 -418h-90z" />
<glyph unicode="#" horiz-adv-x="1253" d="M88 608v90l258 2l29 273l-283 -2v90l293 2l39 383l90 -8l-39 -373h207l39 373l90 -8l-37 -365l275 2v-90l-285 -2l-27 -273l305 3v-91l-315 -2l-63 -620l-91 8l62 610h-205l-63 -610l-91 8l62 600h-250zM438 700l207 2l29 273l-207 -2z" />
<glyph unicode="$" horiz-adv-x="1075" d="M-73 463.5q1 23.5 14.5 67.5t42.5 79q61 70 163.5 100.5t196.5 10.5q109 -23 158 -103q55 -90 14 -223q-4 -18 -21.5 -27.5t-35 -4t-26.5 22.5t-3 34q27 96 -6 151q-29 45 -98 62q-72 14 -151 -9.5t-122 -74.5q-25 -27 -30 -59.5t-5 -98.5q2 -100 61.5 -178t158.5 -119 q94 -43 203.5 -41t197.5 47q82 43 117 133.5t20 202.5q-14 111 -68.5 204t-127.5 132q-63 35 -205 57q-162 27 -234 60q-127 61 -135 227q-10 203 103 305q55 47 137 72l-4 156l90 4l4 -144q35 2 74 2h12v121h90l2 -131q78 -16 135 -59q23 -16 41 -37v31q-2 20 11.5 33.5 t33 14.5t32.5 -12.5t13 -31.5q2 -23 6.5 -136.5t4.5 -173.5q0 -18 -13.5 -31.5t-32 -13.5t-32 13.5t-13.5 31.5q0 39 -2 87q-2 4 -6 14q-20 37 -29.5 56.5t-28 43t-38.5 37.5q-72 53 -186 53q-164 0 -240 -69q-82 -72 -74 -232q4 -57 22.5 -93t63.5 -56q57 -27 207 -51 q156 -25 232 -66q98 -53 163 -166q66 -109 82 -239q18 -137 -26 -252q-45 -119 -160 -179q-78 -41 -170 -51l2 -280h-90l-4 276q-45 0 -88 8l-4 -268h-90l4 293q-20 6 -39 14q-119 51 -195 149.5t-78 231.5q-2 49 -1 72.5z" />
<glyph unicode="%" horiz-adv-x="1271" d="M113 1274q18 76 74.5 134t136.5 71q2 0 2 2q16 18 41 14q31 -4 110.5 -18.5t132 -19.5t101.5 -3q45 2 125 16q102 18 131 23q18 2 33.5 -9t17.5 -30q2 -14 -4 -27l2 -2l-797 -1443l-82 45l752 1362l-37 -9q-84 -14 -137 -16q-55 -4 -125 4q31 -68 23.5 -132.5 t-46.5 -119.5q-45 -66 -118.5 -101.5t-153.5 -21.5q-113 20 -162 107q-43 78 -20 174zM201 1251q-14 -61 12 -106q29 -49 98 -62q49 -8 98.5 15.5t81 68.5t32.5 94.5t-34 96.5q-16 18 -55 28q-14 4 -33 7q-12 -6 -24 -4q-63 6 -111.5 -34t-64.5 -104zM565 299 q18 76 74.5 134.5t136.5 70.5q16 16 41 12q6 -2 21.5 -4t19.5 -2q31 -4 51 -10q70 -18 103 -60q57 -78 55 -154.5t-47 -144.5q-45 -66 -119 -101.5t-153 -21.5q-113 20 -162 107q-43 78 -21 174zM653 276q-14 -61 13 -106q29 -49 98 -61q49 -8 98 15t81 68.5t33 94.5t-34 96 q-16 18 -55 29q-14 4 -33 6q-13 -6 -25 -4q-63 6 -111 -34t-65 -104z" />
<glyph unicode="&#x26;" horiz-adv-x="1835" d="M-14 240q-10 137 31.5 247.5t123.5 217.5q37 47 109 129l-10 20q-2 4 -60 109q-43 78 -63 133q-72 180 6 293q57 84 146 105.5t163 -19.5q78 -39 123 -120t31 -184q-2 -20 -7.5 -38.5t-14.5 -36t-15 -27.5t-19 -29l-16 -24q-51 -80 -152 -193l-2 -4q160 -291 381 -477 q6 14 13 31q14 35 22 108q12 88 25 127q27 88 76 168t122.5 145.5t164.5 89t204 1.5q131 -35 200.5 -143.5t61.5 -235.5q-8 -129 -95 -222.5t-239 -97.5q-104 -4 -171.5 70t-75.5 166q-10 100 51 158q70 68 194 34q18 -6 27.5 -22.5t4.5 -34.5t-21.5 -27.5t-34.5 -5.5 q-74 20 -109 -10q-29 -27 -22 -84q6 -63 49 -109.5t104 -44.5q115 4 178.5 72t69.5 164t-46 177t-151 106q-154 41 -278.5 -64.5t-177.5 -277.5q-8 -31 -19 -111q-12 -84 -28 -129q-10 -29 -25 -55q152 -111 315 -154q47 -14 101.5 -18t131.5 -5.5t114 -3.5q18 0 31.5 -14 t12.5 -32.5t-15.5 -32t-32.5 -11.5q-27 0 -108 1t-143.5 6.5t-115.5 19.5q-174 49 -336 164q-98 -150 -249.5 -224.5t-315.5 -23.5q-96 29 -154.5 107.5t-64.5 175.5zM76 248q6 -72 48 -128.5t105 -76.5q131 -39 258 24.5t209 192.5q-231 188 -399 488q-51 -57 -84 -99 q-74 -98 -109.5 -192.5t-27.5 -208.5zM197 1335q-49 -72 4 -207q20 -49 59 -122q53 -97 55 -99q78 90 121 158q6 10 18.5 27.5t16.5 24.5t10 19.5t9.5 22.5t5.5 25q8 72 -22 127t-81 82q-47 25 -102 11.5t-94 -69.5z" />
<glyph unicode="'" horiz-adv-x="434" d="M123 997l16 443l90 -4l-16 -443z" />
<glyph unicode="(" horiz-adv-x="651" d="M193 59q-201 602 6 1223q25 72 39 110t50 92t85 91q14 12 33.5 10t31 -16.5t9 -34t-16.5 -29.5q-55 -45 -84 -98q-29 -51 -61 -154q-197 -594 -6 -1165q18 -53 45.5 -151.5t53 -171t58.5 -138.5q8 -16 2 -34.5t-22.5 -26.5t-35 -2t-26.5 22q-35 68 -62.5 148t-56 180 t-42.5 145z" />
<glyph unicode=")" horiz-adv-x="638" d="M61.5 1524.5q-2.5 19.5 8 35t30 17.5t33.5 -8q37 -27 65.5 -57.5t50 -70.5t33 -65.5t31 -77t27.5 -69.5q100 -248 95 -548t-80.5 -587t-200.5 -518q-10 -16 -29 -21.5t-35 4t-21.5 28t3.5 34.5q123 223 195.5 498.5t76.5 559.5t-90 517q-8 23 -27.5 72t-29 70.5t-27.5 55 t-39.5 57.5t-50.5 44q-16 10 -18.5 29.5z" />
<glyph unicode="*" horiz-adv-x="870" d="M25 1290l45 78l221 -127v193h90l2 -193l197 135l53 -73l-205 -142l238 -139l-45 -78l-238 137v-254h-90l-2 240l-174 -119l-54 74l193 133z" />
<glyph unicode="+" horiz-adv-x="1253" d="M72 465v90h444l-2 483h90l2 -483h443v-90h-443l2 -465h-90l-2 465h-444z" />
<glyph unicode="," horiz-adv-x="538" d="M88 -285l160 475l86 -28l-160 -475z" />
<glyph unicode="-" d="M53 500v90l473 4v-90z" />
<glyph unicode="." horiz-adv-x="483" d="M6 137.5q0 57.5 40 97t97.5 39.5t97.5 -39.5t40 -97t-40 -97.5t-97.5 -40t-97.5 40t-40 97.5z" />
<glyph unicode="/" horiz-adv-x="749" d="M-25 -78l484 1534l86 -29l-484 -1533z" />
<glyph unicode="0" horiz-adv-x="1091" d="M-4 477q-6 260 72 397q51 92 165.5 147.5t225.5 59.5h4h4h4q6 0 14 -2q98 -10 164 -45t135 -110q6 -6 17 -15l22 -20q33 -29 47 -62l4 -16v-12q2 -12 5 -35q0 -10 1 -23.5t2 -21.5t1 -10q23 -211 -35 -406q-74 -248 -250 -332q-47 -23 -133 -24q-27 0 -119 6 q-66 4 -133 43q-70 37 -111 88q-98 119 -106 393zM86 479q6 -240 86 -338q31 -37 83 -65.5t95 -32.5q84 -4 115 -4q66 0 96 14q139 66 201 275q51 176 31 372q0 2 -1 10.5t-2.5 21.5t-3.5 24q-2 23 -2 32v5q-2 2 -5 6t-7 11t-8 11q-2 0 -23 19q-14 12 -22 22 q-61 66 -114.5 92.5t-141.5 36.5q-92 -4 -185.5 -49t-132.5 -113q-66 -117 -59 -350z" />
<glyph unicode="1" horiz-adv-x="608" d="M-16 -17.5q-2 19.5 9 34t30 16.5q57 6 139 8l-6 836q-41 -47 -84 -82q-14 -12 -33 -10.5t-31 16t-10 33t16 30.5q63 51 156 187q10 14 28.5 18t34.5 -8q14 -10 18.5 -27.5t-5.5 -32.5l6 -958q61 0 104 2q18 2 32.5 -10t16 -31.5t-11 -34t-33.5 -14.5q-41 -4 -165 -4 q-96 -2 -160 -8q-20 -2 -34.5 9t-16.5 30.5z" />
<glyph unicode="2" horiz-adv-x="1087" d="M2 768q12 104 102.5 179t208.5 104q76 14 150 14t143.5 -32t110.5 -93q160 -244 -137 -575q-135 -152 -344 -297l555 -5q2 47 -3 107q-2 18 10.5 32.5t31 16.5t33 -10t16.5 -31q8 -90 0 -162q-2 -18 -15 -30v-13l-770 4q-16 -10 -34.5 -5t-27.5 21.5t-4 35t21 26.5l2 2 v11h19q266 162 442 358q250 279 127 465q-37 57 -122 75.5t-183 -5.5q-98 -23 -166 -79.5t-76 -125.5q-8 -72 35 -115q41 -43 84 -33q39 8 65 45q10 16 13 29q-12 0 -39 -10q-18 -6 -35.5 2t-24 25.5t2 35t24.5 23.5q115 41 154 -27q33 -57 -21 -131q-47 -66 -121 -82 q-90 -18 -168 57q-35 37 -50 89.5t-9 103.5z" />
<glyph unicode="3" horiz-adv-x="1167" d="M33 -231q-12 72 11.5 136t71.5 103t107.5 56.5t124 -2t113.5 -74.5q31 -35 39 -81t-13 -87q-25 -45 -73.5 -55.5t-104.5 16.5q-18 8 -24 25.5t2 35t25.5 23.5t33.5 -2q49 -20 60 0q16 31 -15 63q-37 41 -88 49.5t-94 -12t-69.5 -70t-16.5 -108.5q12 -78 78 -129 q68 -51 172 -74q102 -23 198 -12q98 12 158 49q76 45 114 138t27.5 193.5t-65.5 168.5q-33 39 -121 67q-63 20 -154 35q-18 2 -28 17.5t-8 35t18 29.5q10 14 25 19q164 41 233 102q86 74 55 238q-14 74 -50 134t-79 89q-59 39 -152 49t-188 -12q-96 -25 -155.5 -79.5 t-67.5 -131.5q-6 -66 25.5 -109t85.5 -57q51 -14 94 3t59 56q12 31 -4 45q-18 14 -45 -2q-16 -10 -34.5 -6t-29 20.5t-6 35t20.5 28.5q37 23 78 21.5t72 -25.5q33 -25 42 -65t-8 -85q-33 -80 -109.5 -108.5t-154.5 -5.5q-82 23 -134 92t-42 170q10 115 92 187.5t199 103.5 q104 27 219 14.5t192 -61.5q61 -41 106.5 -119t61.5 -166q23 -80 2.5 -173t-84.5 -151q-53 -45 -131 -78l13 -4q113 -37 161 -96q72 -86 86.5 -213t-34.5 -244.5t-148 -177.5q-80 -47 -196 -61q-119 -12 -230 12q-123 27 -212 96.5t-107 180.5z" />
<glyph unicode="4" horiz-adv-x="1202" d="M-4 27.5q2 19.5 16 29.5q197 160 287 277q10 14 33.5 44t35 45t27 39.5t25.5 43.5q68 150 76 270q6 74 -15 117q-23 45 -80 57q-41 10 -81.5 -18.5t-57.5 -73.5q-12 -37 2 -57q23 -29 94 -25q18 2 33 -11t16 -31.5t-12.5 -33t-32.5 -14.5q-119 -6 -169 57q-45 59 -17 144 q25 72 94.5 122t151.5 31q98 -23 139 -106q33 -66 27 -164q-10 -137 -86 -301q-10 -25 -28.5 -53.5t-32 -47t-38.5 -49.5l-30 -38q-80 -104 -213 -220l493 2l-4 953h90l4 -950h154v67q0 18 13.5 31.5t32 13.5t31.5 -13.5t13 -31.5q0 -35 2 -72.5t5 -84t3 -72.5 q2 -18 -11 -32.5t-31.5 -15.5t-33 12t-14.5 32q-2 27 -4 75l-160 -2l2 -319l99 8q18 2 32.5 -10t16.5 -30.5t-10.5 -33t-30.5 -16.5q-207 -16 -268 -16q-18 0 -31.5 13t-13.5 31.5t13 32t32 13.5q33 0 71 2l-2 325l-612 -4v8q-23 0 -35 17q-12 14 -10 33.5z" />
<glyph unicode="5" horiz-adv-x="1224" d="M14 -387q-39 106 4 199.5t129 134.5q92 45 168 2q84 -47 95 -178q2 -18 -10.5 -32.5t-31 -17t-32.5 10t-17 30.5q-8 84 -49 107q-35 18 -84 -4q-55 -27 -83.5 -88.5t-2.5 -130.5q39 -104 154 -142q117 -35 258 2q143 35 252.5 121t132.5 193q33 156 -40 263t-212 153 q-131 45 -279.5 11t-236.5 -136q-12 -14 -30.5 -15.5t-33 11t-16.5 31t10 32.5l62 852l45 -4v43h764q10 6 20 8q20 2 34.5 -9.5t16.5 -29.5q18 -162 19 -258q0 -18 -13.5 -31.5t-32 -13.5t-31.5 13.5t-13 31.5q0 84 -12 199h-709l-53 -715q111 74 253 90t263 -24 q170 -53 263 -190.5t52 -332.5q-29 -137 -160 -240.5t-295 -142.5q-78 -18 -155.5 -18t-149 19.5t-128 69.5t-85.5 126z" />
<glyph unicode="6" horiz-adv-x="1249" d="M59 494q0 31 2 61q0 80 21 223q43 295 226.5 479.5t477.5 200.5q18 2 33 -11t16 -31.5t-12.5 -33t-31.5 -14.5q-217 -12 -366.5 -129.5t-215.5 -316.5q113 127 276 139h9q8 2 14 2h61h78q29 0 71 -7t75 -20q78 -31 134 -94t82.5 -143t35 -171t-10.5 -177 q-16 -92 -54 -174t-98.5 -150t-148.5 -111q-90 -41 -194 -45q-231 -10 -365 158q-115 145 -115 365zM154 553q0 -61 14 -119q4 -23 -10 -39q20 -125 88 -209q102 -131 289 -125q168 8 274 122t135 284q31 164 -20.5 302t-163.5 181q-35 14 -78 18.5t-84 3.5t-90 1h-4 q-6 -2 -10 -2q-141 -10 -233.5 -130t-106.5 -288z" />
<glyph unicode="7" horiz-adv-x="1124" d="M27 977q-2 18 8 33.5t31 17.5v10l829 11v-45l25 -13l-261 -545q70 -12 134 11q18 6 35.5 -2.5t23.5 -25.5t-2 -34.5t-25 -23.5q-94 -33 -204 -11l-369 -774l-82 41l350 738q-4 0 -8 -3q-47 -16 -111 -77q-12 -12 -31.5 -12.5t-31.5 13t-12 33t14 31.5q76 74 141 99 q41 14 86 12l236 495l-680 -8q2 -25 4 -55q4 -74 6 -94q2 -18 -10 -32.5t-30.5 -16.5t-33 10t-16.5 31q-2 20 -8 96q-2 55 -8 90z" />
<glyph unicode="8" horiz-adv-x="1122" d="M16 498q29 111 103 207q72 96 174 147q-76 33 -119 92q-72 98 -43 230q27 123 129 209.5t244 76.5q16 0 26 -10q135 -35 204 -134t61 -214q-6 -76 -46 -140.5t-108 -101.5q145 -59 217 -194.5t60 -286.5q-8 -90 -46 -170t-102.5 -140.5t-164 -88t-216.5 -9.5 q-238 35 -336 197q-86 143 -37 330zM104 475q-39 -150 27 -260q76 -125 270 -154q188 -29 299 70q113 98 126.5 256t-78 281t-267.5 137q-4 0 -10 2q-127 -6 -229.5 -101.5t-137.5 -230.5zM219 1155q-18 -92 29 -156q53 -76 184 -88q123 -10 193.5 48.5t76.5 148.5 q8 92 -52 168t-181 94q-94 -4 -162.5 -66.5t-87.5 -148.5z" />
<glyph unicode="9" horiz-adv-x="1257" d="M59 494q0 135 46.5 256.5t145.5 211t234 99.5h9q8 2 14 2h61h78q29 0 71 -7t75 -20q115 -45 178 -150.5t76 -240.5q6 -10 6 -24q-12 -440 -154 -678q-188 -317 -608 -328q-20 -2 -33.5 11.5t-14.5 32.5t12 32.5t32 13.5q373 10 534 283q39 66 66 147q-139 -156 -348 -164 q-231 -10 -365 158q-115 145 -115 365zM150 494q0 -188 96 -308q102 -131 289 -125q164 6 272 121t141 283q31 164 -20 302t-168 183q-35 14 -78 18.5t-84 3.5t-90 1h-4q-6 -2 -10 -2q-156 -12 -249 -151.5t-95 -325.5z" />
<glyph unicode=":" horiz-adv-x="602" d="M121 921.5q0 57.5 40 97.5t97 40t97 -40t40 -97.5t-40 -97.5t-97 -40t-97 40t-40 97.5zM125 108.5q0 57.5 40 97.5t97 40t97 -40t40 -97.5t-40 -97.5t-97 -40t-97 40t-40 97.5z" />
<glyph unicode=";" horiz-adv-x="614" d="M123 -301l96 489l90 -16l-96 -489zM137 950.5q0 57.5 40 97t97.5 39.5t97.5 -39.5t40 -97t-40 -97.5t-97.5 -40t-97.5 40t-40 97.5z" />
<glyph unicode="&#x3c;" horiz-adv-x="1331" d="M-25 451l17 43l-17 36l1117 461l36 -86l-1005 -413l997 -383l-33 -86z" />
<glyph unicode="=" horiz-adv-x="1253" d="M47 676v90l1002 -6v-90zM53 256v90l996 -2v-90z" />
<glyph unicode="&#x3e;" horiz-adv-x="1331" d="M-23 909l33 86l1116 -436l-20 -55l8 -19l-18 -6l-2 -6l-7 2l-1054 -436l-37 86l969 399z" />
<glyph unicode="?" horiz-adv-x="1353" d="M2 1024q-14 195 35 283q59 106 181 161.5t269 59.5q137 6 270.5 -31t217.5 -108q70 -57 121 -158q90 -176 34 -332q-25 -66 -61.5 -113t-86.5 -74.5t-93 -41.5q-39 -14 -98 -25q-156 -29 -170 -33q-74 -23 -101 -67q-31 -51 11 -98.5t100 -22.5q8 2 14 6l19 16 q10 8 22 17q16 12 34.5 8t30 -19.5t7.5 -34t-19 -28.5q-2 -2 -15 -13t-28.5 -21.5t-27.5 -16.5q-55 -23 -112.5 -8.5t-91.5 54.5t-46 95.5t24 110.5q45 76 152 108q16 6 180 37q106 20 172 60q66 41 98 137q41 117 -30 258q-41 82 -96 129q-70 57 -187 90t-242 29 q-129 -6 -229 -50.5t-145 -125.5q-35 -63 -23 -230q6 -72 54.5 -120t109.5 -59t125.5 16.5t97.5 95.5q23 55 19 82.5t-21 39.5q-10 8 -26.5 9.5t-43 -9t-55.5 -36.5q-12 -14 -31.5 -13.5t-33 14t-12 33t15.5 31.5q59 55 123.5 68.5t115.5 -23.5q49 -37 57.5 -102.5 t-26.5 -134.5q-47 -94 -139 -135t-181 -26t-160 85t-79 176zM416 94.5q0 57.5 40 97t97 39.5t97 -39.5t40 -97t-40 -97.5t-97 -40t-97 40t-40 97.5z" />
<glyph unicode="@" horiz-adv-x="1433" d="M100 803q6 150 58 278q51 131 157.5 232.5t257.5 140.5q78 18 163 21.5t178.5 -19t156.5 -76.5q72 -57 113 -166.5t45 -232.5q6 -125 -28 -235.5t-107 -172.5q-78 -70 -192 -59.5t-173 98.5q-25 -51 -63 -75q-49 -33 -113 -19q-94 25 -125 137q-27 92 -2 199 q25 111 88 166q86 74 188 14q14 -6 21 -20q10 -2 25 -10q16 -9 24 -29q0 -4 -2 -12l4 8q0 -4 2 -10q2 -14 4 -35q2 -29 2 -88v-88q0 -37 2 -45q25 -76 106 -95.5t146 33.5q51 43 79 134t24 199.5t-38 200t-87 134.5q-74 57 -198 70.5t-222 -17.5q-186 -47 -289.5 -201.5 t-114.5 -363.5q-8 -205 73 -392.5t231 -283.5q61 -39 127.5 -50.5t175.5 -11.5q18 0 31.5 -13t13.5 -31.5t-13.5 -32t-31.5 -13.5q-76 0 -120 2t-112 19q-68 18 -121 53q-174 113 -264 321.5t-80 436.5zM514 834q-18 -84 2 -152q16 -63 62 -74q23 -6 39 4.5t30 40.5 q27 55 33 140q2 33 0 104v47v6h-2l-2 -6v6q-11 0 -19 6q-47 25 -82 -6q-43 -35 -61 -116zM772 975q0 -2 2 -4z" />
<glyph unicode="A" horiz-adv-x="1566" d="M-61 -229.5q0 18.5 13 32t32 13.5q43 0 94 2l479 1698q-33 -2 -63 -7q-20 -2 -35 9.5t-17 31t9.5 33.5t29.5 16q74 8 254 13q20 2 33.5 -11.5t14.5 -33t-12 -32.5t-32 -13q-12 0 -34.5 -1t-32.5 -1l532 -1686h113q18 0 31.5 -13.5t13.5 -31.5t-13.5 -31.5t-31.5 -13.5 h-301q-18 0 -31.5 13.5t-13.5 31.5t13 31.5t32 13.5h92l-367 1163l-237 -12l-330 -1161l107 6q18 2 32.5 -10.5t15.5 -31.5t-11.5 -33.5t-32.5 -14.5q-221 -14 -301 -14q-18 0 -31.5 13t-13.5 31.5zM528 1079l185 8l-97 302z" />
<glyph unicode="B" horiz-adv-x="1449" d="M-29 1564.5q2 18.5 18 30t34 9.5q96 -8 151 -8h6q56 0 177.5 6t189.5 6q360 0 530 -135q121 -96 157 -256q13 -60 13 -118q1 -97 -37 -193q-60 -152 -198 -230l-33 -17q86 -37 148.5 -113.5t93.5 -172.5q25 -88 24 -177q0 -93 -39 -182q-39 -88 -110 -145 q-162 -127 -523 -162q-166 -16 -548 -16q-18 0 -31.5 13t-13.5 31.5t13 32t32 13.5h69h90l-6 1724q-98 0 -168 8q-18 2 -29.5 17.5t-9.5 34zM268 1507l4 -833q37 0 121 -2t126 -2t115 3t120 11t105.5 26.5t107.5 47.5q109 59 158 183q31 79 31 160q0 46 -10 94 q-28 130 -126 208q-143 113 -473 113q-3 -1 -279 -9zM272 584l2 -801q164 2 289 14q336 35 475 146q80 63 106 178q11 48 10 95q0 66 -21 130q-37 118 -122 188q-78 65 -184 64h-18q-8 -2 -16 2q-61 -12 -137 -17t-122.5 -5t-140.5 2t-121 4z" />
<glyph unicode="C" horiz-adv-x="1267" d="M-16 524q4 119 23.5 232.5t55 236.5t101 231.5t153.5 184.5q143 121 261 152q54 14 107 14t103 -14q101 -27 173 -99q0 27 4 54q2 18 16 30.5t32.5 10t31 -17t10.5 -32.5q-7 -67 -7 -139q0 -29 1 -59q14 -52 14 -112v-15q0 -10 -6 -21q0 -16 -12.5 -28.5t-28.5 -14.5 q-18 -2 -32.5 10.5t-16.5 30.5q-6 70 -9 133q-37 106 -137 158q-62 32 -134 32q-43 0 -89 -12q-94 -23 -219 -131q-150 -127 -221.5 -349t-83.5 -470q-2 -40 -1 -77q0 -381 167 -523q82 -68 215 -102q6 -2 39.5 -11.5t43 -12.5t36 -8t40 -6t33 0t35.5 5q127 37 213 209 q78 156 78 315q0 18 13 31.5t31.5 13.5t32 -13t13.5 -32q0 -180 -86 -354q-102 -209 -270 -256q-23 -8 -50.5 -9t-48 0t-51.5 7l-45 8q-14 4 -45 13.5t-37 9.5q-152 41 -248 122q-200 167 -200 584q0 44 2 90z" />
<glyph unicode="D" horiz-adv-x="1505" d="M-27 -254q-2 18 9.5 33.5t29.5 17.5q46 6 122 6q46 0 102 -2l-9 1710q-37 -2 -102.5 -5t-93.5 -3q-18 -2 -32.5 11.5t-15.5 32t12 32.5t32 14q12 2 115.5 6.5t147.5 5.5t126 1q80 -2 145 -9q334 -31 506 -192q205 -193 231 -578q4 -56 3 -113q0 -251 -72 -503 q0 -4 -15 -55l-20 -70q-6 -20 -22.5 -58t-34.5 -65q-68 -100 -189 -182q-117 -80 -336 -82q-63 0 -176 6q-76 4 -92 4q-8 -2 -16 -2q-39 0 -106.5 3t-99.5 3t-97 -6q-18 -2 -34 9.5t-18 29.5zM317 1513l9 -1712q33 -2 116 -6q89 -5 139 -5q17 0 29 1q193 2 285 64 q109 74 168 161q12 20 25.5 50t17.5 49l20 63q12 47 17 58q67 233 67 468q0 59 -4 117q-25 350 -200 518q-150 139 -453 168q-82 6 -184 6h-52z" />
<glyph unicode="E" horiz-adv-x="1249" d="M-51 -243.5q0 18.5 13 31.5t32 13q29 0 59 2q4 66 4 162q-2 201 -2 211q2 121 2 959q0 23 4 96q3 37 3 62q0 13 -1 22q-2 9 -7 67q-4 48 -4 63l3 77h-61q-18 0 -31.5 13t-13.5 31.5t13 32t32 13.5q168 0 502.5 -4t502.5 -4q18 0 31.5 -13.5t13.5 -31.5q0 -14 -8 -27 q2 -14 4 -72.5t2 -78t-4 -78.5q-2 -20 -16 -31.5t-33.5 -9.5t-31 16t-9.5 33q4 33 4 61.5t-3 77.5t-3 63q-147 0 -417.5 3.5t-381.5 3.5q-4 -23 -4 -47.5t1 -42t4.5 -52.5l5.5 -55q2 -18 2 -42.5t-2 -55.5q-6 -70 -7 -90v-50q53 0 152.5 1t179.5 3.5t152 6.5q-2 44 -2 83 q0 58 4 105q0 18 14.5 30.5t33.5 11.5t31.5 -15.5t10.5 -34.5q-3 -40 -3 -96t3 -129q5 -117 6 -182q0 -32 -2 -52q0 -18 -14.5 -31.5t-32.5 -12.5t-31.5 15.5t-11.5 32.5q1 23 1 51q0 56 -3 134q-72 -4 -154 -6.5t-180 -3.5t-154 -3q1 -201 1 -359q0 -316 -3 -458 q0 -10 2 -211q0 -90 -2 -155q55 6 88 6q156 4 235 4t237 -4l233 -6q1 56 1 117.5t-1 129.5q0 18 12.5 31.5t31.5 13.5t32.5 -12t13.5 -33q2 -84 2 -159.5t-2 -141.5q0 -18 -13.5 -31.5t-33.5 -11.5q-10 0 -20 6q-39 -1 -362 7q-156 4 -246 4q-96 0 -115 -4q-25 -2 -117 -9 q-14 -10 -31 -8q-8 0 -16 4q-45 -2 -80 -2q-18 0 -31.5 13.5t-13.5 32z" />
<glyph unicode="F" horiz-adv-x="1290" d="M-45 -256q0 18 13.5 31.5t31.5 13.5h92q3 45 3 105q0 30 -1 63v211q2 119 2 965q0 35 -4 109.5t-4 103.5v42q0 80 6 132h-65q-18 0 -31.5 13t-13.5 31.5t13 32t32 13.5q168 0 505.5 -3t505.5 -3q18 0 31.5 -13.5t13.5 -31.5q0 -12 -6 -23q0 -6 4 -104q1 -26 1 -49 q0 -46 -3 -80q0 -20 -14 -33t-33.5 -11.5t-32 15.5t-10.5 33q1 24 1 54.5t-1 65.5q0 8 -1 39t-1 47q-147 0 -419.5 2.5t-383.5 4.5q-7 -44 -7 -112q0 -27 1 -58q0 -29 3 -106t3 -111v-48q80 4 240 5q164 0 246 4q-2 58 -2 105t2 83q0 18 14 31.5t32.5 12.5t32 -15.5 t11.5 -32.5v-42q0 -70 4 -185q4 -94 4 -160q0 -44 -2 -76q0 -18 -14.5 -31.5t-33 -12.5t-31.5 15.5t-11 32.5q1 24 1 53q0 57 -3 132q-86 -4 -248 -7q-164 0 -242 -2q1 -205 1 -366q0 -321 -3 -461q0 -10 2 -211q0 -24 1 -47q0 -68 -5 -121h168q18 0 31.5 -13.5t13.5 -31.5 t-13 -31.5t-32 -13.5h-350q-18 0 -31.5 13.5t-13.5 31.5z" />
<glyph unicode="G" horiz-adv-x="1583" d="M-16 539q4 123 25.5 242.5t61.5 245.5t111.5 236.5t167.5 186.5q137 106 230 131q60 16 117 16q51 0 98 -13q100 -28 172 -103q0 29 4 57q2 18 16 30.5t32.5 10.5t31 -16.5t10.5 -32.5q-7 -73 -7 -146q0 -30 1 -59q14 -52 14 -109v-14q0 -8 -4 -16q2 -18 -10.5 -31.5 t-28.5 -15.5q-18 -2 -33.5 9t-17.5 30q-8 66 -10 131q-37 111 -139 165q-62 34 -133 34q-43 0 -89 -13q-76 -23 -196 -119q-111 -86 -187 -233.5t-107.5 -296t-39.5 -311.5q-1 -25 -1 -49q0 -153 33 -300q37 -170 136 -252q84 -70 219 -104q10 -4 39.5 -12t42 -11.5t37 -8.5 t40 -6t34 0t34.5 5q129 37 215 213q68 141 74 293l-2 12l-55 23q-47 20 -72 27q-41 13 -73 13q-24 0 -42 -7q-59 -23 -110 -123q-8 -16 -26.5 -22.5t-35 2t-22.5 27t2 34.5q68 131 157 166q37 15 79 15q45 0 97 -17q31 -8 80 -31q57 -23 78 -29q65 -24 116 -24q14 0 28 2 q41 6 59 18q8 6 27 23l43 37q14 10 33.5 8t30.5 -16.5t9 -34t-16 -31.5q-10 -8 -41 -33q-23 -18 -35 -27q-35 -27 -98 -34q-21 -3 -44 -3q-34 0 -71 7q10 -59 14.5 -134t4.5 -128.5t-2.5 -137.5t-2.5 -121q0 -18 -13 -31.5t-31.5 -13.5t-32 13.5t-13.5 31.5q0 41 1 121 t1 117q-6 -16 -14 -33q-102 -211 -272 -258q-27 -8 -57 -10q-7 -1 -15 -1q-23 0 -50 5q-36 6 -52.5 9t-58.5 14.5t-44 11.5q-154 41 -252 125q-66 53 -109.5 139t-63 183.5t-25.5 182.5q-4 51 -4 102q0 33 2 67z" />
<glyph unicode="H" horiz-adv-x="1232" d="M-4 1525.5q-2 18.5 10.5 33t30.5 16.5q68 6 217 14q18 2 32.5 -11t15.5 -31.5t-12.5 -33t-31.5 -14.5q-59 -4 -80 -4v-438l664 4v452q-39 -4 -72 -6q-18 -2 -32.5 10.5t-16.5 31t10 32.5t31 16q68 6 217 15q18 2 32.5 -11.5t15.5 -32t-12.5 -32.5t-31.5 -14l-51 -4v-1680 h49q20 2 33.5 -11t14.5 -32.5t-12 -33t-32 -13.5q-170 -6 -197 -8q-20 -2 -34.5 9t-16.5 30.5t9.5 34t29.5 16.5q29 4 66 6v1135l-664 -4v-1133h72q20 2 33.5 -11t14.5 -32.5t-12.5 -33t-31.5 -13.5q-170 -6 -197 -8q-20 -2 -34.5 9t-16.5 30.5t9.5 34t29.5 16.5l43 4v1659 l-43 -4q-18 -2 -32.5 10t-16.5 30.5z" />
<glyph unicode="I" horiz-adv-x="585" d="M-29 1577q0 18 13.5 31.5t31.5 13.5h140h2h2h147q18 0 31.5 -13.5t13.5 -31.5t-13 -31.5t-32 -13.5h-106q-2 -41 -11 -117q-12 -102 -14 -153q-3 -88 -3 -201q-1 -232 11 -569q16 -500 17 -666q18 -2 65 -2h70q18 0 31.5 -13.5t13.5 -32t-13.5 -31.5t-31.5 -13 q-262 0 -316 -2q-18 -2 -32.5 11t-15.5 31.5t12.5 33t31.5 14.5q43 2 95 2q-1 168 -17 668q-10 330 -11 562q0 119 3 212q2 53 12 159q8 72 11 107h-93q-18 0 -31.5 13.5t-13.5 31.5z" />
<glyph unicode="J" horiz-adv-x="1247" d="M-41 314q16 100 76 184q47 66 119 96q51 22 102 22q21 0 43 -4q78 -12 129 -69.5t55 -149.5q2 -25 -4 -53.5t-12 -43.5t-19.5 -46t-13.5 -33q-8 -18 -25.5 -25.5t-35 0t-24.5 24.5t-1 34q6 12 17.5 38.5t15.5 38t8 29t4 33.5q-4 59 -33.5 93t-74.5 40q-13 2 -27 2 q-34 0 -68 -14q-49 -21 -81 -66q-65 -99 -65 -209v-16q5 -119 72.5 -226.5t175.5 -160.5q73 -36 152 -36q38 0 78 9q96 20 167 81t104 153q36 98 36 293q0 41 -2 86q-1 29 -1 66q0 71 4 174q8 157 8 173q0 49 -11 142q-12 111 -12 149q-1 26 -1 58q0 64 5 153l8 172 q-59 -4 -108 -12q-18 -4 -33.5 7t-19.5 29.5t7 34t29 19.5q84 14 293 23q18 2 32.5 -11.5t15.5 -32t-12 -32.5t-32 -14q-12 -2 -39.5 -3.5t-41.5 -1.5q0 -49 -9 -182q-5 -97 -5 -163q0 -22 1 -40q0 -18 15 -143q8 -80 8 -132v-20q0 -20 -6 -175q-5 -105 -5 -176q0 -33 1 -58 q2 -47 2 -90q0 -212 -41 -326q-41 -113 -129 -188.5t-207 -102.5q-51 -11 -99 -11q-99 0 -189 45q-134 67 -216 194q-51 84 -73 177q-14 54 -14 111q0 41 7 83z" />
<glyph unicode="K" horiz-adv-x="1447" d="M-55 -254q-4 18 6 34.5t29 20.5q55 12 124 17l17 1681q-43 -2 -78 -8q-18 -4 -33.5 7t-19.5 29.5t7.5 34t29.5 19.5q76 12 278 12q18 0 31.5 -13t13.5 -31.5t-13 -32t-32 -13.5h-43h-51l-10 -1136l635 1112q-45 0 -82 -4q-18 -2 -32.5 10t-17 30.5t10 33t30.5 16.5 q49 6 144.5 8t118.5 2q18 2 32.5 -11.5t15.5 -32t-12.5 -32.5t-31.5 -14q-29 -2 -70 -2l-430 -756l549 -895q117 -4 137 -4q18 0 31.5 -13.5t13.5 -32t-13 -31.5t-32 -13l-154 2q-33 1 -61 1q-55 0 -88 -3q-20 -2 -34.5 10t-15.5 31.5t11 34t31 14.5q31 2 67 4l-495 805 l-252 -442l-8 4l-2 -381q10 0 51 -1t61 -1q18 0 31.5 -13.5t13.5 -32t-13 -31.5t-32 -13q-27 0 -80 1t-82.5 1t-70.5 -4.5t-76 -12.5q-18 -4 -34.5 6.5t-20.5 28.5z" />
<glyph unicode="L" horiz-adv-x="1294" d="M-47 -260.5q4 18.5 19.5 30t33.5 7.5q25 -4 51 -6l-10 1728h-35q-18 0 -31.5 13.5t-13.5 32t13.5 31.5t31.5 13q63 0 164 6q18 2 32.5 -10t15.5 -31.5t-11 -34t-33 -14.5q-23 -2 -43 -2l13 -1736q29 0 91 2t97 2q276 0 659 12q-6 221 -12 278q-2 18 9.5 33t30.5 17 t33.5 -9.5t16.5 -31.5q6 -45 8 -96.5t4.5 -119t2.5 -98.5q2 -25 -19 -39q-12 -25 -39 -24q-408 -12 -694 -12q-28 1 -104 -3q-49 -2 -89 -3q-23 0 -45 1q-58 2 -110 11q-18 4 -29.5 19t-7.5 33.5z" />
<glyph unicode="M" horiz-adv-x="1622" d="M-65.5 -280.5q-2.5 18.5 9 34t29.5 17.5q57 8 138 12l-9 1733h-98q-18 0 -31.5 13t-13.5 31.5t13.5 32t31.5 13.5h272q18 0 32 -13.5t14 -32t-13.5 -31.5t-32.5 -13h-61l475 -971l449 975q-82 -4 -140 -4q-18 0 -31.5 13t-13.5 31.5t13.5 32t31.5 13.5q68 0 192 9t157 9 q18 2 32.5 -11.5t15.5 -31.5t-12.5 -32.5t-31.5 -14.5q-41 -2 -105 -6l2 -1747q68 4 119 8q18 2 32.5 -10t16.5 -30.5t-10 -33t-31 -16.5q-47 -6 -102 -9t-121 -5t-102 -4q-18 -2 -32.5 10t-16 31.5t11 34t33.5 14.5l112 6l-2 1562l-403 -876h24h25q18 0 31.5 -13.5 t13.5 -32t-13.5 -31.5t-31.5 -13q-174 0 -250 2q-18 0 -31.5 13t-12.5 32.5t14.5 33t33.5 11.5h72l-434 885l6 -1565q86 2 131 4q18 2 32.5 -10t15.5 -31.5t-11.5 -34t-32.5 -14.5q-29 -2 -178 -6q-113 -4 -172 -12q-18 -2 -33.5 9t-18 29.5z" />
<glyph unicode="N" horiz-adv-x="1454" d="M-41 -251.5q0 18.5 13.5 31.5t31.5 13h88q0 115 1 344.5t1 409.5t-2 344q-2 47 -8 164q-6 104 -8 168q-3 67 -3 122q0 97 9 158h-55q-18 -2 -32.5 11.5t-16 32t12.5 32.5t32 14q59 2 280 2q18 0 31.5 -13t13.5 -31.5t-13 -32t-32 -13.5h-84q23 -53 66 -141 q72 -139 98 -207q158 -399 227 -553q27 -55 92 -176q63 -119 93 -182q12 -23 36 -80l37 -88q14 -29 36 -73t42 -83l41 -72q0 80 -3 304.5t-3 347.5q0 16 6 188q3 77 3 132q0 28 -1 50q-2 45 -8 140.5t-10 165.5q-3 56 -3 125v35q1 89 11 153q-82 -4 -115 -4q-18 -2 -32.5 11 t-15.5 31.5t12.5 33t31.5 14.5q35 2 97.5 5t113.5 4t96 1q18 0 31.5 -13t13.5 -31.5t-13 -32t-32 -13.5q-43 0 -96 -2q-10 -59 -12 -144q-1 -28 0 -55q0 -53 2 -100l10 -168q6 -100 8 -151q2 -25 2 -61q0 -53 -4 -130q-6 -137 -6 -184q0 -127 4 -367.5t4 -355.5q25 2 68 5 t55 3q18 2 32.5 -10.5t15.5 -31.5t-11 -33.5t-33 -14.5q-152 -10 -178 -12q-8 -4 -16 -2q-47 -6 -90 -15q-18 -4 -34 7.5t-20 30t7.5 33.5t29.5 19q14 2 29 6q-27 39 -50.5 82t-47.5 97l-41 82q-14 31 -44 97t-38 87q-29 61 -90 176q-68 123 -95 182q-74 154 -231 557 q-23 59 -92 199l-41 82q-1 -24 -1 -52q0 -56 3 -126q2 -51 9 -169t7 -167q4 -162 4 -342t-2 -410.5t-2 -343.5h76q18 0 31.5 -12t13.5 -31.5t-12 -33t-33 -13.5q-111 -2 -254 -2q-18 0 -31.5 13.5t-13.5 32z" />
<glyph unicode="O" horiz-adv-x="1329" d="M45 262q-29 257 -29 459q0 209 31 360q104 512 528 551q8 2 17 0h4q10 2 20 -4q72 -12 130.5 -37.5t107.5 -69.5t83 -84t81 -108q2 -4 14 -22l21 -25q6 -8 15 -24.5t16.5 -32t11.5 -33.5q30 -106 29 -261q1 -16 1 -33q-4 -177 -23.5 -323.5t-47.5 -285.5 q-47 -213 -94 -322q-86 -205 -234 -264q-63 -25 -159 -25q-58 0 -128 9q-188 25 -295 225q-78 145 -100 350zM135 270q20 -186 90 -315q86 -160 228 -178q62 -8 111 -7q80 0 130 19q111 45 183 213q45 102 88 307q31 135 48 278.5t21 308.5v36q0 141 -28 239 q-2 10 -6.5 19.5t-11.5 22t-11 17.5t-16 23l-17 23q-92 129 -164.5 188.5t-189.5 75.5q-362 -29 -453 -475q-29 -145 -29 -348q0 -197 27 -447z" />
<glyph unicode="P" horiz-adv-x="1189" d="M-33 1541.5q-2 19.5 9.5 33.5t31.5 16q192 21 325 21q55 0 99 -4q272 -20 404 -160q115 -119 135 -309q2 -8 6 -44t6 -53l2 -51q2 -33 0 -55.5t-6 -52t-13.5 -56t-23.5 -51.5q-106 -190 -307 -291.5t-432 -113.5l8 -570h45h45q18 0 31.5 -13t13.5 -31.5t-13.5 -32 t-31.5 -13.5q-186 0 -256 -4q-18 -2 -32.5 10.5t-15.5 32t11 33.5t33 14q37 2 78 4l-25 1708q-31 -4 -78 -8q-18 -2 -32.5 9.5t-16.5 31zM186 1516l15 -1053q211 10 390 101t273 257q8 18 15.5 37t10.5 44.5t5 38.5t-1 47t-3 43t-5 51t-5 48q-18 158 -111 256 q-109 113 -346 132q-46 4 -98 4q-65 0 -140 -6z" />
<glyph unicode="Q" horiz-adv-x="1353" d="M-77 866v24q0 60 4 99q5 47 15.5 117t30 121t47 107.5t68.5 104.5t94 87q119 90 244 100q8 2 14 0h6q12 0 21 -4q96 -14 137 -35q82 -47 180.5 -174t120.5 -219q26 -108 26 -294v-39q-3 -214 -38 -433q-39 -240 -107 -410q-80 -201 -190 -272q-49 -31 -143 -35 q-37 0 -129 6q-25 2 -48 7q-41 -38 -92 -99q41 10 78 17q41 2 68 3h5q26 0 59 -9q36 -11 59.5 -20t54.5 -26.5t50.5 -30t46 -30.5t40.5 -27q84 -51 143 -51q82 2 181 84q49 43 73 90q16 29 16 54q0 17 -7 32q-6 10 -23 17q-24 6 -44 6q-40 0 -66 -23q-43 -37 -52 -112 q-2 -18 -16 -29.5t-33.5 -9.5t-31 16t-9.5 35q12 109 82 168q53 47 122 47q35 0 73 -12q55 -16 80 -62q18 -34 18 -71q0 -48 -29 -99q-33 -63 -96 -117q-123 -104 -238 -104q-86 0 -190 64l-47 30l-45 29l-43 24q-27 16 -43.5 22.5t-45 16t-48 7t-52.5 -2.5 q-59 -10 -123.5 -36.5t-101.5 -59.5l-6 -20q-20 -51 -66 -51q-31 0 -45 22q-12 23 -2 47q4 14 23 37l78 88l45 57l55 68q27 31 51 57q-80 47 -137 142q-76 125 -102 311q-12 84 -13 215q1 84 1 136t-1 71q-4 80 -4 115q-2 39 -3 116zM14 870q-1 -35 -1 -68q0 -84 7 -163 q2 -41 3 -211q0 -127 10 -203q25 -166 90 -276q61 -98 147 -129q9 0 15 -4q23 -6 47 -9q63 -5 98 -5q12 0 21 1q68 2 96 21q86 55 155 229q61 156 101 391q35 213 37 416v28q0 188 -25 286q-16 72 -102 184t-154 147q-20 12 -123 29q-100 -6 -200 -82q-86 -66 -137.5 -161 t-66 -198.5t-18.5 -222.5z" />
<glyph unicode="R" horiz-adv-x="1267" d="M-38 1528.5q-1 19.5 11.5 34t30.5 14.5q10 2 90 7t100 6t94 3q37 1 63.5 1t43.5 -1l97 -10q63 -6 103 -18.5t90 -33t93 -46.5q86 -57 134.5 -154.5t60.5 -204.5q0 -4 5 -44t5 -54l4 -49q2 -31 0 -56.5t-6 -50.5q-18 -92 -113 -206q-90 -111 -206 -179l264 -694h45h47 q18 0 31.5 -13t13.5 -31.5t-13.5 -32t-31.5 -13.5q-195 0 -279 -18q-18 -4 -34.5 6t-20.5 28.5t6 35t29 20.5q51 10 110 16l-249 653q-154 -70 -379 -90l8 -573h47h41q18 0 31.5 -13.5t13.5 -32t-13.5 -31.5t-31.5 -13q-186 0 -252 -6q-18 -2 -32.5 10t-16.5 30.5t10 33 t31 16.5q37 4 80 6l-25 1712l-80 -6q-20 -2 -34.5 10t-15.5 31.5zM184 1499l15 -1055q199 20 344 83t256 196q80 96 92 166q4 20 5 39.5t0 48.5t-2 41t-6 52t-5 44q-10 92 -49 172t-105 121q-103 68 -237 85q-84 11 -185 11q-59 0 -123 -4z" />
<glyph unicode="S" horiz-adv-x="1257" d="M-76 260q2 57 6 92q6 39 30 89.5t67 84.5q79 68 207 88q47 8 91 8q75 0 140 -22q123 -39 168 -131q24 -48 24 -102q0 -67 -36 -146q-8 -18 -25.5 -24.5t-35 2t-24 26t2.5 33.5q28 60 28 108q0 34 -14 62q-31 57 -117 84q-55 18 -116 18q-36 0 -72 -6q-102 -16 -164 -67 q-39 -33 -52.5 -79t-17.5 -122q0 -12 -1 -23q0 -132 65 -229q68 -104 188 -158q115 -51 256 -51q141 2 269 55q94 40 137 146q35 86 35 194q0 25 -2 52q-8 135 -61.5 252.5t-129.5 171.5q-86 59 -246 90q-18 2 -65 10l-76 12q-29 6 -69 16.5t-74 22.5q-213 76 -226 268 q-2 33 -2 63q0 215 111 325q120 118 375 118h4q176 0 289 -82q37 -27 67 -65v69q0 18 13.5 32t32 14t31.5 -14t13 -32q0 -63 6.5 -190t6.5 -190q0 -18 -13.5 -32t-32 -14t-32 13.5t-13.5 32.5q0 49 -4 112l-16 33q-12 25 -16.5 34t-15.5 27.5t-18 28.5t-17.5 23.5 t-20.5 23.5l-25 21q-89 65 -231 65h-4q-219 0 -314 -94q-86 -82 -86 -260q0 -25 2 -53q6 -74 47.5 -118t120.5 -73q29 -10 66 -19.5t62.5 -14.5t71.5 -12t69 -11q180 -35 282 -107q96 -68 157.5 -205t72.5 -286q2 -25 2 -50q1 -131 -45 -242q-54 -132 -183 -187 q-143 -63 -304 -65h-8q-156 0 -288 58q-143 66 -227 193q-77 114 -77 274q0 15 1 31z" />
<glyph unicode="T" horiz-adv-x="1415" d="M-45 1563q-2 20 11.5 33.5t31.5 13.5h6h2q193 0 564.5 3t547.5 3q8 6 19 6q14 2 26 -6h2q18 0 31.5 -13.5t13.5 -31.5q0 -25 -20 -39q2 -25 6 -94l6 -105q2 -20 -10 -34.5t-31.5 -15.5t-34 11.5t-14.5 30.5q-4 39 -8 107.5t-6 93.5q-164 0 -439 -4l-10 -1749h119 q20 2 33.5 -11.5t14.5 -33t-12 -32.5t-32 -13q-37 -2 -166 -2q-36 1 -64 1q-71 0 -98 -4q-18 -2 -32.5 10.5t-15.5 32t11.5 34t32.5 14.5q49 4 119 4l10 1749q-342 -2 -522 -2q2 -12 3 -34t3 -32q2 -36 2 -66t-2 -53q0 -20 -14 -32.5t-33.5 -11.5t-32 15.5t-10.5 32.5 q1 14 1 31q0 34 -3 78q-6 100 -6 115z" />
<glyph unicode="U" horiz-adv-x="1478" d="M-45 1546.5q-2 18.5 9.5 33.5t29.5 17q72 9 142 9t140 -9q18 -2 29.5 -17t9.5 -33.5t-17 -30t-34 -9.5q-39 4 -71 6q-1 -72 -9 -395q-5 -189 -4 -327q0 -98 2 -170v-13q0 -29 -6 -80q-4 -35 -4 -59v-14q2 -18 4 -31q4 -4 8 -12q2 -4 2 -13q4 -12 7 -57q3 -30 3 -86v-30 v-17q0 -67 7 -111q8 -49 30 -94q47 -90 144.5 -147.5t214.5 -69.5q23 -2 45 -2q92 0 173 33q101 41 159 131q47 74 80 311q25 174 25 289q0 26 -1 49q-2 49 -18 160q-16 113 -17 172q-1 44 -1 74v26q1 34 2 101t1 102v46q0 134 -10 230q-70 -4 -102 -4q-18 -2 -32.5 11.5 t-15.5 32t12 32.5t32 14q35 2 96 5.5t112.5 4.5t96.5 1q18 0 31.5 -13.5t13.5 -32t-13.5 -31.5t-31.5 -13q-47 0 -107 -3q8 -96 8 -228v-54q0 -33 -1 -99.5t-1 -99.5v-102q2 -53 17 -158q16 -119 18 -170q2 -28 1 -61q0 -121 -23 -295q-37 -254 -94 -346q-74 -115 -199 -166 q-98 -40 -205 -40q-29 0 -59 3q-137 12 -255 81.5t-177 184.5q-27 53 -37.5 116.5t-11.5 150.5t-1 104q-2 18 -2 31q-2 2 -4 6q-4 4 -6 12q-4 14 -8 63q-1 12 -1 26q0 29 5 69q6 55 6 75q-3 80 -3 193q0 131 4 307q7 326 9 400q-49 -2 -96 -9q-18 -2 -33.5 9.5t-17.5 30z " />
<glyph unicode="V" horiz-adv-x="1570" d="M-197 1562.5q2 18.5 18 30t34 9.5q61 -8 161 -11q133 -4 166 -6q20 0 32.5 -14.5t11.5 -33.5t-15 -31.5t-33 -10.5q-35 2 -78 2l492 -1593l512 1595q-51 0 -103 4q-20 0 -32.5 14.5t-11.5 34t15.5 31.5t33.5 10q58 -4 118 -4q95 0 193 10q18 2 32.5 -10t16.5 -30.5 t-10.5 -33t-30.5 -16.5q-63 -6 -125 -8l-549 -1714q98 -2 116.5 -2t32 -13.5t13.5 -32t-13.5 -31.5t-31.5 -13q-289 0 -344 -4q-20 -2 -34.5 10t-15.5 31.5t11 34t31 14.5q53 4 116 6l-528 1714q-96 2 -162 10q-18 2 -29.5 17.5t-9.5 34z" />
<glyph unicode="W" horiz-adv-x="2174" d="M-203 1524.5q-2 19.5 8.5 35t28.5 17.5q137 22 299 22h14q18 0 32 -13t14 -31.5t-13.5 -32t-32.5 -13.5q-39 0 -73 -2l614 -1685l242 829l-316 862q-39 -2 -71 -4q-18 -2 -32.5 10.5t-16.5 31t10 32.5t31 16q82 8 249 9q18 0 31.5 -13.5t13.5 -32t-13 -31.5t-32 -13h-73 l262 -719l209 712q-57 -2 -97 -2q-18 0 -31.5 13.5t-13.5 32t13.5 31.5t31.5 13q41 0 124 3.5t124 3.5q18 0 31.5 -13.5t13.5 -32t-13 -31.5t-32 -13q-25 0 -55 -3l-252 -860l272 -743l476 1632q-51 0 -91 -4q-18 -2 -33.5 9.5t-17.5 29.5t9.5 33.5t29.5 17.5q6 5 48 5 q31 0 83 -3l123 -4q18 0 31.5 -13.5t13.5 -31.5t-13 -31.5t-32 -13.5h-57l-512 -1753q53 -2 90 -4q20 0 32.5 -14.5t11.5 -34t-15.5 -31.5t-32.5 -10q-43 2 -139.5 6t-149.5 8q-18 0 -30.5 14.5t-11.5 34t15.5 31.5t34.5 10q37 -2 84 -4l-262 717l-205 -703h53q18 0 32 -13 t14 -31.5t-13.5 -32t-32.5 -13.5q-193 0 -296 6q-20 0 -33 14.5t-11.5 34t15.5 32t33 10.5q29 -2 57 -3l-616 1696q-66 -6 -130 -16q-20 -2 -35.5 8t-17.5 29.5z" />
<glyph unicode="X" horiz-adv-x="1419" d="M-32 1517.5q-5 18.5 4.5 35t27.5 20.5q61 18 139 18t131 -6q20 0 32.5 -14.5t11.5 -33.5t-15 -31.5t-33 -10.5l-41 2l367 -754l385 770q-33 -2 -76 -4q-20 -2 -34.5 10.5t-15.5 32t11 33.5t31 14q168 12 276 13q18 0 31.5 -13.5t13.5 -32t-13 -31.5t-32 -13q-43 0 -88 -2 l-438 -879l410 -840h112q18 0 31.5 -13t13.5 -31.5t-13 -32t-32 -13.5h-317q-18 0 -31.5 13.5t-13.5 32t13 31.5t32 13h102l-358 736l-367 -736h60q18 0 31.5 -13t13.5 -31.5t-13.5 -32t-31.5 -13.5q-74 0 -107 -2h-2q-66 0 -119 -4q-18 -2 -33.5 10.5t-16.5 30.5t11.5 33.5 t30.5 15.5q35 4 72 4l420 842l-418 858q-55 0 -98 -12q-18 -6 -35 3t-22 27.5z" />
<glyph unicode="Y" horiz-adv-x="1232" d="M-37 1558.5q2 18.5 16.5 30.5t32.5 10q30 -3 72 -3q21 0 45 1q111 4 125 5q18 0 31.5 -13.5t13.5 -32t-13.5 -32t-31.5 -13.5q-20 0 -45 -2q57 -74 143 -206q113 -174 133 -203q27 37 142 213q88 135 139 198h-78q-18 0 -31.5 13.5t-13.5 32t13.5 32t31.5 13.5h295 q18 0 31.5 -13.5t13.5 -32t-13.5 -32t-31.5 -13.5h-98q-78 -86 -183 -247q-127 -197 -165 -248l2 -1241q55 2 100 4q20 2 34.5 -10.5t15.5 -32t-11 -33.5t-31 -14q-59 -4 -311 -4q-18 0 -31.5 13t-13.5 31.5t13 32t32 13.5h65h48l-3 1224q-53 70 -172 252q-106 168 -178 254 q-51 0 -92 4q-18 2 -30.5 16.5t-10.5 33z" />
<glyph unicode="Z" horiz-adv-x="1470" d="M0 -242l27 41v17h12l1110 1700l-1028 -7q0 -33 3 -122t3 -138q0 -18 -13.5 -31.5t-32 -13.5t-31.5 13.5t-13 31.5q0 51 -4 152.5t-4 152.5q0 29 24 41v4l1188 9v-60l27 -16l-1121 -1716l918 -6q-2 61 -2 217q0 18 13.5 31.5t31.5 13.5t31.5 -13.5t13.5 -31.5 q0 -176 4 -248q3 -29 -24 -43v-17l-1045 7l-10 -17l-25 17h-26v16z" />
<glyph unicode="[" horiz-adv-x="667" d="M20 1432h56v32h358v-90h-321l18 -1736l330 8l4 -90l-410 -11l-2 39h-12z" />
<glyph unicode="\" horiz-adv-x="860" d="M-127 1399l82 41l702 -1422l-82 -41z" />
<glyph unicode="]" horiz-adv-x="690" d="M51 -365l342 9l-18 1730h-299v90h358v-32h31l20 -1848h-22l2 -28l-410 -11z" />
<glyph unicode="^" horiz-adv-x="1103" d="M102 596l353 836l34 -15l41 19l369 -795l-82 -37l-319 688l-310 -733z" />
<glyph unicode="_" horiz-adv-x="1282" d="M-35 -172h1112v-90h-1112v90z" />
<glyph unicode="`" horiz-adv-x="583" d="M47 1411l66 66l268 -273l-66 -65z" />
<glyph unicode="a" horiz-adv-x="1345" d="M-41 -10.5q0 18.5 13.5 32t31.5 13.5q35 0 74 2l387 1366l-43 -4q-18 -2 -32.5 10t-16.5 30.5t10.5 33t30.5 16.5q102 10 207 12q20 2 33.5 -11t14.5 -32.5t-12.5 -33t-31.5 -13.5q-23 -2 -45 -2l430 -1360h86q18 0 31.5 -13t13.5 -31.5t-13.5 -32t-31.5 -13.5h-246 q-18 0 -31.5 13.5t-13.5 32t13 31.5t32 13h63l-295 932l-180 -8l-264 -930q31 2 74 4q18 2 33.5 -10t16.5 -30.5t-11.5 -34t-30.5 -15.5q-158 -12 -252 -12q-18 0 -31.5 13t-13.5 31.5zM465 1067l125 4l-66 207z" />
<glyph unicode="b" horiz-adv-x="1239" d="M11 1437.5q1 18.5 15.5 32t32.5 11.5q20 -1 49 -1q57 0 148 3q152 6 223 7q281 -6 420 -114q131 -104 133 -295v-14q0 -156 -86 -254q-45 -51 -110 -86q127 -66 178 -221q21 -76 21 -148q-1 -69 -31 -139q-32 -72 -91 -119q-135 -104 -417 -131q-113 -10 -433 -10 q-18 0 -31.5 13.5t-13.5 32t13.5 31.5t31.5 13h60h59l-6 1340q-74 0 -121 2q-18 0 -31.5 14t-12.5 32.5zM266 1393l4 -643q45 -2 99.5 -2t119.5 2q129 4 218 26q113 31 170 96q65 73 65 198v11q-2 145 -100 222q-113 90 -365 94q-18 1 -39 1q-66 0 -172 -5zM270 659l2 -610 q121 2 215 10q256 27 369 115q64 47 82 133q7 33 7 65q0 53 -19 105q-30 89 -94 143q-62 52 -144 52h-6q-10 0 -18 2q-99 -15 -318 -15h-76z" />
<glyph unicode="c" horiz-adv-x="1095" d="M2 596q2 131 26.5 259t89 266.5t161.5 217.5q121 102 208 125q46 11 90 10q39 0 77 -8q79 -18 139 -71q0 12 2 26q2 18 16 30.5t32.5 10.5t31 -16.5t10.5 -32.5q-5 -60 -5 -123q0 -21 1 -43q10 -40 10 -84v-14q0 -8 -4 -16q0 -18 -12.5 -29.5t-28.5 -13.5 q-18 -2 -32.5 10t-16.5 30q-4 51 -6 103q-27 84 -106 125q-49 25 -104 25q-33 0 -69 -9q-70 -16 -176 -104q-119 -100 -178.5 -288.5t-65.5 -389.5q0 -15 -1 -29q0 -232 93 -370q59 -92 189 -125q16 -6 50 -16.5t47 -13.5t43 -8t40 1q111 18 182 155q66 125 66 260 q0 18 13 32t31.5 14t32 -13.5t13.5 -32.5q0 -158 -76 -303q-92 -178 -250 -202q-16 -8 -58 -1t-59.5 11t-54.5 14t-45 12q-160 43 -242 166q-105 157 -105 412q0 20 1 41z" />
<glyph unicode="d" horiz-adv-x="1243" d="M-25 14.5q-2 18.5 9.5 34t29.5 17.5q34 5 84 5q38 0 84 -3l-6 1321q-72 -2 -143 -9q-18 -2 -32.5 10.5t-16.5 31t10 32.5t31 16q124 12 236 12q98 0 188 -9q281 -31 403 -152q104 -103 152 -283q36 -137 35 -285q0 -47 -3 -94q-12 -199 -83.5 -369.5t-196.5 -254.5 q-92 -63 -271 -66q-49 0 -137 4q-53 4 -67 4q-8 -2 -17 -2q-31 0 -84 2.5t-77.5 2.5t-75.5 -5q-18 -2 -34 9.5t-18 30zM266 1391l6 -1321q23 -2 82 -4q84 -4 131 -5q150 0 217 48q104 72 168 223q64 150 76 334q3 42 2 83q0 137 -32 261q-42 160 -130 245q-98 98 -346 125 q-82 11 -174 11z" />
<glyph unicode="e" horiz-adv-x="1079" d="M-23 -2q0 18 13.5 31.5t32.5 13.5h38q5 145 7 293q1 89 1 207v169q-1 226 -1 294q0 46 9 204q4 75 4 122q0 52 -5 69h-53q-18 0 -32 13t-14 31.5t13.5 32t32.5 13.5q135 0 403 -3t403 -3q18 0 31.5 -13.5t13.5 -31.5q0 -12 -6 -23q2 -12 2 -25.5t1 -28.5t1 -24 q1 -20 1 -38q0 -37 -3 -68q-2 -18 -16 -30.5t-32.5 -10.5t-31 16.5t-10.5 32.5q2 20 2 43.5t-2 50.5q0 8 -1 27.5t-1 32.5q-113 0 -322.5 2t-287.5 2q2 -91 3 -109v-7q0 -25 -5 -105q-6 -94 -6 -107h180q115 2 186 6q-1 42 -1 77.5t1 64.5q0 18 13.5 31.5t33 12.5t32.5 -15 t11 -34q-1 -19 -1 -45q0 -53 3 -135q3 -100 4 -160q0 -15 -1 -28q0 -18 -13.5 -31.5t-33 -12.5t-33 14t-11.5 34q1 18 1 39q0 42 -3 96q-74 -4 -188 -4q-154 0 -182 -2v-347q0 -464 -4 -589q82 2 292.5 3t325.5 1q1 50 1 97.5t-1 91.5q-2 18 11.5 32.5t32 15.5t32.5 -12.5 t14 -31.5q2 -54 2 -114t-2 -124v-2v-2q0 -18 -14 -31.5t-33 -11.5q-6 0 -12 2q-125 0 -356.5 -2t-325.5 -2q-8 -2 -17 -2q-6 0 -12 2h-69q-18 0 -32 13.5t-14 31.5z" />
<glyph unicode="f" horiz-adv-x="1079" d="M-47 -6.5q0 18.5 13.5 32t31.5 13.5h63q6 145 7 295q1 89 1 207v171q-1 228 -1 294q0 47 9 204q4 75 4 122q0 52 -5 69h-53q-18 0 -32 13t-14 31.5t13.5 32t32.5 13.5q135 0 403 -3t403 -3q18 0 31.5 -13.5t13.5 -31.5q0 -12 -6 -23q2 -12 2 -25.5t1 -28.5t1 -24 q1 -20 1 -38q0 -37 -3 -68q-2 -18 -16 -30.5t-32.5 -10.5t-31 16.5t-10.5 32.5q2 21 2 44t-2 50q0 8 -1 27.5t-1 32.5q-113 0 -322.5 2t-287.5 2q2 -92 3 -109v-7q0 -24 -5 -105q-6 -93 -6 -107h180q115 2 186 6q-1 42 -1 77.5t1 64.5q0 18 13.5 31.5t33 12.5t32.5 -15 t11 -34q-1 -19 -1 -45q0 -53 3 -135q3 -100 3 -160v-28q0 -18 -13.5 -31.5t-33 -12.5t-33 14t-11.5 34q1 18 1 39q0 43 -3 96q-74 -4 -188 -4q-154 0 -182 -2v-347q0 -466 -4 -593h125q18 0 31.5 -13.5t13.5 -32t-13.5 -31.5t-31.5 -13h-281q-18 0 -31.5 13t-13.5 31.5z" />
<glyph unicode="g" horiz-adv-x="1343" d="M2 596q2 131 26.5 259t89 266.5t161.5 217.5q121 102 208 125q46 11 90 11q40 0 77 -9q79 -18 139 -71q0 12 2 26q2 18 16 30.5t32.5 10.5t31 -16t10.5 -33q-5 -60 -5 -123q0 -22 1 -43q10 -40 10 -84v-14q0 -8 -4 -16q0 -18 -12.5 -29.5t-28.5 -13.5q-18 -2 -32.5 10 t-16.5 30q-4 51 -6 103q-27 84 -106 125q-49 25 -104 25q-33 0 -69 -9q-70 -16 -176 -104q-119 -100 -178.5 -288.5t-65.5 -389.5v-29q0 -231 92 -370q59 -92 189 -125q16 -6 50 -16.5t47 -13.5t43 -8t40 1q111 18 182 155q59 113 64 242l-2 12l-47 17q-63 22 -100 22 q-12 0 -21 -2q-53 -10 -97 -94q-8 -16 -26.5 -22.5t-34.5 2t-22 27t2 34.5q63 123 159 143q16 3 34 3q55 0 134 -27l19 -6q63 -23 96 -30q15 -3 34 -3q21 0 47 4q48 8 91 43q14 12 32.5 10t31 -16.5t10.5 -32.5t-17 -31q-80 -69 -178 -69q-24 0 -49 4q6 -49 9 -108.5 t3 -101.5t-1 -109.5t-1 -96.5q0 -18 -13 -31.5t-31.5 -13.5t-32 13.5t-13.5 31.5v45v53v45q-92 -178 -250 -202q-16 -8 -58 -1t-59.5 11t-54.5 14t-45 12q-160 43 -242 166q-105 157 -105 412q0 20 1 41z" />
<glyph unicode="h" horiz-adv-x="1073" d="M-45 12.5q0 18.5 13.5 31.5t31.5 13h49l-6 1342l-47 4q-18 2 -30.5 16.5t-10.5 32.5t16.5 30.5t32.5 10.5q114 -10 171 -10h18q18 2 32.5 -11.5t15.5 -32t-12.5 -32.5t-31.5 -14q-31 -2 -64 -2l2 -342l535 2l2 350q-31 0 -58 -2q-20 -2 -34.5 10t-15.5 31.5t11.5 34 t30.5 14.5q31 2 217 2q18 0 31.5 -13.5t13.5 -32t-13 -31.5t-32 -13h-59l-12 -1346h63q20 2 33.5 -11t14.5 -32.5t-12 -33t-32 -13.5q-16 -1 -42.5 -1t-65.5 1q-34 1 -59.5 1t-43.5 -1q-18 -2 -32.5 10.5t-15.5 32t11.5 33.5t32.5 14q25 2 58 2l8 904l-535 -3l4 -905 q45 -2 76 -2q18 0 31.5 -13t13.5 -31.5t-13.5 -32t-31.5 -13.5q-37 0 -107.5 3t-107.5 3q-18 0 -31.5 13.5t-13.5 32z" />
<glyph unicode="i" horiz-adv-x="524" d="M-29 1433.5q0 18.5 13.5 32t31.5 13.5h115h2h2h117q18 0 31.5 -13.5t13.5 -32t-13.5 -31.5t-31.5 -13h-76q-2 -43 -12 -148q-12 -123 -14 -186q0 -12 -1 -26q0 -54 7 -128q10 -137 10 -162q10 -244 10 -693q33 0 98 -3q20 0 32.5 -13.5t12.5 -33t-13 -31.5t-32 -12 q-42 1 -79 1q-110 0 -172 -5q-18 -2 -33 10t-17 30.5t10.5 33t30.5 16.5q35 4 72 4q0 449 -10 692q-2 23 -13 158q-5 74 -5 130q0 19 1 36q2 66 15 190l12 140h-70q-18 0 -31.5 13t-13.5 31.5z" />
<glyph unicode="j" horiz-adv-x="1060" d="M-45 312q-5 28 -5 58q0 52 16 107q24 86 89 152q45 43 103 59q28 9 56 9t56 -9q57 -16 93 -64.5t40 -117.5q2 -20 -3 -45t-10 -38t-16.5 -39t-11.5 -28q-8 -16 -25.5 -23t-34.5 0t-24.5 24.5t-1.5 35.5q6 10 15.5 31.5t12.5 30t6 21.5t3 26q-6 80 -69 98q-17 5 -34 5 q-47 0 -89 -42q-74 -72 -79 -173v-17q0 -91 50 -170q55 -92 146 -139q62 -33 128 -33q29 0 58 6q76 16 131 64.5t82 119.5q31 82 31 252q0 45 -2 94t-5.5 102.5t-3.5 78.5q-4 18 -4 104q0 81 3 222q8 290 8 325q-43 -4 -78 -10q-20 -2 -35.5 8t-18 29.5t8 35t28.5 17.5 q57 8 240 18q18 2 32.5 -11t15.5 -31.5t-12.5 -33t-31.5 -14.5q-10 -2 -59 -4q0 -41 -6 -325q-4 -136 -4 -217q0 -87 4 -109q2 -25 4 -80l4 -103q2 -51 2 -96v-19q0 -172 -35 -266q-35 -92 -108.5 -156.5t-170.5 -84.5q-40 -8 -78 -8q-88 0 -168 43q-116 61 -184 174 q-45 76 -59 156z" />
<glyph unicode="k" horiz-adv-x="1257" d="M-27 -28.5q-4 18.5 6.5 35t28.5 20.5q45 10 101 12l12 1356q-31 -2 -55 -6q-20 -2 -36 8t-18 29.5t8.5 35t28.5 17.5q68 10 232 10q18 0 31.5 -13.5t13.5 -32t-13.5 -31.5t-31.5 -13h-70l-8 -885l495 864q-27 -2 -49 -4q-20 -2 -34.5 9.5t-16.5 31t9 33.5t30 16 q45 6 219 9q18 0 31.5 -12.5t13.5 -32t-12 -33t-33 -13.5q-16 0 -51 -2l-346 -606l440 -721q55 0 111 -4q20 0 32.5 -14.5t11.5 -33.5t-15.5 -31.5t-32.5 -10.5q-62 3 -123 3l-123 -3q-18 -2 -32.5 10.5t-15.5 31.5t11 33.5t33 14.5q18 2 39 2l-389 633l-199 -348l-4 2 l-2 -297q2 0 34.5 -1t49.5 -1q18 0 31.5 -13.5t13.5 -32t-13.5 -31.5t-31.5 -13h-68h-70q-23 0 -56.5 -3t-61.5 -9q-18 -4 -35 6t-21 28.5z" />
<glyph unicode="l" horiz-adv-x="1075" d="M-39 1421.5q0 18.5 13.5 31.5t31.5 13q74 0 227 11q18 2 33 -10.5t16 -32t-11.5 -34t-32.5 -14.5q-41 -4 -64 -4l10 -1341q95 -1 151 -1h45q54 1 199.5 8t198.5 9q-4 102 -10 205q-2 18 10.5 32.5t31.5 15.5t33.5 -11.5t14.5 -32.5q8 -119 12 -241q2 -29 -22 -41 q-12 -16 -33 -17q-66 -2 -193.5 -8t-209.5 -9q-49 -2 -110 -2q-40 0 -85 1q-113 2 -205 12q-20 2 -31.5 16.5t-9.5 34t16.5 30.5t32.5 9q37 -4 74 -6l-10 1331h-78q-18 0 -31.5 13.5t-13.5 32z" />
<glyph unicode="m" horiz-adv-x="1349" d="M-47 -6.5q-2 18.5 9 34t30 17.5q43 6 100 8l6 1352h-80q-18 0 -31.5 13.5t-13.5 31.5t13.5 31.5t31.5 13.5h218q18 0 31.5 -13.5t13.5 -31.5t-13.5 -31.5t-31.5 -13.5h-27l352 -737l340 739q-53 -2 -96 -2q-18 0 -31.5 13.5t-13.5 31.5t13 31.5t32 13.5q16 0 274 14 q18 2 32.5 -11t15.5 -31.5t-12 -33t-32 -14.5q-27 -2 -75 -6l4 -1358q49 2 84 4q18 2 32.5 -10t16.5 -30.5t-10.5 -33t-30.5 -16.5q-45 -4 -132 -8t-124 -6q-20 -2 -34.5 10t-15.5 31.5t11 34t31 14.5q35 2 82 6l-4 1172l-287 -625h12h14q18 0 31.5 -13.5t13.5 -31.5 t-13 -31.5t-32 -13.5q-133 0 -190 -12q-18 -4 -33.5 7t-19.5 29.5t7 34t30 19.5q23 4 45 6l-308 643l-6 -1180q57 2 94 4q18 2 33 -10t17 -30.5t-10.5 -33t-30.5 -16.5q-37 -4 -146 -6q-84 0 -135 -8q-18 -2 -33.5 9t-17.5 29.5z" />
<glyph unicode="n" horiz-adv-x="1210" d="M-25 20.5q0 18.5 13.5 32t31.5 13.5h62v847q-2 43 -9 147q-7 102 -9 162q0 11 -1 24q0 55 9 136h-33q-20 -2 -33.5 11.5t-14.5 33t12 33t32 13.5q45 2 98 2h10h113q18 0 31.5 -13.5t13.5 -32t-13.5 -32t-31.5 -13.5h-49q14 -35 45 -96q55 -111 76 -162q55 -145 178 -405 l143 -307q100 -223 133 -277q1 307 1 498t-1 266q-2 43 -9 147q-7 106 -8 164v13q0 56 7 147q-72 -2 -76 -2q-18 -2 -32.5 11.5t-15.5 32t12.5 32.5t31.5 14q190 8 240 8q18 0 31.5 -13t13.5 -31.5t-13.5 -32t-31.5 -13.5q-31 0 -66 -2q-11 -90 -11 -142v-8q1 -52 9 -160 t8 -165q1 -35 1 -246t-1 -598q35 2 86 4q18 2 33 -11t16 -31.5t-12.5 -33t-31.5 -14.5q-84 -4 -134 -10q-10 -4 -22 -2q-33 -4 -66 -10q-18 -4 -33.5 7t-19.5 29.5t7.5 34t29.5 19.5l8 2q-55 88 -166 336l-145 307q-123 264 -180 410q-18 49 -72 153l-14 31v-24 q0 -59 7 -161q9 -124 9 -180q1 -33 1 -244t-1 -601h47q20 2 33.5 -11.5t14.5 -33t-12 -33t-32 -13.5q-88 -2 -203 -2q-18 0 -31.5 13.5t-13.5 32z" />
<glyph unicode="o" horiz-adv-x="1091" d="M-12 668q-1 30 -1 59q0 303 76 490q49 113 159 196.5t231 93.5q8 2 14 0h2q12 0 20 -4q115 -23 177 -69q45 -35 125 -154q2 -4 30 -41q29 -35 39 -57q18 -39 21 -105q2 -12 2 -47v-39q5 -72 6 -146q0 -194 -39 -396q-72 -371 -246 -486q-45 -29 -127 -31h-15q-31 0 -95 5 q-82 4 -158 58t-113 128q-98 197 -108 545zM80 670q8 -328 98 -506q27 -53 82 -93t111 -44q82 -4 104 -4q55 2 80 18q141 92 205 424q38 197 38 386q0 67 -5 132q-2 18 -2 47v45q-2 45 -13 70q-6 12 -26 37q-33 41 -39 49q-70 104 -105 131q-45 35 -145 53 q-96 -6 -186.5 -74.5t-126.5 -160.5q-71 -167 -71 -451q0 -29 1 -59z" />
<glyph unicode="p" horiz-adv-x="1032" d="M8 1413.5q-2 18.5 10.5 32.5t30.5 16q86 8 121 10.5t120 3.5h20q71 0 116 -6q51 -8 118.5 -29.5t121.5 -54.5q72 -45 110.5 -124.5t46.5 -165.5q4 -42 4 -81q0 -242 -165 -380q-154 -127 -447 -156l6 -434h33h29q18 0 31.5 -13.5t13.5 -31.5t-13.5 -31.5t-31.5 -13.5 q-147 0 -201 -4q-20 -2 -34.5 10t-15.5 31.5t11 34t31 14.5l55 4l-18 1331l-54 -4q-18 -2 -32.5 10.5t-16.5 31zM203 1382l10 -811q260 27 389 134q135 110 135 311q0 34 -4 71q-16 158 -117 222q-118 75 -333 75q-38 0 -80 -2z" />
<glyph unicode="q" horiz-adv-x="1196" d="M-74 -351.5q0 7.5 2 11.5l2 4q2 6 4 10l7 7l14 16l98 113q106 133 140 167q-123 74 -170 267q-14 53 -22.5 120.5t-10.5 113.5t-4 118t-2 92q-3 56 -3 108q0 236 52 392q98 297 370 317h13h2q12 2 22 -4q109 -23 168 -71q41 -35 115 -152q4 -8 31 -41q25 -33 34 -57 q12 -29 17.5 -63t5.5 -81v-49q4 -67 4 -135q0 -207 -37 -416q-72 -387 -252 -487q-37 -18 -100 -19q-6 0 -82 4q-31 0 -57 7q-27 -25 -58 -58q20 6 41 8q16 2 33 2q70 0 156 -40q29 -14 82 -46q51 -31 75 -40q65 -34 110 -34q9 0 17 1q66 8 127 94q32 44 32 75q0 26 -23 42 q-16 12 -42 7t-42 -30q-6 -10 -9.5 -21.5t-7.5 -28.5t-10 -34q-6 -18 -22.5 -26.5t-35 -2t-26.5 22.5t-2 35q0 4 6 24.5t13.5 41t15.5 34.5q35 61 101 75q18 3 35 3q43 0 77 -25q55 -37 61 -104q1 -6 1 -13q0 -61 -48 -128q-84 -119 -188 -131q-14 -2 -30 -2q-67 0 -153 43 q-20 10 -79 45q-49 29 -76 41q-65 32 -113 32q-12 0 -22 -2q-66 -10 -118 -45t-118 -100l-31 -29q-10 -12 -14 -14l-2 -2q-8 -6 -18 -8q-12 -2 -25 2q-20 6 -29 28q-2 8 -2 15.5zM74 692q2 -25 4 -95.5t4 -113.5t9 -105.5t20 -111.5q29 -113 85 -174t152 -67q74 -4 78 -5 q41 2 55 11q143 78 207 422q36 203 36 408q0 61 -3 122q-2 20 -2 58t-2 60.5t-10 41.5q-8 14 -25 37q-29 37 -37 49q-66 104 -96 131q-43 35 -139 53q-211 -14 -291 -254q-47 -145 -47 -369q0 -47 2 -98z" />
<glyph unicode="r" horiz-adv-x="1099" d="M8 1413.5q-2 18.5 10.5 32.5t30.5 16q86 8 121 10.5t120 3.5h20q71 0 116 -6q51 -8 118.5 -29.5t121.5 -54.5q72 -45 110.5 -124.5t46.5 -165.5q4 -42 4 -81q0 -242 -165 -380q-35 -29 -78 -53l200 -527h66q18 0 31.5 -13t13.5 -31.5t-13.5 -32t-31.5 -13.5 q-152 0 -219 -14q-18 -4 -33.5 7t-20 29.5t7 34t29.5 19.5q35 6 74 10l-188 492q-119 -47 -285 -64l6 -434h33h29q18 0 31.5 -13.5t13.5 -31.5t-13.5 -31.5t-31.5 -13.5q-147 0 -201 -4q-20 -2 -34.5 10t-15.5 31.5t11 34t31 14.5l55 4l-18 1331l-54 -4q-18 -2 -32.5 10.5 t-16.5 31zM203 1382l10 -811q260 27 389 134q135 110 135 311q0 34 -4 71q-16 158 -117 222q-118 75 -333 75q-38 0 -80 -2z" />
<glyph unicode="s" horiz-adv-x="1075" d="M-73 464q1 24 14.5 67.5t42.5 78.5q62 70 164 100q62 18 120 19q39 0 76 -8q109 -23 158 -103q32 -52 31 -117q0 -49 -17 -106q-4 -18 -21.5 -27.5t-35 -4t-26.5 22.5t-3 34q12 43 12 78q0 43 -18 73q-29 45 -98 62q-27 5 -55 5q-47 0 -96 -14q-79 -24 -122 -75 q-25 -27 -30 -59.5t-5 -98.5q2 -100 61.5 -178t158.5 -119q90 -41 194 -41h10q110 2 197 47q82 44 117 134q24 63 24 137q0 32 -4 65q-14 111 -68.5 204t-127.5 132q-63 35 -205 57q-162 27 -234 60q-127 61 -135 227q-1 17 -1 32q0 179 104 273q102 90 301 90 q145 0 239 -69q23 -16 41 -37v31q-2 20 11.5 33.5t33 14.5t32.5 -12.5t13 -31.5q2 -23 6 -136.5t5 -173.5q0 -18 -13.5 -31.5t-32 -13.5t-32 13.5t-13.5 31.5q0 39 -2 87q-2 4 -6 14q-20 37 -29.5 56.5t-28 43t-38.5 37.5q-72 53 -186 53q-164 0 -240 -69q-75 -66 -75 -204 q0 -14 1 -28q4 -57 22.5 -93t63.5 -56q57 -27 207 -51q156 -25 232 -66q98 -53 163 -166q66 -109 82 -239q5 -40 5 -78q0 -93 -31 -174q-45 -119 -160 -179q-106 -55 -238 -56h-5q-128 0 -236 48q-119 51 -195 149.5t-78 231.5q-1 33 -1 54v19z" />
<glyph unicode="t" horiz-adv-x="1179" d="M-20 1415q-2 20 10 34.5t30 14.5h9h2q76 0 431 8q161 3 265 3q124 0 164 -5q8 4 18 5q12 2 25 -7q18 -2 30.5 -15t10.5 -32q0 -20 -14 -32q6 -121 8 -148q2 -20 -10.5 -34.5t-32 -15.5t-33.5 11t-14 31l-11 147q-90 3 -202 3q-56 0 -117 -1l-8 -1341q47 0 80 2 q18 2 32.5 -10.5t16.5 -30.5t-10.5 -32.5t-30.5 -16.5q-30 -3 -79 -3q-25 0 -54 1q-82 0 -121 -2q-18 -2 -32.5 10t-16.5 30.5t10.5 33t30.5 16.5q37 4 84 4l8 1337q-328 -6 -385 -6q5 -57 5 -98q0 -20 -1 -37q-2 -18 -16.5 -30.5t-33 -10.5t-30.5 16.5t-10 32.5v12 q0 37 -8 156z" />
<glyph unicode="u" horiz-adv-x="1218" d="M-63.5 1416.5q-2.5 19.5 9 33.5t29.5 16q60 7 118.5 7t113.5 -7q18 -2 29.5 -16t9.5 -33.5t-16.5 -31t-34.5 -9.5l-50 4q0 -25 -7 -254t-7 -370q0 -248 12 -371q14 -168 47 -219q43 -68 127 -109t179 -43q94 0 167.5 41t104.5 123t43 184q11 94 11 161v11q-1 72 -8 199 t-7 189q-2 39 -2 202.5t-4 251.5q-39 -2 -74 -2q-18 -2 -32.5 11.5t-15.5 32t12.5 32.5t31.5 14q84 4 244 9q20 2 33.5 -11.5t14.5 -33t-12.5 -33t-31.5 -13.5l-80 -2q4 -90 5 -253.5t1 -204.5q2 -49 9 -180.5t8 -207.5v-10q0 -72 -13 -176q-14 -112 -47 -203 q-44 -113 -142 -168q-95 -53 -210 -53h-8q-113 0 -218.5 51.5t-162.5 141.5q-43 70 -62 260q-12 147 -12 379q0 143 7 371.5t9 252.5q-35 0 -67 -4q-20 -2 -34.5 9.5t-17 31z" />
<glyph unicode="v" horiz-adv-x="1273" d="M-184 1449q2 19 16.5 30.5t34.5 9.5q29 -2 262 -12q18 0 31.5 -14.5t12.5 -33t-15.5 -32t-32.5 -11.5h-51l379 -1214l385 1217q-35 0 -68 4q-18 2 -30.5 16t-10.5 32.5t16.5 31t32.5 10.5q38 -3 84 -3q69 0 158 7q18 2 32.5 -10.5t16.5 -31t-10 -32.5t-31 -16 q-53 -4 -94 -6l-424 -1336h39h39q18 0 31.5 -13t13.5 -31.5t-13.5 -32t-31.5 -13.5q-201 0 -271 -2q-20 -2 -33.5 11.5t-14.5 33t12.5 32.5t31.5 13q37 2 78 2l-414 1336q-68 2 -122 8q-18 2 -29.5 16.5t-9.5 33.5z" />
<glyph unicode="w" horiz-adv-x="1771" d="M-176 1409q-4 18 7.5 33.5t29.5 19.5q115 18 252 19q18 0 31.5 -13.5t13.5 -32t-13.5 -31.5t-31.5 -13q-25 0 -45 -2l473 -1295l182 625l-246 674q-27 0 -49 -2q-18 -2 -32.5 10t-16.5 30.5t10 33t31 16.5q74 6 198 6q18 0 32 -13.5t14 -32t-13.5 -31.5t-32.5 -13h-45 l193 -531l154 525h-64q-18 0 -31.5 13t-13.5 31.5t13.5 32t31.5 13.5q33 0 98.5 2t98.5 2q18 0 31.5 -13.5t13.5 -32t-13.5 -31.5t-31.5 -13h-37l-197 -674l205 -559l365 1253q-31 2 -58 -2q-18 -2 -33.5 9.5t-17.5 29.5t9 33.5t30 17.5q6 4 43 4q24 0 62 -2q96 -4 98 -4 q18 0 31.5 -13t13.5 -31.5t-13.5 -32t-31.5 -13.5h-39l-400 -1372q29 -2 58 -2q18 0 31.5 -13.5t13.5 -32t-13.5 -31.5t-31.5 -13q-117 0 -232 10q-18 2 -30.5 16.5t-10.5 33t16.5 30.5t33.5 10l53 -4l-195 530l-151 -518h30q18 0 31.5 -13t13.5 -31.5t-13 -32t-32 -13.5 q-152 0 -237 6q-18 0 -30.5 14.5t-11.5 34t15.5 31.5t34.5 10q14 0 31 -2l-486 1325q-47 -4 -94 -12q-18 -4 -33.5 7.5t-19.5 29.5z" />
<glyph unicode="x" horiz-adv-x="1189" d="M-40 1404.5q-5 18.5 4.5 35t27.5 20.5q49 15 128 15q45 0 99 -5q18 -2 30.5 -16t10.5 -32.5t-16.5 -31t-32.5 -10.5h-16l282 -575l295 590q-23 0 -47 -2q-18 -2 -33.5 10t-16.5 30.5t11 34t31 15.5q131 10 223 10q18 0 31.5 -13.5t13.5 -31.5t-13.5 -31.5t-31.5 -13.5 q-31 0 -63 -2l-351 -701l324 -663h86q18 0 31.5 -13.5t13.5 -32t-13.5 -31.5t-31.5 -13h-256q-18 0 -31.5 13t-13.5 31.5t13.5 32t31.5 13.5h68l-273 561l-278 -561h30q18 0 31.5 -13.5t13.5 -32t-13 -31.5t-32 -13q-121 0 -184 -6q-18 -2 -32.5 10t-16.5 30.5t10 33 t31 16.5q27 2 57 4l334 665l-334 684q-41 -2 -76 -10q-18 -6 -34.5 3t-21.5 27.5z" />
<glyph unicode="y" horiz-adv-x="946" d="M-119 1448q2 18 17.5 29.5t33.5 9.5q1 -4 41 -4q19 0 49 1q87 3 97 3q18 0 31.5 -13.5t13.5 -32t-13.5 -31.5t-31.5 -13h-19l103 -152l98 -147q20 29 105 157q55 88 96 142h-39q-18 0 -31.5 13t-13.5 31.5t13 32t32 13.5h233q18 0 31.5 -13.5t13.5 -32t-13 -31.5t-32 -13 h-75q-57 -63 -140 -191q-100 -156 -129 -192l2 -967q37 0 70 2q18 2 32.5 -10t15.5 -31.5t-11 -34t-33 -14.5q-70 -4 -246 -4q-18 0 -31.5 13.5t-13.5 31.5t13.5 31.5t31.5 13.5h41h41l-2 952q-49 63 -136 197.5t-136 198.5q-39 0 -70 4q-18 2 -29.5 17.5t-9.5 33.5z" />
<glyph unicode="z" horiz-adv-x="1200" d="M-27 0l29 43v6h2h2l871 1329l-789 -4q0 -18 2 -87.5t2 -108.5q0 -18 -13 -31.5t-31.5 -13.5t-32 13t-13.5 32q0 41 -3 120.5t-3 120.5q0 31 29 43v2l944 6v-55l28 -18l-882 -1348l704 -4q-2 47 -2 162q0 18 13.5 31.5t32 13.5t31.5 -13.5t13 -31.5q0 -139 4 -195 q3 -35 -28 -47v-10l-828 4l-4 -8l-12 8h-37v23z" />
<glyph unicode="{" horiz-adv-x="860" d="M-127 489q-4 18 6 35t29 21q166 35 242 106q59 55 77 152q10 53 11.5 214t23.5 261q4 12 6 33q4 18 6 30q10 33 41 70q49 55 152 74q127 23 174 -60q43 -78 -20 -149q-51 -59 -121 -62q-18 -2 -32.5 11.5t-15.5 32t12 33t32 14.5q31 2 55 30q20 25 8 45q-12 27 -76 15 q-72 -12 -98 -45q-18 -20 -23 -35q-2 -6 -4 -21q-4 -23 -6 -37q-20 -90 -22 -241q-2 -170 -13 -230q-23 -127 -106 -202q-59 -55 -158 -92q96 -45 150 -125q55 -84 71 -234q4 -31 9.5 -94.5t9.5 -96t13 -77.5t28.5 -79t48.5 -62q61 -61 102 -54q33 8 45.5 47t-6.5 64 q-20 27 -82 8q-18 -4 -34.5 5t-21.5 27.5t4.5 35t27.5 22.5q119 31 176 -41q51 -61 22 -149q-12 -39 -40.5 -69t-69.5 -38q-92 -20 -189 76q-37 37 -61.5 82t-36.5 100.5t-18 93t-10.5 102t-6.5 87.5q-14 127 -57 192q-59 88 -197 123q-14 4 -24 17q-27 8 -33 34z" />
<glyph unicode="|" horiz-adv-x="423" d="M123 1507h90l6 -1890h-90z" />
<glyph unicode="}" horiz-adv-x="915" d="M-31 1198q-27 74 11 152q37 80 110 98q86 20 158 -66q10 -12 19 -29.5t12.5 -28.5t7.5 -30.5t6 -19.5q20 -80 33 -244q12 -162 28 -227q27 -104 84 -154q72 -61 211 -61h8h2q18 2 34 -9.5t18 -30t-9.5 -33.5t-29.5 -17q-188 -29 -260 -119q-53 -70 -56 -201 q0 -37 6.5 -127t8.5 -129q0 -162 -66 -248q-92 -115 -184 -110q-86 4 -129 96q-35 82 -6 158q37 94 145 94q18 0 31.5 -13.5t13.5 -32t-13.5 -31.5t-31.5 -13q-45 0 -59 -37q-16 -41 4 -88q18 -39 49 -41q45 -2 106 76q49 59 48 188q0 37 -7 125q-8 86 -6 133q0 164 74 258 q45 57 121 94q-45 18 -82 50q-80 68 -113 202q-16 66 -30 240q-12 156 -33 227q-2 12 -5 27.5t-5 21.5l-5 13q-4 8 -10 14q-35 41 -67 33q-29 -6 -50 -47q-18 -43 -6 -80q16 -43 72 -55q18 -4 28.5 -20.5t6.5 -35t-20.5 -29t-35.5 -6.5q-104 25 -137 113z" />
<glyph unicode="~" horiz-adv-x="1392" d="M-8 438q0 106 92 203q133 135 289 84q92 -31 239 -168q6 -4 28 -24.5t28 -26.5l26 -23q18 -16 27.5 -23t25 -20.5t27.5 -21.5l25 -15q12 -8 24 -14q100 -53 183 10q53 41 77.5 119t8.5 148q-14 63 -58 86q-51 25 -137 -17q-47 -23 -62.5 -57.5t-5.5 -63.5q10 -23 33 -28 q37 -8 94 24q16 10 34 5t28 -21t5 -33.5t-22 -28.5q-86 -51 -157.5 -35.5t-98.5 85.5q-25 63 6 131.5t105 103.5q127 61 219 17q82 -41 107 -148q20 -94 -11 -199q-33 -102 -112 -161q-127 -96 -277 -19q-16 8 -33.5 18.5t-35.5 26.5l-33 25q-12 8 -34.5 27.5t-31 27.5 t-34 30.5t-29.5 26.5q-133 123 -209 148q-100 35 -192 -62q-68 -68 -66 -137q0 -68 70 -119q35 -25 39 -26q6 -2 34 2q35 4 53.5 18.5t22.5 24.5q0 4 -4 8q-12 12 -49 19q-18 4 -29.5 19t-7.5 33.5t19.5 30t33.5 7.5q66 -10 99 -47q39 -39 26 -93q-10 -43 -53 -73.5 t-98 -36.5q-51 -6 -78 2q-18 6 -62 39q-109 78 -108 192z" />
<glyph unicode="&#xad;" d="M53 500v90l473 4v-90z" />
<glyph unicode="&#x2000;" horiz-adv-x="826" />
<glyph unicode="&#x2001;" horiz-adv-x="1653" />
<glyph unicode="&#x2002;" horiz-adv-x="826" />
<glyph unicode="&#x2003;" horiz-adv-x="1653" />
<glyph unicode="&#x2004;" horiz-adv-x="551" />
<glyph unicode="&#x2005;" horiz-adv-x="413" />
<glyph unicode="&#x2006;" horiz-adv-x="275" />
<glyph unicode="&#x2007;" horiz-adv-x="275" />
<glyph unicode="&#x2008;" horiz-adv-x="206" />
<glyph unicode="&#x2009;" horiz-adv-x="330" />
<glyph unicode="&#x200a;" horiz-adv-x="91" />
<glyph unicode="&#x2010;" d="M53 500v90l473 4v-90z" />
<glyph unicode="&#x2011;" d="M53 500v90l473 4v-90z" />
<glyph unicode="&#x2012;" d="M53 500v90l473 4v-90z" />
<glyph unicode="&#x2013;" horiz-adv-x="1282" d="M53 500v90l1024 4v-90z" />
<glyph unicode="&#x2014;" horiz-adv-x="2306" d="M53 500v90l2048 4v-90z" />
<glyph unicode="&#x2018;" horiz-adv-x="436" d="M37 1438l90 20l106 -461l-90 -20z" />
<glyph unicode="&#x2019;" horiz-adv-x="493" d="M119 1022l82 448l90 -16l-82 -448z" />
<glyph unicode="&#x201c;" horiz-adv-x="544" d="M43 1436l90 12l49 -424l-90 -12zM201 1442l90 12l49 -424l-90 -12z" />
<glyph unicode="&#x201d;" horiz-adv-x="600" d="M59 1030l68 416l90 -16l-67 -416zM238 1038l67 416l90 -16l-67 -416z" />
<glyph unicode="&#x202f;" horiz-adv-x="330" />
<glyph unicode="&#x205f;" horiz-adv-x="413" />
<glyph unicode="&#x25fc;" horiz-adv-x="1495" d="M0 0v1495h1495v-1495h-1495z" />
</font>
</defs>
</svg>
