<?xml version="1.0" standalone="no"?>
<!DOCTYPE svg PUBLIC "-//W3C//DTD SVG 1.1//EN" "http://www.w3.org/Graphics/SVG/1.1/DTD/svg11.dtd" >
<svg xmlns="http://www.w3.org/2000/svg">
<metadata></metadata>
<defs>
<font id="antique_olive_stdlight" horiz-adv-x="1251" >
<font-face units-per-em="2048" ascent="1585" descent="-463" />
<missing-glyph horiz-adv-x="569" />
<glyph horiz-adv-x="2048" />
<glyph horiz-adv-x="2048" />
<glyph unicode="&#xd;" horiz-adv-x="2048" />
<glyph unicode=" "  horiz-adv-x="569" />
<glyph unicode="&#x09;" horiz-adv-x="569" />
<glyph unicode="&#xa0;" horiz-adv-x="569" />
<glyph unicode="!" horiz-adv-x="569" d="M199 1520h172l-25 -1129h-123zM211 0v205h147v-205h-147z" />
<glyph unicode="&#x22;" horiz-adv-x="796" d="M199 1108v412h135v-412h-135zM463 1108v412h135v-412h-135z" />
<glyph unicode="#" horiz-adv-x="1138" d="M70 471v123h221l43 334h-205v123h221l62 469h131l-62 -469h264l62 469h131l-61 -469h192v-123h-209l-43 -334h193v-123h-209l-62 -471h-131l62 471h-264l-62 -471h-131l61 471h-204zM422 594h264l43 334h-264z" />
<glyph unicode="$" horiz-adv-x="1138" d="M115 1114q0 182 110.5 298.5t286.5 131.5v299h123v-301q92 -9 168 -46t151 -107v-207q-67 96 -169 155.5t-214 59.5q-136 0 -228.5 -78t-92.5 -211q0 -49 12.5 -84.5t36.5 -62.5t71.5 -49.5t102.5 -41t145 -41.5q93 -24 156 -53t114 -76t75 -117t24 -167q0 -172 -97 -286 t-255 -142v-312h-123v299q-101 1 -195.5 47.5t-164.5 127.5v196q63 -114 165.5 -174.5t231.5 -60.5q127 0 215 83.5t88 213.5q0 61 -14 105t-38.5 75t-72 55.5t-101 41.5t-139.5 38q-204 49 -288 132.5t-84 258.5z" />
<glyph unicode="%" horiz-adv-x="1705" d="M164 1174q0 57 5 104.5t21.5 98.5t44 86t75.5 58t112 23t112 -23t75.5 -58t44 -86t21.5 -98.5t5 -104.5t-5.5 -107.5t-22.5 -107.5t-44.5 -97.5t-75 -67t-110.5 -26.5t-110.5 26.5t-75 67t-44.5 97.5t-22.5 107.5t-5.5 107.5zM274 1169q0 -32 1 -53.5t4.5 -60.5 t13.5 -65.5t25 -54t42 -42t62 -14.5t61.5 14t42 42t25 54t13 65.5t4.5 60.5t1 54q0 252 -147 252q-148 0 -148 -252zM358 31l869 1513l96 -55l-868 -1514zM1026 381q0 57 5 104.5t21.5 99t44 86.5t75.5 58t112 23t112 -23t75.5 -58t44 -86.5t21.5 -99t5 -104.5t-5.5 -107.5 t-22.5 -107.5t-44.5 -97.5t-75 -67t-110.5 -26.5t-110.5 26.5t-75 67t-44.5 97.5t-22.5 107.5t-5.5 107.5zM1137 377q0 -28 0.5 -45t3 -51t8 -57t16 -51.5t26 -45.5t39.5 -29t54 -12q35 0 62 14.5t42 42t25 54t13.5 66t4.5 61t1 53.5q0 252 -148 252q-147 0 -147 -252z" />
<glyph unicode="&#x26;" horiz-adv-x="1366" d="M111 389q0 68 15.5 126t40.5 100.5t67.5 84.5t83.5 72t102 68q-81 93 -123.5 178.5t-42.5 185.5q0 154 97.5 247t260.5 93q144 0 230 -87t86 -232q0 -124 -90 -232t-220 -174l363 -440q93 142 163.5 293.5t92.5 273.5l4 4v-315q-65 -164 -184 -346l237 -289h-172 l-149 193q-176 -205 -416 -205q-118 0 -221 53.5t-164 146.5t-61 201zM246 410q0 -127 92 -207t229 -80q94 0 170.5 40.5t151.5 117.5l-389 473q-254 -155 -254 -344zM389 1182q0 -67 39.5 -134t110.5 -151q43 27 71.5 46.5t66.5 51.5t60.5 61.5t39 69t16.5 80.5 q0 93 -47.5 142t-137.5 49q-98 0 -158.5 -57.5t-60.5 -157.5z" />
<glyph unicode="'" horiz-adv-x="569" d="M217 1108v412h135v-412h-135z" />
<glyph unicode="(" horiz-adv-x="569" d="M104 750q0 427 236 770h125q-225 -333 -225 -770q0 -214 53.5 -396t171.5 -354h-125q-114 164 -175 358t-61 392z" />
<glyph unicode=")" horiz-adv-x="569" d="M104 0q226 335 226 770q0 214 -54 396t-172 354h125q114 -164 175 -358t61 -392q0 -427 -236 -770h-125z" />
<glyph unicode="*" horiz-adv-x="909" d="M102 1219l45 135l265 -127l-25 293h135l-24 -293l264 127l45 -135l-277 -72l195 -209l-111 -94l-159 254l-160 -254l-111 94l195 209z" />
<glyph unicode="+" horiz-adv-x="1228" d="M98 451v135h449v450h135v-450h448v-135h-448v-451h-135v451h-449z" />
<glyph unicode="," horiz-adv-x="569" d="M143 -223l123 428h160l-158 -428h-125z" />
<glyph unicode="-" horiz-adv-x="796" d="M162 586v135h473v-135h-473z" />
<glyph unicode="." horiz-adv-x="569" d="M211 0v205h147v-205h-147z" />
<glyph unicode="/" horiz-adv-x="909" d="M16 33l762 1511l115 -57l-762 -1512z" />
<glyph unicode="0" horiz-adv-x="1138" d="M63 805q0 83 5 153.5t19 148t37.5 139t62 119t90.5 96t125.5 61t164.5 22.5t165.5 -22.5t126.5 -61t91.5 -96t62.5 -119t37.5 -139t19.5 -148t5 -153.5q0 -218 -36 -379t-103.5 -259t-159 -145t-209.5 -47q-116 0 -207 47t-158.5 145t-103 259t-35.5 379zM199 797 q0 -148 20.5 -269.5t63.5 -216.5t115.5 -147.5t170.5 -52.5t170.5 52.5t115.5 147.5t64 216.5t21 269.5q0 311 -97.5 455.5t-273.5 144.5q-370 0 -370 -600z" />
<glyph unicode="1" horiz-adv-x="1138" d="M135 834v163l508 523h145v-1520h-147v1360z" />
<glyph unicode="2" horiz-adv-x="1138" d="M94 0v135l266 258q106 103 179 181t145.5 172.5t109.5 183.5t37 170q0 51 -16.5 101t-49.5 95t-90.5 73t-131.5 28q-73 0 -142 -29t-125 -78.5t-100 -107.5t-78 -125v225q62 107 179 184.5t268 77.5q129 0 229.5 -60t152.5 -157t52 -211q0 -102 -30 -191.5t-102 -186.5 t-161.5 -187t-239.5 -223l-217 -193h750v-135h-885z" />
<glyph unicode="3" horiz-adv-x="1138" d="M111 133v170q179 -192 397 -192q165 0 251.5 102.5t86.5 278.5q0 77 -31.5 136t-84.5 93.5t-116.5 52t-134.5 17.5q-134 0 -258 -50v164l578 463v4h-682v148h841v-193l-557 -440l5 -4q63 18 155 18q85 0 159.5 -23.5t137 -72t99 -133.5t36.5 -197q0 -218 -132 -359 t-347 -141q-134 0 -222 33.5t-181 124.5z" />
<glyph unicode="4" horiz-adv-x="1138" d="M51 332v211l594 977h258v-1053h184v-135h-184v-332h-147v332h-705zM162 467h594v979h-4z" />
<glyph unicode="5" horiz-adv-x="1138" d="M125 129v188q66 -96 157.5 -151t200.5 -55q179 0 281 102.5t102 284.5q0 106 -54 180.5t-135.5 107.5t-180.5 33q-93 0 -167.5 -16.5t-174.5 -59.5v777h817v-148h-695v-471q48 24 120.5 38.5t138.5 14.5q222 0 350.5 -129.5t128.5 -349.5q0 -223 -137.5 -361.5 t-364.5 -138.5q-129 0 -216 34.5t-171 119.5z" />
<glyph unicode="6" horiz-adv-x="1138" d="M102 729q0 78 6.5 152.5t23 157t42 154t67 137.5t94.5 112.5t127 74t163 27.5q76 0 138 -21.5t102 -52t93 -84.5v-192q-62 103 -143 153t-197 50q-69 0 -126.5 -27t-96.5 -71.5t-68.5 -106.5t-46.5 -126.5t-27.5 -138t-13 -135t-1.5 -122.5h4q37 130 132.5 202t235.5 72 q205 0 315.5 -124.5t110.5 -330.5q0 -101 -31 -193.5t-87 -164t-142 -114t-190 -42.5q-86 0 -156 23.5t-119.5 63.5t-87 98.5t-60 122t-37 142t-19.5 150.5t-5 154zM272 479q0 -106 33 -187.5t105 -131t176 -49.5q77 0 139 34t99.5 89.5t57 121.5t19.5 136 q0 142 -86.5 229.5t-228.5 87.5q-141 0 -227.5 -95t-86.5 -235z" />
<glyph unicode="7" horiz-adv-x="1138" d="M88 1372v148h918v-172l-646 -1348h-161l645 1372h-756z" />
<glyph unicode="8" horiz-adv-x="1138" d="M78 416q0 143 75.5 236t215.5 130v4q-273 88 -273 371q0 95 41 170.5t108.5 122t150.5 70.5t173 24q97 0 181 -24t150.5 -71.5t105 -127t38.5 -182.5q0 -133 -73.5 -223t-200.5 -130v-4q291 -66 291 -376q0 -104 -40.5 -187.5t-109 -136t-156.5 -80t-186 -27.5 q-138 0 -247.5 49t-176.5 150.5t-67 241.5zM213 414q0 -148 97.5 -225.5t258.5 -77.5q94 0 173.5 32t131.5 101.5t52 163.5q0 81 -29 140t-80.5 91t-112.5 46.5t-135 14.5q-51 0 -100 -10t-96 -32.5t-82 -55t-56.5 -81t-21.5 -107.5zM244 1128q0 -97 45 -161.5t116 -91.5 t164 -27q135 0 231.5 74.5t96.5 205.5q0 76 -27 130.5t-75.5 83.5t-103.5 42t-122 13q-140 0 -232.5 -68.5t-92.5 -200.5z" />
<glyph unicode="9" horiz-adv-x="1138" d="M102 1053q0 221 124.5 356t338.5 135q95 0 170 -25t125.5 -73t85.5 -110t54.5 -144t27.5 -165t8 -183q0 -94 -6 -178t-21 -173.5t-39.5 -163.5t-64 -141t-90.5 -113t-123.5 -73t-159.5 -27q-135 0 -217 39.5t-161 120.5v201q66 -103 153.5 -164t192.5 -61 q89 0 156.5 33.5t112 93t73.5 151.5t42.5 198.5t16.5 243.5h-4q-22 -109 -121.5 -191.5t-243.5 -82.5q-137 0 -236 67t-146.5 177.5t-47.5 251.5zM238 1040q0 -170 76 -259t243 -89q73 0 133.5 30.5t98.5 80.5t58.5 111.5t20.5 125.5q0 169 -84.5 263t-226.5 94 q-156 0 -237.5 -99.5t-81.5 -257.5z" />
<glyph unicode=":" horiz-adv-x="569" d="M211 0v205h147v-205h-147zM211 756v205h147v-205h-147z" />
<glyph unicode=";" horiz-adv-x="569" d="M143 -223l123 428h160l-158 -428h-125zM227 756v205h148v-205h-148z" />
<glyph unicode="&#x3c;" horiz-adv-x="1228" d="M98 455v127l1032 454v-139l-864 -379l864 -379v-139z" />
<glyph unicode="=" horiz-adv-x="1228" d="M98 246v135h1032v-135h-1032zM98 655v136h1032v-136h-1032z" />
<glyph unicode="&#x3e;" horiz-adv-x="1228" d="M98 0v139l865 379l-865 379v139l1032 -454v-127z" />
<glyph unicode="?" horiz-adv-x="1138" d="M156 1106v221q65 99 169.5 158t227.5 59q177 0 287 -96t110 -272q0 -65 -22 -124t-57 -106t-77.5 -91.5t-85.5 -88t-78 -87.5t-57 -99t-22 -113v-76h-111v113q0 60 20.5 116t54 101t73.5 88.5t79.5 85.5t73 84t54 92t20.5 103q0 104 -69 163.5t-177 59.5 q-245 0 -409 -287zM428 0v205h147v-205h-147z" />
<glyph unicode="@" horiz-adv-x="1638" d="M74 764q0 159 62.5 304t167.5 249t248.5 165.5t299.5 61.5q143 0 273.5 -48.5t227.5 -132.5t154.5 -205.5t57.5 -260.5q0 -104 -32 -201.5t-83.5 -169.5t-113.5 -126.5t-124 -82.5t-114 -28q-71 0 -114 35t-52 102h-4q-27 -32 -47.5 -51.5t-50.5 -41.5t-66 -33t-78 -11 q-141 0 -227 95t-86 234q0 146 60 280.5t175.5 224t257.5 89.5q166 0 238 -168l47 136h133l-182 -600q-23 -79 -23 -103q0 -65 47 -65q74 0 148 72.5t121 183.5t47 217q0 125 -48 229.5t-129.5 173.5t-187.5 107.5t-223 38.5q-185 0 -336 -91t-236 -246.5t-85 -342.5 q0 -308 182 -488t485 -180q152 0 292.5 69.5t229.5 190.5h134q-102 -174 -282.5 -272.5t-401.5 -98.5q-117 0 -227 30.5t-207.5 95t-170 156t-115 222.5t-42.5 285zM532 635q0 -94 50.5 -152.5t128.5 -58.5q87 0 165 77t120 181t42 195q0 79 -52 139.5t-120 60.5 q-92 0 -171.5 -72.5t-121 -173.5t-41.5 -196z" />
<glyph unicode="A" d="M18 0l510 1520h189l516 -1520h-152l-166 510h-581l-164 -510h-152zM375 633h499l-249 776h-4z" />
<glyph unicode="B" d="M180 0v1520h500q461 0 461 -404q0 -131 -82.5 -222t-212.5 -118v-4q144 -14 226.5 -101.5t82.5 -232.5q0 -88 -18 -157t-45.5 -114.5t-73.5 -78t-87.5 -49.5t-104 -26t-106.5 -11t-110 -2h-430zM315 135h353q37 0 65.5 1.5t67.5 8t67 17.5t58.5 32.5t49.5 51t31.5 74 t12.5 100.5t-12.5 100.5t-31.5 74t-49.5 51t-58.5 32.5t-67 17.5t-67.5 8t-65.5 1.5h-353v-570zM315 827h371q62 0 114 12t101 40.5t77 84.5t28 136q0 64 -19.5 113.5t-50 79t-73.5 48t-85.5 25t-91.5 6.5h-371v-545z" />
<glyph unicode="C" d="M111 760q0 144 21.5 262t56.5 197.5t85 140t100.5 94.5t109.5 55.5t105.5 28t94.5 6.5q290 0 440 -229v-225l-4 4q-61 137 -172 220t-264 83q-105 0 -183.5 -33.5t-137 -107.5t-88 -200t-29.5 -302q0 -95 13.5 -183.5t45.5 -173.5t81 -147.5t125.5 -100.5t172.5 -38 q101 0 185 45t140 113t111 169l4 4v-225q-162 -242 -440 -242q-91 0 -168.5 23.5t-135 65t-104 100.5t-77 127t-50.5 147t-29 158.5t-9 163.5z" />
<glyph unicode="D" horiz-adv-x="1366" d="M180 0v1520h420q327 0 491 -174t164 -545q0 -118 -18 -225t-65.5 -214.5t-120 -185.5t-192 -127t-271.5 -49h-408zM315 135h277q128 0 225 43.5t153 110t91.5 159.5t47 178t11.5 179q0 288 -122.5 427.5t-370.5 139.5h-312v-1237z" />
<glyph unicode="E" horiz-adv-x="1138" d="M180 0v1520h842v-148h-707v-545h707v-135h-707v-557h707v-135h-842z" />
<glyph unicode="F" horiz-adv-x="1138" d="M180 0v1520h885v-148h-750v-545h740v-135h-740v-692h-135z" />
<glyph unicode="G" d="M111 760q0 144 21.5 262t56.5 197.5t85 140t100.5 94.5t109.5 55.5t105.5 28t94.5 6.5q44 0 91.5 -8t107 -27.5t117.5 -62t100 -103.5v-188q-164 242 -416 242q-105 0 -183.5 -33.5t-137 -107.5t-88 -200t-29.5 -302q0 -95 13.5 -183.5t45.5 -173.5t81 -147.5 t125.5 -100.5t172.5 -38q92 0 164.5 25t134.5 89v539h135v-578q-78 -102 -189.5 -156.5t-244.5 -54.5q-91 0 -168.5 23.5t-135 65t-104 100.5t-77 127t-50.5 147t-29 158.5t-9 163.5z" />
<glyph unicode="H" horiz-adv-x="1366" d="M180 0v1520h135v-693h736v693h135v-1520h-135v692h-736v-692h-135z" />
<glyph unicode="I" horiz-adv-x="454" d="M160 0v1520h135v-1520h-135z" />
<glyph unicode="J" horiz-adv-x="909" d="M20 109v172q140 -170 320 -170q135 0 194.5 64t59.5 235v1110h135v-1123q0 -200 -95 -311t-288 -111q-192 0 -326 134z" />
<glyph unicode="K" horiz-adv-x="1138" d="M180 0v1520h135v-719h4l603 719h188l-645 -752l653 -768h-188l-611 735h-4v-735h-135z" />
<glyph unicode="L" horiz-adv-x="909" d="M180 0v1520h135v-1385h578v-135h-713z" />
<glyph unicode="M" horiz-adv-x="1705" d="M182 0v1520h217l455 -1385h4l449 1385h217v-1520h-135v1327h-5l-444 -1327h-174l-444 1327h-5v-1327h-135z" />
<glyph unicode="N" horiz-adv-x="1478" d="M184 0v1520h217l754 -1315h4v1315h135v-1520h-168l-802 1384h-5v-1384h-135z" />
<glyph unicode="O" horiz-adv-x="1366" d="M111 760q0 144 21.5 262t56.5 197.5t85 140t100.5 94.5t109.5 55.5t105.5 28t94.5 6.5t94 -6.5t105 -28t109 -55.5t100 -94.5t85 -140t56.5 -198t21.5 -261.5q0 -120 -17.5 -228.5t-59.5 -212t-106 -178.5t-163.5 -120.5t-224.5 -45.5q-91 0 -168.5 23.5t-135 65 t-104 100.5t-77 127t-50.5 147t-29 158.5t-9 163.5zM246 754q0 -95 13.5 -183.5t45.5 -173.5t81 -147.5t125.5 -100.5t172.5 -38q95 0 171.5 38t125 100.5t80.5 147.5t45.5 173.5t13.5 183.5q0 176 -29.5 302t-87.5 200t-136.5 107.5t-182.5 33.5q-105 0 -183.5 -33.5 t-137 -107.5t-88 -200t-29.5 -302z" />
<glyph unicode="P" d="M180 0v1516l2 4h436q292 0 421.5 -119.5t129.5 -343.5q0 -102 -28 -186.5t-75.5 -141.5t-112.5 -96t-137.5 -56.5t-151.5 -17.5h-349v-559h-135zM315 694h336q64 0 119.5 12t104.5 39.5t84 68.5t55 102.5t20 138.5q0 317 -391 317h-328v-678z" />
<glyph unicode="Q" horiz-adv-x="1366" d="M111 760q0 144 21.5 262t56.5 197.5t85 140t100.5 94.5t109.5 55.5t105.5 28t94.5 6.5t94 -6.5t105 -28t109 -55.5t100 -94.5t85 -140t56.5 -198t21.5 -261.5q0 -203 -52 -375t-165 -274l209 -213h-172l-137 139q-111 -62 -254 -62q-91 0 -168.5 23.5t-135 65t-104 100.5 t-77 127t-50.5 147t-29 158.5t-9 163.5zM246 754q0 -95 13.5 -183.5t45.5 -173.5t81 -147.5t125.5 -100.5t172.5 -38q88 0 152 30l-283 283h180l209 -213q92 88 135 233t43 310q0 176 -29.5 302t-87.5 200t-136.5 107.5t-182.5 33.5q-105 0 -183.5 -33.5t-137 -107.5 t-88 -200t-29.5 -302z" />
<glyph unicode="R" d="M180 0v1520h459q91 0 163.5 -10.5t141.5 -38t115.5 -73t74 -119t27.5 -171.5q0 -95 -29.5 -170t-77.5 -121.5t-114 -76.5t-132.5 -42t-139.5 -12h-138l658 -686h-197l-676 735v-735h-135zM315 809h328q64 0 116 7t103.5 26t86 49.5t56 82t21.5 120.5q0 142 -79 210 t-275 68h-357v-563z" />
<glyph unicode="S" horiz-adv-x="1024" d="M76 1139q0 126 62 220t159.5 139.5t214.5 45.5q220 0 403 -155v-209q-68 96 -174.5 156.5t-228.5 60.5q-121 0 -211 -76t-90 -195q0 -69 25 -119t68 -79.5t98 -50.5t116.5 -37t122.5 -34.5t116 -48.5t98 -72.5t68 -113t25 -163.5q0 -103 -41.5 -188.5t-107 -137 t-140.5 -79.5t-147 -28q-243 0 -401 175v196q139 -235 401 -235q118 0 209.5 87t91.5 222q0 69 -25 119t-68 79t-98 50t-116 37t-122.5 34.5t-116.5 49t-98 73t-68 113t-25 164.5z" />
<glyph unicode="T" horiz-adv-x="1024" d="M18 1372v148h988v-148h-426v-1372h-136v1372h-426z" />
<glyph unicode="U" horiz-adv-x="1366" d="M172 510v1010h135v-990q0 -99 17.5 -172t59 -130.5t116.5 -87t184 -29.5q108 0 182.5 29.5t116 87t59 130.5t17.5 172v990h135v-1010q0 -535 -510 -535q-512 0 -512 535z" />
<glyph unicode="V" d="M20 1520h162l441 -1360h4l446 1360h158l-516 -1520h-187z" />
<glyph unicode="W" horiz-adv-x="1820" d="M33 1520h151l334 -1385h4l291 1385h195l264 -1385h4l360 1385h152l-418 -1520h-201l-262 1360h-4l-282 -1360h-195z" />
<glyph unicode="X" horiz-adv-x="1138" d="M25 0l450 760l-442 760h172l364 -654l365 654h172l-442 -760l450 -760h-172l-373 653l-372 -653h-172z" />
<glyph unicode="Y" horiz-adv-x="1138" d="M29 1520h155l385 -838l385 838h156l-473 -981v-539h-135v539z" />
<glyph unicode="Z" horiz-adv-x="1024" d="M61 0v188l754 1184h-737v148h885v-193l-766 -1192h766v-135h-902z" />
<glyph unicode="[" horiz-adv-x="569" d="M139 0v1520h291v-136h-156v-1261h156v-123h-291z" />
<glyph unicode="\" horiz-adv-x="909" d="M16 1487l115 57l762 -1511l-115 -58z" />
<glyph unicode="]" horiz-adv-x="569" d="M139 0v123h156v1261h-156v136h291v-1520h-291z" />
<glyph unicode="^" horiz-adv-x="1228" d="M102 633l447 887h131l446 -887h-143l-369 739l-366 -739h-146z" />
<glyph unicode="_" horiz-adv-x="1024" d="M0 -154h1024v-102h-1024v102z" />
<glyph unicode="`" horiz-adv-x="454" d="M74 1624h180l127 -278h-123z" />
<glyph unicode="a" horiz-adv-x="1024" d="M78 293q0 60 10.5 106.5t36.5 82.5t57.5 62t86 49.5t109 41t138.5 39.5q146 38 190 78.5t44 134.5q0 105 -63.5 157t-174.5 52q-68 0 -122 -14.5t-101 -47.5t-82.5 -69t-83.5 -95v179q0 2 2 4q102 112 195.5 151t207.5 39q71 0 131.5 -17.5t113 -55.5t82.5 -108.5 t30 -166.5v-895h-123v190h-4q-66 -113 -160.5 -164t-222.5 -51q-127 0 -212 93.5t-85 224.5zM213 319q0 -208 213 -208q65 0 116 20t84.5 51t57.5 80.5t36.5 94t19.5 108t8.5 107t1.5 104.5h-5q-29 -44 -95.5 -76t-138.5 -52t-140.5 -45t-113 -71t-44.5 -113z" />
<glyph unicode="b" d="M158 0v1624h147v-629h4q61 111 162 179.5t221 68.5q60 0 116.5 -12t124 -52t116.5 -104t82.5 -179t33.5 -267q0 -96 -18 -188t-57 -177t-95 -149t-139 -102t-182 -38q-132 0 -241 64t-148 176h-4v-215h-123zM291 582q0 -105 20 -188t62.5 -148t114.5 -100t171 -35 q80 0 144.5 32.5t106 85t69.5 122t39.5 140t11.5 142.5q0 73 -10 136.5t-34.5 125t-63 105t-99.5 70t-139 26.5q-91 0 -161.5 -30.5t-113.5 -79t-70 -117.5t-37.5 -138.5t-10.5 -148.5z" />
<glyph unicode="c" horiz-adv-x="1024" d="M86 584q0 203 53 348.5t168.5 228t286.5 82.5q122 0 207.5 -35t175.5 -121v-235q-59 113 -158 178.5t-225 65.5q-90 0 -157 -27t-116.5 -86.5t-74.5 -159t-25 -239.5q0 -98 22.5 -182t67.5 -150t119 -103.5t170 -37.5q104 0 221 74t156 182v-203q-84 -108 -173 -148.5 t-206 -40.5q-111 0 -200.5 37.5t-146.5 98t-95 142t-54 163.5t-16 168z" />
<glyph unicode="d" d="M86 629q0 152 33.5 267t82.5 179t116.5 104t124 52t116.5 12q120 0 221 -68.5t162 -179.5h4v629h148v-1624h-123v215h-4q-39 -112 -148 -176t-241 -64q-99 0 -182 38t-139.5 102t-95.5 149t-57 177t-18 188zM221 633q0 -72 11.5 -142.5t39.5 -140t69.5 -122t106 -85 t144.5 -32.5q99 0 171.5 35t115 100t62.5 148t20 188q0 79 -10.5 148.5t-38 138.5t-70.5 117.5t-113.5 79t-161.5 30.5q-78 0 -139 -26.5t-99.5 -70t-63 -105t-34.5 -125t-10 -136.5z" />
<glyph unicode="e" horiz-adv-x="1138" d="M78 596q0 105 16 196t53.5 175.5t95.5 144.5t147.5 95.5t203.5 35.5q68 0 127.5 -12.5t124 -50.5t110 -99t75.5 -167t30 -246v-86h-848q0 -109 20 -192t65 -147.5t123.5 -98t188.5 -33.5q133 0 236.5 62.5t163.5 180.5v-200q-48 -61 -103.5 -100.5t-115.5 -55t-99 -19.5 t-94 -4q-113 0 -202.5 33t-148 90t-97.5 137t-55.5 169t-16.5 192zM213 705h725q0 80 -20 148t-61 123.5t-110.5 87.5t-160.5 32q-94 0 -160 -25t-108.5 -77.5t-66 -121t-38.5 -167.5z" />
<glyph unicode="f" horiz-adv-x="796" d="M-35 922v135h189v153q0 113 39 205.5t121.5 150.5t197.5 58q75 0 130 -19.5t116 -66.5v-174q-49 64 -99.5 88.5t-132.5 24.5q-225 0 -225 -285v-135h457v-135h-457v-922h-147v922h-189z" />
<glyph unicode="g" d="M100 662q0 121 28.5 224t86 184t153 127t220.5 46q128 0 225.5 -53.5t144.5 -165.5h5v195h135v-1063q0 -92 -29 -171.5t-86.5 -143t-152.5 -100t-218 -36.5q-132 0 -234.5 31.5t-189.5 111.5v168q78 -96 178.5 -136t231.5 -40q106 0 178.5 26t113 80t57 124.5t16.5 169.5 v112h-5q-53 -121 -153.5 -181t-237.5 -60q-115 0 -206 44.5t-147 121.5t-85 175t-29 210zM236 676q0 -94 19 -169.5t60 -135.5t113 -92.5t170 -32.5q92 0 163.5 35.5t114 96.5t64 136.5t21.5 161.5q0 201 -89.5 310.5t-273.5 109.5q-99 0 -171 -32t-112.5 -90.5t-59.5 -132 t-19 -165.5z" />
<glyph unicode="h" d="M162 0v1624h147v-625h4q122 244 400 244q78 0 139.5 -20.5t100.5 -49t66.5 -77t41 -87t20.5 -97t8 -88.5t1 -79v-745h-148v756q0 37 -1 62t-6.5 63.5t-15 65.5t-29 57t-46 48.5t-67.5 31t-93 12.5q-99 0 -173 -36t-117 -100t-64 -143.5t-21 -175.5v-641h-147z" />
<glyph unicode="i" horiz-adv-x="454" d="M154 0v1219h147v-1219h-147zM154 1407v217h147v-217h-147z" />
<glyph unicode="j" horiz-adv-x="454" d="M-193 -100q77 -60 160 -60q110 0 148.5 54.5t38.5 171.5v1153h147v-1149q0 -60 -7.5 -110t-28.5 -98.5t-54.5 -82t-90 -54t-130.5 -20.5q-95 0 -183 43v152zM154 1407v217h147v-217h-147z" />
<glyph unicode="k" horiz-adv-x="1024" d="M154 0v1624h147v-983l494 578h182l-528 -588l565 -631h-197l-516 592v-592h-147z" />
<glyph unicode="l" horiz-adv-x="454" d="M154 0v1624h147v-1624h-147z" />
<glyph unicode="m" horiz-adv-x="1933" d="M160 0v1219h135v-215h4q60 122 146.5 180.5t220.5 58.5q136 0 226.5 -69t121.5 -195l4 -4q54 125 151.5 196.5t227.5 71.5q61 0 112 -12.5t87.5 -31.5t65.5 -50t47.5 -59t31.5 -68.5t19 -69t9.5 -69t4 -59.5t0.5 -50v-774h-148v741q0 45 -0.5 71t-5.5 68.5t-14.5 68 t-28 57t-45 49t-67.5 29.5t-93 12q-65 0 -123.5 -25t-106 -73.5t-75 -127.5t-27.5 -178v-692h-147v741q0 45 -0.5 71t-5.5 68.5t-14.5 68t-28 57t-45 49t-67.5 29.5t-93 12q-65 0 -123.5 -25t-106 -73.5t-75 -127.5t-27.5 -178v-692h-147z" />
<glyph unicode="n" d="M162 0v1219h135v-240h4q123 264 412 264q78 0 139.5 -20.5t100.5 -49t66.5 -77t41 -87t20.5 -97t8 -88.5t1 -79v-745h-148v756q0 37 -1 62t-6.5 63.5t-15 65.5t-29 57t-46 48.5t-67.5 31t-93 12.5q-99 0 -173 -36t-117 -100t-64 -143.5t-21 -175.5v-641h-147z" />
<glyph unicode="o" d="M86 608q0 149 33 263.5t85 183.5t125 112.5t144 59.5t152 16q66 0 126.5 -11.5t123 -38t113 -75t91 -116t62.5 -168.5t22 -226q0 -96 -15.5 -182.5t-54.5 -170.5t-98.5 -145t-154.5 -98t-215 -37t-215 37t-155 98t-99 145t-54.5 170.5t-15.5 182.5zM221 604 q0 -237 99 -365t305 -128t304.5 128t98.5 365q0 46 -2 82.5t-11 90t-25 94t-46 85t-71.5 73.5t-105 48t-142.5 19t-142.5 -19t-105 -48t-72 -73t-46.5 -85.5t-25 -94.5t-11 -90t-2 -82z" />
<glyph unicode="p" d="M158 -295v1514h135v-265h4q51 136 159 212.5t236 76.5q60 0 116.5 -12t124 -52t116.5 -104t82.5 -179t33.5 -267q0 -80 -12 -157t-36.5 -151.5t-65 -136.5t-93.5 -109t-126 -73.5t-158 -26.5q-257 0 -365 234h-4v-504h-147zM291 582q0 -105 20 -188t62.5 -148t114.5 -100 t171 -35q80 0 144.5 32.5t106 85t69.5 122t39.5 140t11.5 142.5q0 73 -10 136.5t-34.5 125t-63 105t-99.5 70t-139 26.5q-91 0 -161.5 -30.5t-113.5 -79t-70 -117.5t-37.5 -138.5t-10.5 -148.5z" />
<glyph unicode="q" d="M86 629q0 152 33.5 267t82.5 179t116.5 104t124 52t116.5 12q125 0 231 -76.5t164 -212.5h4v265h136v-1514h-148v504h-4q-39 -112 -136.5 -173t-227.5 -61q-99 0 -182 38t-139.5 102t-95.5 149t-57 177t-18 188zM221 633q0 -72 11.5 -142.5t39.5 -140t69.5 -122t106 -85 t144.5 -32.5q99 0 171.5 35t115 100t62.5 148t20 188q0 79 -10.5 148.5t-38 138.5t-70.5 117.5t-113.5 79t-161.5 30.5q-78 0 -139 -26.5t-99.5 -70t-63 -105t-34.5 -125t-10 -136.5z" />
<glyph unicode="r" horiz-adv-x="796" d="M154 0v1219h135v-252h4q14 47 29 83t38.5 74.5t51.5 63t69 40t90 15.5q111 0 193 -74v-174q-31 45 -84 73t-111 28q-146 0 -207 -144.5t-61 -445.5v-506h-147z" />
<glyph unicode="s" horiz-adv-x="909" d="M82 883q0 169 110 264.5t281 95.5q201 0 322 -135v-203q-71 97 -146.5 144t-185.5 47q-114 0 -180 -56.5t-66 -162.5q0 -65 31 -106t110 -60l199 -49q141 -36 205.5 -108.5t64.5 -221.5q0 -156 -110 -256.5t-266 -100.5q-102 0 -192 42.5t-153 105.5v178q57 -88 144 -139 t188 -51q110 0 182 61t72 168q0 86 -46 126.5t-157 68.5l-157 38q-128 32 -189 104.5t-61 205.5z" />
<glyph unicode="t" horiz-adv-x="796" d="M16 1057v102q62 3 110.5 28.5t78.5 62t52 90.5t32.5 99.5t19.5 104.5h86l-28 -352h413v-135h-432v-715q0 -49 6.5 -86.5t23.5 -72t52 -53.5t86 -19q77 0 145 43.5t109 113.5v-170q-90 -123 -266 -123q-132 0 -217.5 86.5t-85.5 233.5v762h-185z" />
<glyph unicode="u" d="M162 473v746h147v-756q0 -37 1 -62t6.5 -63.5t15 -65.5t29 -57t46 -48.5t67.5 -31t93 -12.5q99 0 173 36t117 100t64 143.5t21 175.5v641h148v-1219h-136v240h-4q-123 -265 -411 -265q-78 0 -139.5 20.5t-100.5 49t-66.5 77t-41 87t-20.5 97t-8 88.5t-1 79z" />
<glyph unicode="v" horiz-adv-x="1024" d="M16 1219h156l338 -1096h4l338 1096h156l-394 -1219h-204z" />
<glyph unicode="w" horiz-adv-x="1593" d="M47 1219h148l276 -1108h4l227 1108h189l227 -1108h4l277 1108h147l-336 -1219h-188l-223 1096h-4l-224 -1096h-188z" />
<glyph unicode="x" horiz-adv-x="1024" d="M14 0l412 618l-391 601h176l301 -500l301 500h176l-391 -601l412 -618h-181l-317 522l-317 -522h-181z" />
<glyph unicode="y" horiz-adv-x="1024" d="M25 1219h165l342 -990h5l309 990h153l-499 -1514h-154l123 365z" />
<glyph unicode="z" horiz-adv-x="1024" d="M111 0v170l653 901h-617v148h764v-172l-653 -900h655v-147h-802z" />
<glyph unicode="{" horiz-adv-x="569" d="M41 717v86q77 0 119.5 64t42.5 161v285q0 95 57.5 151t142.5 56h125v-86h-100q-46 0 -68 -45t-22 -109v-279q0 -58 -19.5 -105t-48.5 -74t-52.5 -41t-41.5 -19v-4q18 -5 41.5 -19.5t52.5 -41t48.5 -74t19.5 -105.5v-278q0 -64 22 -109t68 -45h100v-86h-125 q-85 0 -142.5 56t-57.5 151v285q0 97 -42.5 161t-119.5 64z" />
<glyph unicode="|" horiz-adv-x="454" d="M160 -512v2048h135v-2048h-135z" />
<glyph unicode="}" horiz-adv-x="569" d="M41 0v86h100q46 0 68 45t22 109v278q0 58 19.5 105.5t48.5 74t52.5 41t41.5 19.5v4q-18 5 -41.5 19t-52.5 41t-48.5 74t-19.5 105v279q0 64 -22 109t-68 45h-100v86h125q85 0 143 -56t58 -151v-285q0 -97 42.5 -161t118.5 -64v-86q-76 0 -118.5 -64t-42.5 -161v-285 q0 -95 -58 -151t-143 -56h-125z" />
<glyph unicode="~" horiz-adv-x="1228" d="M141 477q93 178 256 178q53 0 103.5 -16t124.5 -49q6 -3 24.5 -11.5t24.5 -11.5t22 -10t23 -10t21 -8.5t21.5 -8t19 -6t19.5 -5t17 -2.5t17 -1q29 0 54.5 11t50.5 36.5t37 41.5t38 52l73 -100q-23 -32 -38.5 -52t-41 -46.5t-49.5 -41t-57 -25.5t-70 -11q-86 0 -208 70 q-44 26 -104.5 47.5t-110.5 21.5q-72 0 -110 -30t-83 -111z" />
<glyph unicode="&#xa1;" horiz-adv-x="569" d="M199 -276l24 1128h123l25 -1128h-172zM211 1038v205h147v-205h-147z" />
<glyph unicode="&#xa2;" horiz-adv-x="1138" d="M123 584q0 203 53 348.5t168.5 228t286.5 82.5q59 0 121 -10l57 203l98 -27l-57 -207q73 -31 164 -115v-235q-72 142 -205 205l-262 -936q45 -10 90 -10q104 0 221 74t156 182v-203q-84 -108 -173 -148.5t-206 -40.5q-69 0 -125 15l-57 -207l-101 24l60 216 q-77 37 -134.5 101t-90.5 141t-48.5 157t-15.5 162zM258 584q0 -144 48.5 -256.5t144.5 -167.5l260 927q-41 9 -80 9q-90 0 -157 -27t-116.5 -86.5t-74.5 -159t-25 -239.5z" />
<glyph unicode="&#xa3;" horiz-adv-x="1138" d="M143 623v110h99q-26 95 -37 137.5t-24 119t-13 140.5q0 99 37 179t101 130.5t147 77.5t178 27q102 0 198.5 -47.5t206.5 -167.5v-233q-149 301 -407 301q-159 0 -236.5 -85t-77.5 -243q0 -42 11 -95.5t29.5 -126t27.5 -114.5h426v-110h-399q18 -111 18 -185 q0 -173 -111 -293l5 -4q75 41 159 41q54 0 174 -35q106 -36 156 -36q78 0 152 39t118 104v-193q-143 -86 -276 -86q-51 0 -172 37q-9 2 -34 9.5t-37 10.5t-31.5 7t-34.5 6t-29 2q-107 0 -240 -72l-75 156q85 59 113 123t28 172q0 58 -21 197h-129z" />
<glyph unicode="&#xa4;" horiz-adv-x="1138" d="M55 293l117 117q-111 114 -111 307t111 307l-117 117l90 90l115 -115q62 53 143.5 81t165.5 28t166 -28t144 -81l114 115l90 -90l-116 -117q110 -113 110 -307t-110 -307l116 -117l-90 -90l-114 114q-61 -53 -143.5 -80.5t-166.5 -27.5t-166 27.5t-143 80.5l-115 -114z M197 717q2 -158 111 -271.5t261 -113.5t261.5 113.5t111.5 271.5q-2 158 -111.5 271.5t-261.5 113.5t-261 -113.5t-111 -271.5z" />
<glyph unicode="&#xa5;" horiz-adv-x="1138" d="M29 1520h155l385 -838l385 838h156l-405 -842h204v-98h-252l-20 -41v-136h272v-98h-272v-305h-135v305h-285v98h285v136l-21 41h-264v98h217z" />
<glyph unicode="&#xa6;" horiz-adv-x="454" d="M160 358h135v-716h-135v716zM160 666v716h135v-716h-135z" />
<glyph unicode="&#xa7;" horiz-adv-x="1138" d="M180 68q150 -228 369 -228q90 0 162.5 55.5t72.5 141.5q0 56 -26 97.5t-68.5 65t-96.5 45t-111 37t-111 42t-96.5 59t-68.5 89t-26 130.5q0 91 50 170t180 150q-113 38 -167.5 104t-54.5 174q0 153 103 248.5t256 95.5q199 0 368 -176v-213q-142 242 -370 242 q-95 0 -158 -50t-63 -139q0 -42 21.5 -74t58.5 -53.5t84.5 -39.5t100 -35.5t105 -37t100 -49t84.5 -66.5t58.5 -94t21.5 -128q0 -106 -63.5 -190t-163.5 -122q106 -47 153.5 -111.5t47.5 -168.5q0 -158 -108 -246t-277 -88q-193 0 -367 166v197zM315 623q0 -76 41 -123.5 t150 -89.5l127 -50q203 89 203 256q0 101 -51.5 151t-209.5 99l-63 21q-197 -99 -197 -264z" />
<glyph unicode="&#xa8;" horiz-adv-x="454" d="M-23 1411v188h148v-188h-148zM330 1411v188h147v-188h-147z" />
<glyph unicode="&#xa9;" horiz-adv-x="1638" d="M35 760q0 160 62 305t167 250t250 167t305 62t305.5 -62t250.5 -167t167 -250t62 -305t-62 -305.5t-167 -250.5t-250.5 -167t-305.5 -62t-305 62t-250 167t-167 250.5t-62 305.5zM182 760q0 -183 84.5 -335t231 -239.5t321.5 -87.5t321.5 87.5t231 239.5t84.5 335 q0 137 -50 259.5t-135 210.5t-203 139.5t-249 51.5t-249 -51.5t-203 -139.5t-135 -210.5t-50 -259.5zM379 760q0 217 126 352t343 135q151 0 258.5 -85.5t130.5 -239.5h-135q-19 90 -88 146t-166 56q-153 0 -237.5 -100.5t-84.5 -263.5t84.5 -264t237.5 -101q100 0 169.5 60 t84.5 155h135q-32 -153 -138.5 -245.5t-250.5 -92.5q-217 0 -343 135.5t-126 352.5z" />
<glyph unicode="&#xaa;" horiz-adv-x="665" d="M47 975q0 78 35.5 128t124.5 75l88 26q97 29 133.5 53t36.5 72q0 51 -40.5 78t-107.5 27q-70 0 -123.5 -30.5t-117.5 -92.5v116q0 3 2 3q67 68 128 91t138 23q48 0 88.5 -10.5t75.5 -33t54.5 -65t19.5 -100.5v-538h-111v116h-4q-69 -129 -219 -129q-89 0 -145 55.5 t-56 135.5zM145 983q0 -41 34 -70.5t93 -29.5q46 0 81 15t55.5 42.5t34 56.5t19.5 68.5t7.5 66t1.5 60.5h-4q-20 -34 -137 -76l-88 -31q-52 -19 -74.5 -42t-22.5 -60z" />
<glyph unicode="&#xab;" horiz-adv-x="796" d="M41 653l238 379h143l-223 -379l223 -379h-143zM375 653l237 379h144l-224 -379l224 -379h-144z" />
<glyph unicode="&#xac;" horiz-adv-x="1228" d="M98 655v136h1032v-570h-135v434h-897z" />
<glyph unicode="&#xad;" horiz-adv-x="796" d="M162 586v135h473v-135h-473z" />
<glyph unicode="&#xae;" horiz-adv-x="1638" d="M35 760q0 160 62 305t167 250t250 167t305 62t305.5 -62t250.5 -167t167 -250t62 -305t-62 -305.5t-167 -250.5t-250.5 -167t-305.5 -62t-305 62t-250 167t-167 250.5t-62 305.5zM182 760q0 -183 84.5 -335t231 -239.5t321.5 -87.5t321.5 87.5t231 239.5t84.5 335 q0 137 -50 259.5t-135 210.5t-203 139.5t-249 51.5t-249 -51.5t-203 -139.5t-135 -210.5t-50 -259.5zM520 303v914h348q318 0 318 -259q0 -116 -65.5 -176t-172.5 -71l264 -408h-145l-248 404h-164v-404h-135zM655 817h154q44 0 74 2t64.5 10.5t55 24.5t34.5 44.5t14 68.5 q0 139 -207 139h-189v-289z" />
<glyph unicode="&#xaf;" horiz-adv-x="454" d="M-51 1446v123h557v-123h-557z" />
<glyph unicode="&#xb0;" horiz-adv-x="819" d="M117 1251q0 121 85.5 207t207.5 86q121 0 206.5 -85.5t85.5 -207.5t-85.5 -207.5t-206.5 -85.5q-122 0 -207.5 86t-85.5 207zM215 1251q0 -79 57.5 -136.5t137.5 -57.5t137 57.5t57 136.5q0 80 -57.5 137.5t-136.5 57.5q-80 0 -137.5 -58t-57.5 -137z" />
<glyph unicode="&#xb1;" horiz-adv-x="1228" d="M98 0v135h1032v-135h-1032zM98 578v135h449v323h135v-323h448v-135h-448v-324h-135v324h-449z" />
<glyph unicode="&#xb2;" horiz-adv-x="739" d="M78 623v110l147 131q192 170 253 249t61 155t-43.5 121t-130.5 45q-86 0 -160 -58.5t-127 -144.5v158q45 65 121.5 110t179.5 45q125 0 204 -75t79 -181q0 -47 -20.5 -97t-49 -90.5t-75 -89t-82 -79.5t-87.5 -74l-147 -121v-4h454v-110h-577z" />
<glyph unicode="&#xb3;" horiz-adv-x="739" d="M78 705v133q117 -117 256 -117q95 0 150 56.5t55 137.5q0 79 -68.5 122.5t-155.5 43.5q-91 0 -159 -30v112l360 254v4h-438v111h561v-135l-348 -238l4 -2q34 10 86 10q55 0 103.5 -14.5t89.5 -43.5t64.5 -80t23.5 -118q0 -132 -86 -216.5t-226 -84.5q-96 0 -154 19.5 t-118 75.5z" />
<glyph unicode="&#xb4;" horiz-adv-x="454" d="M74 1346l127 278h180l-184 -278h-123z" />
<glyph unicode="&#xb5;" d="M162 -295v1514h147v-756q0 -37 1 -62t6.5 -63.5t15 -65.5t29 -57t46 -48.5t67.5 -31t93 -12.5q99 0 173 36t117 100t64 143.5t21 175.5v641h148v-1219h-136v240h-4q-123 -265 -411 -265q-153 0 -230 86v-356h-147z" />
<glyph unicode="&#xb6;" horiz-adv-x="1228" d="M98 1126q0 195 123 294.5t344 99.5h488v-1815h-135v1692h-254v-1692h-136v1040q-187 0 -308.5 109.5t-121.5 271.5z" />
<glyph unicode="&#xb7;" horiz-adv-x="569" d="M176 651q0 44 32.5 76.5t76.5 32.5t76 -32.5t32 -76.5t-32 -76t-76 -32t-76.5 32t-32.5 76z" />
<glyph unicode="&#xb8;" horiz-adv-x="454" d="M106 -223l117 229h125l-74 -229h-168z" />
<glyph unicode="&#xb9;" horiz-adv-x="739" d="M123 1110v137l315 285h107v-909h-123v761z" />
<glyph unicode="&#xba;" horiz-adv-x="815" d="M55 1163q0 59 10.5 111.5t36 103t64.5 86.5t101 58t141 22q98 0 169 -32.5t109.5 -89t56 -120.5t17.5 -139t-17.5 -138.5t-56 -119.5t-109.5 -88.5t-169 -32.5t-169.5 32.5t-110 88.5t-56 119.5t-17.5 138.5zM166 1163q0 -124 61 -202t181 -78t180.5 77.5t60.5 202.5 q0 123 -60.5 197t-180.5 74t-181 -74t-61 -197z" />
<glyph unicode="&#xbb;" horiz-adv-x="796" d="M41 274l223 379l-223 379h143l238 -379l-238 -379h-143zM375 274l223 379l-223 379h143l238 -379l-238 -379h-143z" />
<glyph unicode="&#xbc;" horiz-adv-x="1708" d="M98 1110v137l316 285h106v-909h-123v761zM315 -12l899 1544h127l-899 -1544h-127zM924 184v156l387 569h180v-614h119v-111h-119v-184h-123v184h-444zM1022 295h346v541h-4z" />
<glyph unicode="&#xbd;" horiz-adv-x="1708" d="M98 1110v137l316 285h106v-909h-123v761zM315 -12l899 1544h127l-899 -1544h-127zM1026 0v111l148 131q192 170 252.5 248.5t60.5 154.5t-43.5 121t-130.5 45q-86 0 -160 -58.5t-127 -144.5v158q45 65 121.5 110.5t179.5 45.5q125 0 204 -75t79 -181q0 -47 -20.5 -97 t-49 -90.5t-75 -89t-82 -79.5t-87.5 -74l-147 -121v-4h455v-111h-578z" />
<glyph unicode="&#xbe;" horiz-adv-x="1708" d="M98 705v133q117 -117 256 -117q95 0 150 56.5t55 137.5q0 79 -68 122.5t-155 43.5q-92 0 -160 -30v112l361 254v4h-439v111h561v-135l-348 -238l4 -2q34 10 86 10q55 0 103.5 -14.5t89.5 -43.5t64.5 -80t23.5 -118q0 -132 -85.5 -216.5t-225.5 -84.5q-96 0 -154.5 19.5 t-118.5 75.5zM381 -12l899 1544h127l-899 -1544h-127zM924 184v156l387 569h180v-614h119v-111h-119v-184h-123v184h-444zM1022 295h346v541h-4z" />
<glyph unicode="&#xbf;" horiz-adv-x="1138" d="M188 74q0 65 22 124t57.5 105.5t78 91.5t85 88t78 87.5t57.5 99t22 112.5v76h110v-113q0 -60 -20.5 -116t-53.5 -101t-73 -88t-80 -85t-73 -84t-53.5 -92t-20.5 -103q0 -104 68.5 -163.5t176.5 -59.5q247 0 410 286l4 4v-221q-65 -99 -169.5 -158t-227.5 -59 q-177 0 -287.5 96.5t-110.5 272.5zM563 1038v205h148v-205h-148z" />
<glyph unicode="&#xc0;" d="M18 0l510 1520h189l516 -1520h-152l-166 510h-581l-164 -510h-152zM375 633h499l-249 776h-4zM412 1851h180l127 -278h-123z" />
<glyph unicode="&#xc1;" d="M18 0l510 1520h189l516 -1520h-152l-166 510h-581l-164 -510h-152zM375 633h499l-249 776h-4zM535 1573l127 278h180l-185 -278h-122z" />
<glyph unicode="&#xc2;" d="M18 0l510 1520h189l516 -1520h-152l-166 510h-581l-164 -510h-152zM354 1573l176 278h193l176 -278h-123l-149 192l-150 -192h-123zM375 633h499l-249 776h-4z" />
<glyph unicode="&#xc3;" d="M18 0l510 1520h189l516 -1520h-152l-166 510h-581l-164 -510h-152zM375 633h499l-249 776h-4zM399 1659v145q56 47 109 47q51 0 116 -31.5t105 -31.5q42 0 70 15.5t55 47.5v-145q-53 -59 -135 -59q-30 0 -101.5 34.5t-105.5 34.5q-64 0 -113 -57z" />
<glyph unicode="&#xc4;" d="M18 0l510 1520h189l516 -1520h-152l-166 510h-581l-164 -510h-152zM375 633h499l-249 776h-4zM377 1638v189h147v-189h-147zM729 1638v189h148v-189h-148z" />
<glyph unicode="&#xc5;" d="M18 0l510 1520h189l516 -1520h-152l-166 510h-581l-164 -510h-152zM375 633h499l-249 776h-4zM438 1769q0 78 55.5 133.5t133.5 55.5t133 -55.5t55 -133.5t-55 -133t-133 -55t-133.5 55t-55.5 133zM512 1769q0 -47 34 -80.5t81 -33.5t80.5 33.5t33.5 80.5t-33.5 81 t-80.5 34t-81 -34t-34 -81z" />
<glyph unicode="&#xc6;" horiz-adv-x="2048" d="M18 0l906 1520h985v-148h-742v-545h742v-135h-742v-557h742v-135h-877v569h-518l-338 -569h-158zM588 692h444v742h-4z" />
<glyph unicode="&#xc7;" d="M111 760q0 144 21.5 262t56.5 197.5t85 140t100.5 94.5t109.5 55.5t105.5 28t94.5 6.5q290 0 440 -229v-225l-4 4q-61 137 -172 220t-264 83q-105 0 -183.5 -33.5t-137 -107.5t-88 -200t-29.5 -302q0 -95 13.5 -183.5t45.5 -173.5t81 -147.5t125.5 -100.5t172.5 -38 q101 0 185 45t140 113t111 169l4 4v-225q-146 -218 -387 -237l-63 -203h-168l102 203q-109 14 -195.5 65.5t-142 126.5t-92 173.5t-52 200.5t-15.5 214z" />
<glyph unicode="&#xc8;" horiz-adv-x="1138" d="M180 0v1520h842v-148h-707v-545h707v-135h-707v-557h707v-135h-842zM354 1851h181l127 -278h-123z" />
<glyph unicode="&#xc9;" horiz-adv-x="1138" d="M180 0v1520h842v-148h-707v-545h707v-135h-707v-557h707v-135h-842zM477 1573l127 278h180l-184 -278h-123z" />
<glyph unicode="&#xca;" horiz-adv-x="1138" d="M180 0v1520h842v-148h-707v-545h707v-135h-707v-557h707v-135h-842zM297 1573l176 278h193l176 -278h-123l-150 192l-149 -192h-123z" />
<glyph unicode="&#xcb;" horiz-adv-x="1138" d="M180 0v1520h842v-148h-707v-545h707v-135h-707v-557h707v-135h-842zM319 1638v189h148v-189h-148zM672 1638v189h147v-189h-147z" />
<glyph unicode="&#xcc;" horiz-adv-x="454" d="M12 1851h181l126 -278h-122zM160 0v1520h135v-1520h-135z" />
<glyph unicode="&#xcd;" horiz-adv-x="454" d="M135 1573l127 278h180l-184 -278h-123zM160 0v1520h135v-1520h-135z" />
<glyph unicode="&#xce;" horiz-adv-x="454" d="M-45 1573l176 278h193l176 -278h-123l-150 192l-149 -192h-123zM160 0v1520h135v-1520h-135z" />
<glyph unicode="&#xcf;" horiz-adv-x="454" d="M-23 1638v189h148v-189h-148zM160 0v1520h135v-1520h-135zM330 1638v189h147v-189h-147z" />
<glyph unicode="&#xd0;" horiz-adv-x="1366" d="M37 758v123h143v639h420q327 0 491 -174t164 -545q0 -118 -18 -225t-65.5 -214.5t-120 -185.5t-192 -127t-271.5 -49h-408v758h-143zM315 135h277q128 0 225 43.5t153 110t91.5 159.5t47 178t11.5 179q0 288 -122.5 427.5t-370.5 139.5h-312v-491h441v-123h-441v-623z " />
<glyph unicode="&#xd1;" horiz-adv-x="1478" d="M184 0v1520h217l754 -1315h4v1315h135v-1520h-168l-802 1384h-5v-1384h-135zM512 1659v145q56 47 109 47q51 0 116 -31.5t105 -31.5q42 0 70 15.5t55 47.5v-145q-24 -27 -61.5 -43t-74.5 -16q-30 0 -101 34.5t-105 34.5q-64 0 -113 -57z" />
<glyph unicode="&#xd2;" horiz-adv-x="1366" d="M111 760q0 144 21.5 262t56.5 197.5t85 140t100.5 94.5t109.5 55.5t105.5 28t94.5 6.5t94 -6.5t105 -28t109 -55.5t100 -94.5t85 -140t56.5 -198t21.5 -261.5q0 -120 -17.5 -228.5t-59.5 -212t-106 -178.5t-163.5 -120.5t-224.5 -45.5q-91 0 -168.5 23.5t-135 65 t-104 100.5t-77 127t-50.5 147t-29 158.5t-9 163.5zM246 754q0 -95 13.5 -183.5t45.5 -173.5t81 -147.5t125.5 -100.5t172.5 -38q95 0 171.5 38t125 100.5t80.5 147.5t45.5 173.5t13.5 183.5q0 176 -29.5 302t-87.5 200t-136.5 107.5t-182.5 33.5q-105 0 -183.5 -33.5 t-137 -107.5t-88 -200t-29.5 -302zM469 1870h180l127 -279h-123z" />
<glyph unicode="&#xd3;" horiz-adv-x="1366" d="M111 760q0 144 21.5 262t56.5 197.5t85 140t100.5 94.5t109.5 55.5t105.5 28t94.5 6.5t94 -6.5t105 -28t109 -55.5t100 -94.5t85 -140t56.5 -198t21.5 -261.5q0 -120 -17.5 -228.5t-59.5 -212t-106 -178.5t-163.5 -120.5t-224.5 -45.5q-91 0 -168.5 23.5t-135 65 t-104 100.5t-77 127t-50.5 147t-29 158.5t-9 163.5zM246 754q0 -95 13.5 -183.5t45.5 -173.5t81 -147.5t125.5 -100.5t172.5 -38q95 0 171.5 38t125 100.5t80.5 147.5t45.5 173.5t13.5 183.5q0 176 -29.5 302t-87.5 200t-136.5 107.5t-182.5 33.5q-105 0 -183.5 -33.5 t-137 -107.5t-88 -200t-29.5 -302zM592 1591l127 279h180l-184 -279h-123z" />
<glyph unicode="&#xd4;" horiz-adv-x="1366" d="M111 760q0 144 21.5 262t56.5 197.5t85 140t100.5 94.5t109.5 55.5t105.5 28t94.5 6.5t94 -6.5t105 -28t109 -55.5t100 -94.5t85 -140t56.5 -198t21.5 -261.5q0 -120 -17.5 -228.5t-59.5 -212t-106 -178.5t-163.5 -120.5t-224.5 -45.5q-91 0 -168.5 23.5t-135 65 t-104 100.5t-77 127t-50.5 147t-29 158.5t-9 163.5zM246 754q0 -95 13.5 -183.5t45.5 -173.5t81 -147.5t125.5 -100.5t172.5 -38q95 0 171.5 38t125 100.5t80.5 147.5t45.5 173.5t13.5 183.5q0 176 -29.5 302t-87.5 200t-136.5 107.5t-182.5 33.5q-105 0 -183.5 -33.5 t-137 -107.5t-88 -200t-29.5 -302zM412 1591l176 279h192l176 -279h-122l-150 193l-149 -193h-123z" />
<glyph unicode="&#xd5;" horiz-adv-x="1366" d="M111 760q0 144 21.5 262t56.5 197.5t85 140t100.5 94.5t109.5 55.5t105.5 28t94.5 6.5t94 -6.5t105 -28t109 -55.5t100 -94.5t85 -140t56.5 -198t21.5 -261.5q0 -120 -17.5 -228.5t-59.5 -212t-106 -178.5t-163.5 -120.5t-224.5 -45.5q-91 0 -168.5 23.5t-135 65 t-104 100.5t-77 127t-50.5 147t-29 158.5t-9 163.5zM246 754q0 -95 13.5 -183.5t45.5 -173.5t81 -147.5t125.5 -100.5t172.5 -38q95 0 171.5 38t125 100.5t80.5 147.5t45.5 173.5t13.5 183.5q0 176 -29.5 302t-87.5 200t-136.5 107.5t-182.5 33.5q-105 0 -183.5 -33.5 t-137 -107.5t-88 -200t-29.5 -302zM457 1677v146q56 47 108 47q51 0 116 -32t105 -32q41 0 69.5 16t55.5 48v-146q-53 -59 -135 -59q-30 0 -101.5 35t-105.5 35q-62 0 -112 -58z" />
<glyph unicode="&#xd6;" horiz-adv-x="1366" d="M111 760q0 144 21.5 262t56.5 197.5t85 140t100.5 94.5t109.5 55.5t105.5 28t94.5 6.5t94 -6.5t105 -28t109 -55.5t100 -94.5t85 -140t56.5 -198t21.5 -261.5q0 -120 -17.5 -228.5t-59.5 -212t-106 -178.5t-163.5 -120.5t-224.5 -45.5q-91 0 -168.5 23.5t-135 65 t-104 100.5t-77 127t-50.5 147t-29 158.5t-9 163.5zM246 754q0 -95 13.5 -183.5t45.5 -173.5t81 -147.5t125.5 -100.5t172.5 -38q95 0 171.5 38t125 100.5t80.5 147.5t45.5 173.5t13.5 183.5q0 176 -29.5 302t-87.5 200t-136.5 107.5t-182.5 33.5q-105 0 -183.5 -33.5 t-137 -107.5t-88 -200t-29.5 -302zM434 1657v188h148v-188h-148zM786 1657v188h148v-188h-148z" />
<glyph unicode="&#xd7;" horiz-adv-x="1228" d="M147 145l373 373l-373 373l95 94l370 -375l375 375l94 -94l-374 -373l374 -373l-94 -94l-375 375l-370 -375z" />
<glyph unicode="&#xd8;" horiz-adv-x="1366" d="M84 43l143 195q-116 200 -116 522q0 144 21.5 262t56.5 197.5t85 140t100.5 94.5t109.5 55.5t105.5 28t94.5 6.5q244 0 393 -166l121 162l84 -59l-141 -191q114 -196 114 -530q0 -120 -17.5 -228.5t-59.5 -212t-106 -178.5t-163.5 -120.5t-224.5 -45.5q-250 0 -395 175 l-127 -173zM246 754q0 -233 76 -392l671 904q-105 131 -309 131q-105 0 -183.5 -33.5t-137 -107.5t-88 -200t-29.5 -302zM377 266q112 -155 307 -155q95 0 171.5 38t125 100.5t80.5 147.5t45.5 173.5t13.5 183.5q0 264 -67 417z" />
<glyph unicode="&#xd9;" horiz-adv-x="1366" d="M172 510v1010h135v-990q0 -99 17.5 -172t59 -130.5t116.5 -87t184 -29.5q108 0 182.5 29.5t116 87t59 130.5t17.5 172v990h135v-1010q0 -535 -510 -535q-512 0 -512 535zM469 1851h180l127 -278h-123z" />
<glyph unicode="&#xda;" horiz-adv-x="1366" d="M172 510v1010h135v-990q0 -99 17.5 -172t59 -130.5t116.5 -87t184 -29.5q108 0 182.5 29.5t116 87t59 130.5t17.5 172v990h135v-1010q0 -535 -510 -535q-512 0 -512 535zM592 1573l127 278h180l-184 -278h-123z" />
<glyph unicode="&#xdb;" horiz-adv-x="1366" d="M172 510v1010h135v-990q0 -99 17.5 -172t59 -130.5t116.5 -87t184 -29.5q108 0 182.5 29.5t116 87t59 130.5t17.5 172v990h135v-1010q0 -535 -510 -535q-512 0 -512 535zM412 1573l176 278h192l176 -278h-122l-150 192l-149 -192h-123z" />
<glyph unicode="&#xdc;" horiz-adv-x="1366" d="M172 510v1010h135v-990q0 -99 17.5 -172t59 -130.5t116.5 -87t184 -29.5q108 0 182.5 29.5t116 87t59 130.5t17.5 172v990h135v-1010q0 -535 -510 -535q-512 0 -512 535zM434 1638v189h148v-189h-148zM786 1638v189h148v-189h-148z" />
<glyph unicode="&#xdd;" horiz-adv-x="1138" d="M29 1520h155l385 -838l385 838h156l-473 -981v-539h-135v539zM477 1647l127 278h180l-184 -278h-123z" />
<glyph unicode="&#xde;" d="M180 0v1520h135v-209h303q292 0 421.5 -119.5t129.5 -343.5q0 -102 -28 -186.5t-75.5 -141.5t-112.5 -96t-137.5 -56.5t-151.5 -17.5h-349v-350h-135zM315 485h336q64 0 119.5 12t104.5 39.5t84 68.5t55 102.5t20 138.5q0 317 -391 317h-328v-678z" />
<glyph unicode="&#xdf;" horiz-adv-x="1138" d="M154 0v1063q0 59 14 119.5t47.5 122t82.5 109t126.5 77t171.5 29.5q184 0 302 -103.5t118 -286.5q0 -153 -97 -241.5t-253 -110.5v-4q182 -8 286.5 -101t104.5 -274q0 -179 -108 -301.5t-283 -122.5q-78 0 -138.5 17.5t-121.5 60.5v148q101 -90 229 -90q130 0 202 77 t72 207q0 316 -403 301v148q79 -4 144 9t118 44.5t83 90t30 140.5q0 119 -79 181.5t-204 62.5q-59 0 -106.5 -15t-78 -37.5t-53 -56t-33.5 -62.5t-17.5 -65.5t-7.5 -57.5t-1 -44v-1034h-147z" />
<glyph unicode="&#xe0;" horiz-adv-x="1024" d="M78 293q0 60 10.5 106.5t36.5 82.5t57.5 62t86 49.5t109 41t138.5 39.5q146 38 190 78.5t44 134.5q0 105 -63.5 157t-174.5 52q-68 0 -122 -14.5t-101 -47.5t-82.5 -69t-83.5 -95v179q0 2 2 4q102 112 195.5 151t207.5 39q71 0 131.5 -17.5t113 -55.5t82.5 -108.5 t30 -166.5v-895h-123v190h-4q-66 -113 -160.5 -164t-222.5 -51q-127 0 -212 93.5t-85 224.5zM213 319q0 -208 213 -208q65 0 116 20t84.5 51t57.5 80.5t36.5 94t19.5 108t8.5 107t1.5 104.5h-5q-29 -44 -95.5 -76t-138.5 -52t-140.5 -45t-113 -71t-44.5 -113zM309 1624h180 l127 -278h-122z" />
<glyph unicode="&#xe1;" horiz-adv-x="1024" d="M78 293q0 60 10.5 106.5t36.5 82.5t57.5 62t86 49.5t109 41t138.5 39.5q146 38 190 78.5t44 134.5q0 105 -63.5 157t-174.5 52q-68 0 -122 -14.5t-101 -47.5t-82.5 -69t-83.5 -95v179q0 2 2 4q102 112 195.5 151t207.5 39q71 0 131.5 -17.5t113 -55.5t82.5 -108.5 t30 -166.5v-895h-123v190h-4q-66 -113 -160.5 -164t-222.5 -51q-127 0 -212 93.5t-85 224.5zM213 319q0 -208 213 -208q65 0 116 20t84.5 51t57.5 80.5t36.5 94t19.5 108t8.5 107t1.5 104.5h-5q-29 -44 -95.5 -76t-138.5 -52t-140.5 -45t-113 -71t-44.5 -113zM408 1346 l127 278h180l-185 -278h-122z" />
<glyph unicode="&#xe2;" horiz-adv-x="1024" d="M78 293q0 60 10.5 106.5t36.5 82.5t57.5 62t86 49.5t109 41t138.5 39.5q146 38 190 78.5t44 134.5q0 105 -63.5 157t-174.5 52q-68 0 -122 -14.5t-101 -47.5t-82.5 -69t-83.5 -95v179q0 2 2 4q102 112 195.5 151t207.5 39q71 0 131.5 -17.5t113 -55.5t82.5 -108.5 t30 -166.5v-895h-123v190h-4q-66 -113 -160.5 -164t-222.5 -51q-127 0 -212 93.5t-85 224.5zM213 319q0 -208 213 -208q65 0 116 20t84.5 51t57.5 80.5t36.5 94t19.5 108t8.5 107t1.5 104.5h-5q-29 -44 -95.5 -76t-138.5 -52t-140.5 -45t-113 -71t-44.5 -113zM240 1346 l176 278h192l176 -278h-122l-150 192l-150 -192h-122z" />
<glyph unicode="&#xe3;" horiz-adv-x="1024" d="M78 293q0 60 10.5 106.5t36.5 82.5t57.5 62t86 49.5t109 41t138.5 39.5q146 38 190 78.5t44 134.5q0 105 -63.5 157t-174.5 52q-68 0 -122 -14.5t-101 -47.5t-82.5 -69t-83.5 -95v179q0 2 2 4q102 112 195.5 151t207.5 39q71 0 131.5 -17.5t113 -55.5t82.5 -108.5 t30 -166.5v-895h-123v190h-4q-66 -113 -160.5 -164t-222.5 -51q-127 0 -212 93.5t-85 224.5zM213 319q0 -208 213 -208q65 0 116 20t84.5 51t57.5 80.5t36.5 94t19.5 108t8.5 107t1.5 104.5h-5q-29 -44 -95.5 -76t-138.5 -52t-140.5 -45t-113 -71t-44.5 -113zM285 1432v145 q56 47 108 47q51 0 116 -31.5t105 -31.5q42 0 70 15.5t55 47.5v-145q-54 -60 -135 -60q-30 0 -101.5 35t-105.5 35q-63 0 -112 -57z" />
<glyph unicode="&#xe4;" horiz-adv-x="1024" d="M78 293q0 60 10.5 106.5t36.5 82.5t57.5 62t86 49.5t109 41t138.5 39.5q146 38 190 78.5t44 134.5q0 105 -63.5 157t-174.5 52q-68 0 -122 -14.5t-101 -47.5t-82.5 -69t-83.5 -95v179q0 2 2 4q102 112 195.5 151t207.5 39q71 0 131.5 -17.5t113 -55.5t82.5 -108.5 t30 -166.5v-895h-123v190h-4q-66 -113 -160.5 -164t-222.5 -51q-127 0 -212 93.5t-85 224.5zM213 319q0 -208 213 -208q65 0 116 20t84.5 51t57.5 80.5t36.5 94t19.5 108t8.5 107t1.5 104.5h-5q-29 -44 -95.5 -76t-138.5 -52t-140.5 -45t-113 -71t-44.5 -113zM262 1411v188 h148v-188h-148zM614 1411v188h148v-188h-148z" />
<glyph unicode="&#xe5;" horiz-adv-x="1024" d="M78 293q0 60 10.5 106.5t36.5 82.5t57.5 62t86 49.5t109 41t138.5 39.5q146 38 190 78.5t44 134.5q0 105 -63.5 157t-174.5 52q-68 0 -122 -14.5t-101 -47.5t-82.5 -69t-83.5 -95v179q0 2 2 4q102 112 195.5 151t207.5 39q71 0 131.5 -17.5t113 -55.5t82.5 -108.5 t30 -166.5v-895h-123v190h-4q-66 -113 -160.5 -164t-222.5 -51q-127 0 -212 93.5t-85 224.5zM213 319q0 -208 213 -208q65 0 116 20t84.5 51t57.5 80.5t36.5 94t19.5 108t8.5 107t1.5 104.5h-5q-29 -44 -95.5 -76t-138.5 -52t-140.5 -45t-113 -71t-44.5 -113zM324 1509 q0 78 55 133.5t133 55.5t133 -55.5t55 -133.5t-55 -133t-133 -55t-133 55t-55 133zM397 1509q0 -47 34 -80.5t81 -33.5t81 33.5t34 80.5t-34 81t-81 34t-81 -34t-34 -81z" />
<glyph unicode="&#xe6;" horiz-adv-x="1820" d="M78 315q0 78 25 136t67 92.5t97 58.5t115 38t120.5 25.5t115.5 26.5t97 37t67 60.5t25 93.5q0 73 -46.5 123t-110 70t-136.5 20q-121 0 -223 -63.5t-164 -164.5v187q96 98 188 143t217 45q133 0 237.5 -61t137.5 -181h4q45 116 142.5 179t222.5 63q71 0 133 -14.5 t125.5 -54t108 -102t72.5 -166t28 -238.5v-86h-801q0 -76 10.5 -142t36 -128t65 -105.5t101.5 -69.5t141 -26q134 0 236.5 69t167.5 193v-209q-93 -95 -191.5 -142t-222.5 -47q-165 0 -266 79.5t-158 240.5q-62 -158 -167 -239t-267 -81q-150 0 -250 95.5t-100 244.5z M213 319q0 -101 64.5 -154.5t166.5 -53.5q77 0 140.5 26.5t103.5 68t68 94.5t39.5 103t11.5 97v164q-36 -35 -98.5 -59.5t-126 -36t-131.5 -30.5t-119.5 -41t-85 -67.5t-33.5 -110.5zM942 705h678q0 109 -37 196t-114 141t-183 54q-167 0 -254 -106t-90 -285z" />
<glyph unicode="&#xe7;" horiz-adv-x="1024" d="M86 584q0 203 53 348.5t168.5 228t286.5 82.5q122 0 207.5 -35t175.5 -121v-235q-59 113 -158 178.5t-225 65.5q-90 0 -157 -27t-116.5 -86.5t-74.5 -159t-25 -239.5q0 -98 22.5 -182t67.5 -150t119 -103.5t170 -37.5q104 0 221 74t156 182v-203q-69 -89 -141.5 -131 t-159.5 -51l-66 -205h-168l103 203q-99 8 -179 49t-131.5 101t-85.5 138t-48.5 156t-14.5 160z" />
<glyph unicode="&#xe8;" horiz-adv-x="1138" d="M78 596q0 105 16 196t53.5 175.5t95.5 144.5t147.5 95.5t203.5 35.5q68 0 127.5 -12.5t124 -50.5t110 -99t75.5 -167t30 -246v-86h-848q0 -109 20 -192t65 -147.5t123.5 -98t188.5 -33.5q133 0 236.5 62.5t163.5 180.5v-200q-48 -61 -103.5 -100.5t-115.5 -55t-99 -19.5 t-94 -4q-113 0 -202.5 33t-148 90t-97.5 137t-55.5 169t-16.5 192zM213 705h725q0 80 -20 148t-61 123.5t-110.5 87.5t-160.5 32q-94 0 -160 -25t-108.5 -77.5t-66 -121t-38.5 -167.5zM367 1624h180l127 -278h-123z" />
<glyph unicode="&#xe9;" horiz-adv-x="1138" d="M78 596q0 105 16 196t53.5 175.5t95.5 144.5t147.5 95.5t203.5 35.5q68 0 127.5 -12.5t124 -50.5t110 -99t75.5 -167t30 -246v-86h-848q0 -109 20 -192t65 -147.5t123.5 -98t188.5 -33.5q133 0 236.5 62.5t163.5 180.5v-200q-48 -61 -103.5 -100.5t-115.5 -55t-99 -19.5 t-94 -4q-113 0 -202.5 33t-148 90t-97.5 137t-55.5 169t-16.5 192zM213 705h725q0 80 -20 148t-61 123.5t-110.5 87.5t-160.5 32q-94 0 -160 -25t-108.5 -77.5t-66 -121t-38.5 -167.5zM465 1346l127 278h180l-184 -278h-123z" />
<glyph unicode="&#xea;" horiz-adv-x="1138" d="M78 596q0 105 16 196t53.5 175.5t95.5 144.5t147.5 95.5t203.5 35.5q68 0 127.5 -12.5t124 -50.5t110 -99t75.5 -167t30 -246v-86h-848q0 -109 20 -192t65 -147.5t123.5 -98t188.5 -33.5q133 0 236.5 62.5t163.5 180.5v-200q-48 -61 -103.5 -100.5t-115.5 -55t-99 -19.5 t-94 -4q-113 0 -202.5 33t-148 90t-97.5 137t-55.5 169t-16.5 192zM213 705h725q0 80 -20 148t-61 123.5t-110.5 87.5t-160.5 32q-94 0 -160 -25t-108.5 -77.5t-66 -121t-38.5 -167.5zM297 1346l176 278h193l176 -278h-123l-150 192l-149 -192h-123z" />
<glyph unicode="&#xeb;" horiz-adv-x="1138" d="M78 596q0 105 16 196t53.5 175.5t95.5 144.5t147.5 95.5t203.5 35.5q68 0 127.5 -12.5t124 -50.5t110 -99t75.5 -167t30 -246v-86h-848q0 -109 20 -192t65 -147.5t123.5 -98t188.5 -33.5q133 0 236.5 62.5t163.5 180.5v-200q-48 -61 -103.5 -100.5t-115.5 -55t-99 -19.5 t-94 -4q-113 0 -202.5 33t-148 90t-97.5 137t-55.5 169t-16.5 192zM213 705h725q0 80 -20 148t-61 123.5t-110.5 87.5t-160.5 32q-94 0 -160 -25t-108.5 -77.5t-66 -121t-38.5 -167.5zM319 1411v188h148v-188h-148zM672 1411v188h147v-188h-147z" />
<glyph unicode="&#xec;" horiz-adv-x="454" d="M25 1624h180l127 -278h-123zM154 0v1219h147v-1219h-147z" />
<glyph unicode="&#xed;" horiz-adv-x="454" d="M123 1346l127 278h180l-184 -278h-123zM154 0v1219h147v-1219h-147z" />
<glyph unicode="&#xee;" horiz-adv-x="454" d="M-45 1346l176 278h193l176 -278h-123l-150 192l-149 -192h-123zM154 0v1219h147v-1219h-147z" />
<glyph unicode="&#xef;" horiz-adv-x="454" d="M-23 1411v188h148v-188h-148zM154 0v1219h147v-1219h-147zM330 1411v188h147v-188h-147z" />
<glyph unicode="&#xf0;" d="M86 588q0 89 19.5 171t61.5 155t103.5 126.5t152 85t200.5 31.5q115 0 202.5 -35.5t132.5 -97.5h5q-115 229 -301 362l-248 -143l-76 84l221 127q-145 83 -237 119l77 90q129 -51 275 -141l241 141l76 -84l-217 -127q391 -301 391 -827q0 -102 -18 -194.5t-60 -176.5 t-103.5 -145.5t-154 -97.5t-206.5 -36q-170 0 -293 80.5t-183.5 217.5t-60.5 315zM221 588q0 -222 105 -349.5t297 -127.5q90 0 161.5 30t116.5 77.5t75 111.5t42 128t12 130q0 88 -20.5 160.5t-65.5 133t-127 94.5t-194 34q-92 0 -164 -26.5t-116 -68t-72 -99t-39 -113 t-11 -115.5z" />
<glyph unicode="&#xf1;" d="M162 0v1219h135v-240h4q123 264 412 264q78 0 139.5 -20.5t100.5 -49t66.5 -77t41 -87t20.5 -97t8 -88.5t1 -79v-745h-148v756q0 37 -1 62t-6.5 63.5t-15 65.5t-29 57t-46 48.5t-67.5 31t-93 12.5q-99 0 -173 -36t-117 -100t-64 -143.5t-21 -175.5v-641h-147zM399 1432 v145q56 47 109 47q51 0 116 -31.5t105 -31.5q42 0 70 15.5t55 47.5v-145q-54 -60 -135 -60q-30 0 -101.5 35t-105.5 35q-64 0 -113 -57z" />
<glyph unicode="&#xf2;" d="M86 608q0 149 33 263.5t85 183.5t125 112.5t144 59.5t152 16q66 0 126.5 -11.5t123 -38t113 -75t91 -116t62.5 -168.5t22 -226q0 -96 -15.5 -182.5t-54.5 -170.5t-98.5 -145t-154.5 -98t-215 -37t-215 37t-155 98t-99 145t-54.5 170.5t-15.5 182.5zM221 604 q0 -237 99 -365t305 -128t304.5 128t98.5 365q0 46 -2 82.5t-11 90t-25 94t-46 85t-71.5 73.5t-105 48t-142.5 19t-142.5 -19t-105 -48t-72 -73t-46.5 -85.5t-25 -94.5t-11 -90t-2 -82zM424 1624h180l127 -278h-123z" />
<glyph unicode="&#xf3;" d="M86 608q0 149 33 263.5t85 183.5t125 112.5t144 59.5t152 16q66 0 126.5 -11.5t123 -38t113 -75t91 -116t62.5 -168.5t22 -226q0 -96 -15.5 -182.5t-54.5 -170.5t-98.5 -145t-154.5 -98t-215 -37t-215 37t-155 98t-99 145t-54.5 170.5t-15.5 182.5zM221 604 q0 -237 99 -365t305 -128t304.5 128t98.5 365q0 46 -2 82.5t-11 90t-25 94t-46 85t-71.5 73.5t-105 48t-142.5 19t-142.5 -19t-105 -48t-72 -73t-46.5 -85.5t-25 -94.5t-11 -90t-2 -82zM522 1346l127 278h180l-184 -278h-123z" />
<glyph unicode="&#xf4;" d="M86 608q0 149 33 263.5t85 183.5t125 112.5t144 59.5t152 16q66 0 126.5 -11.5t123 -38t113 -75t91 -116t62.5 -168.5t22 -226q0 -96 -15.5 -182.5t-54.5 -170.5t-98.5 -145t-154.5 -98t-215 -37t-215 37t-155 98t-99 145t-54.5 170.5t-15.5 182.5zM221 604 q0 -237 99 -365t305 -128t304.5 128t98.5 365q0 46 -2 82.5t-11 90t-25 94t-46 85t-71.5 73.5t-105 48t-142.5 19t-142.5 -19t-105 -48t-72 -73t-46.5 -85.5t-25 -94.5t-11 -90t-2 -82zM354 1346l176 278h193l176 -278h-123l-149 192l-150 -192h-123z" />
<glyph unicode="&#xf5;" d="M86 608q0 149 33 263.5t85 183.5t125 112.5t144 59.5t152 16q66 0 126.5 -11.5t123 -38t113 -75t91 -116t62.5 -168.5t22 -226q0 -96 -15.5 -182.5t-54.5 -170.5t-98.5 -145t-154.5 -98t-215 -37t-215 37t-155 98t-99 145t-54.5 170.5t-15.5 182.5zM221 604 q0 -237 99 -365t305 -128t304.5 128t98.5 365q0 46 -2 82.5t-11 90t-25 94t-46 85t-71.5 73.5t-105 48t-142.5 19t-142.5 -19t-105 -48t-72 -73t-46.5 -85.5t-25 -94.5t-11 -90t-2 -82zM399 1432v145q56 47 109 47q51 0 116 -31.5t105 -31.5q42 0 70 15.5t55 47.5v-145 q-54 -60 -135 -60q-30 0 -101.5 35t-105.5 35q-64 0 -113 -57z" />
<glyph unicode="&#xf6;" d="M86 608q0 149 33 263.5t85 183.5t125 112.5t144 59.5t152 16q66 0 126.5 -11.5t123 -38t113 -75t91 -116t62.5 -168.5t22 -226q0 -96 -15.5 -182.5t-54.5 -170.5t-98.5 -145t-154.5 -98t-215 -37t-215 37t-155 98t-99 145t-54.5 170.5t-15.5 182.5zM221 604 q0 -237 99 -365t305 -128t304.5 128t98.5 365q0 46 -2 82.5t-11 90t-25 94t-46 85t-71.5 73.5t-105 48t-142.5 19t-142.5 -19t-105 -48t-72 -73t-46.5 -85.5t-25 -94.5t-11 -90t-2 -82zM377 1411v188h147v-188h-147zM729 1411v188h148v-188h-148z" />
<glyph unicode="&#xf7;" horiz-adv-x="1228" d="M98 451v135h1032v-135h-1032zM500 90q0 47 34 81t80 34t80.5 -34.5t34.5 -80.5t-34.5 -80.5t-80.5 -34.5t-80 34.5t-34 80.5zM500 946q0 47 34 81t80 34t80.5 -34.5t34.5 -80.5t-34.5 -80.5t-80.5 -34.5t-80 34.5t-34 80.5z" />
<glyph unicode="&#xf8;" d="M23 49l155 166q-92 158 -92 393q0 149 33 263.5t85 183.5t125 112.5t144 59.5t152 16q250 0 385 -149l139 147l80 -74l-154 -161q88 -150 88 -398q0 -96 -15.5 -182.5t-54.5 -170.5t-98.5 -145t-154.5 -98t-215 -37q-244 0 -381 150l-142 -150zM221 604q0 -180 53 -289 l639 676q-98 105 -288 105q-79 0 -142.5 -19t-105 -48t-72 -73t-46.5 -85.5t-25 -94.5t-11 -90t-2 -82zM336 223q100 -112 289 -112q206 0 304.5 128t98.5 365q0 189 -53 297z" />
<glyph unicode="&#xf9;" d="M162 473v746h147v-756q0 -37 1 -62t6.5 -63.5t15 -65.5t29 -57t46 -48.5t67.5 -31t93 -12.5q99 0 173 36t117 100t64 143.5t21 175.5v641h148v-1219h-136v240h-4q-123 -265 -411 -265q-78 0 -139.5 20.5t-100.5 49t-66.5 77t-41 87t-20.5 97t-8 88.5t-1 79zM424 1624h180 l127 -278h-123z" />
<glyph unicode="&#xfa;" d="M162 473v746h147v-756q0 -37 1 -62t6.5 -63.5t15 -65.5t29 -57t46 -48.5t67.5 -31t93 -12.5q99 0 173 36t117 100t64 143.5t21 175.5v641h148v-1219h-136v240h-4q-123 -265 -411 -265q-78 0 -139.5 20.5t-100.5 49t-66.5 77t-41 87t-20.5 97t-8 88.5t-1 79zM522 1346 l127 278h180l-184 -278h-123z" />
<glyph unicode="&#xfb;" d="M162 473v746h147v-756q0 -37 1 -62t6.5 -63.5t15 -65.5t29 -57t46 -48.5t67.5 -31t93 -12.5q99 0 173 36t117 100t64 143.5t21 175.5v641h148v-1219h-136v240h-4q-123 -265 -411 -265q-78 0 -139.5 20.5t-100.5 49t-66.5 77t-41 87t-20.5 97t-8 88.5t-1 79zM354 1346 l176 278h193l176 -278h-123l-149 192l-150 -192h-123z" />
<glyph unicode="&#xfc;" d="M162 473v746h147v-756q0 -37 1 -62t6.5 -63.5t15 -65.5t29 -57t46 -48.5t67.5 -31t93 -12.5q99 0 173 36t117 100t64 143.5t21 175.5v641h148v-1219h-136v240h-4q-123 -265 -411 -265q-78 0 -139.5 20.5t-100.5 49t-66.5 77t-41 87t-20.5 97t-8 88.5t-1 79zM377 1411v188 h147v-188h-147zM729 1411v188h148v-188h-148z" />
<glyph unicode="&#xfd;" horiz-adv-x="1024" d="M25 1219h165l342 -990h5l309 990h153l-499 -1514h-154l123 365zM408 1346l127 278h180l-185 -278h-122z" />
<glyph unicode="&#xfe;" d="M158 -295v1919h147v-629h4q61 111 162 179.5t221 68.5q60 0 116.5 -12t124 -52t116.5 -104t82.5 -179t33.5 -267q0 -80 -12 -157t-36.5 -151.5t-65 -136.5t-93.5 -109t-126 -73.5t-158 -26.5q-257 0 -365 234h-4v-504h-147zM291 582q0 -105 20 -188t62.5 -148t114.5 -100 t171 -35q80 0 144.5 32.5t106 85t69.5 122t39.5 140t11.5 142.5q0 73 -10 136.5t-34.5 125t-63 105t-99.5 70t-139 26.5q-91 0 -161.5 -30.5t-113.5 -79t-70 -117.5t-37.5 -138.5t-10.5 -148.5z" />
<glyph unicode="&#xff;" horiz-adv-x="1024" d="M25 1219h165l342 -990h5l309 990h153l-499 -1514h-154l123 365zM262 1411v188h148v-188h-148zM614 1411v188h148v-188h-148z" />
<glyph unicode="&#x152;" horiz-adv-x="2048" d="M111 760q0 144 21.5 262t56.5 197.5t85 140t100.5 94.5t109.5 55.5t105.5 28t94.5 6.5q164 0 289 -82.5t174 -238.5h4v297h807v-148h-672v-545h672v-135h-672v-557h672v-135h-807v313h-4q-29 -148 -151 -243t-312 -95q-91 0 -168.5 23.5t-135 65t-104 100.5t-77 127 t-50.5 147t-29 158.5t-9 163.5zM246 754q0 -95 13.5 -183.5t45.5 -173.5t81 -147.5t125.5 -100.5t172.5 -38q91 0 164.5 29.5t123.5 82t86 118.5t55.5 146t28.5 156.5t9 157.5q0 94 -13 176.5t-46.5 161t-85 134.5t-134 90t-188.5 34q-105 0 -183.5 -33.5t-137 -107.5 t-88 -200t-29.5 -302z" />
<glyph unicode="&#x153;" horiz-adv-x="1933" d="M78 653q0 99 17 186t55 161.5t94 128t138.5 84t184.5 30.5q369 0 455 -317h4q39 148 142 232.5t253 84.5q71 0 133 -14.5t125.5 -54t108 -102t72.5 -166t28 -238.5v-86h-801q0 -76 10.5 -142t36.5 -128t65.5 -105.5t101.5 -69.5t141 -26q134 0 236 69t167 193v-209 q-94 -95 -191.5 -142t-221.5 -47q-315 0 -431 349h-4q-46 -170 -159 -259.5t-287 -89.5q-64 0 -125.5 18.5t-126 67t-112.5 122t-78.5 195t-30.5 275.5zM213 592q0 -227 109.5 -354t267.5 -127q162 0 262 136t100 390q0 459 -374 459q-85 0 -150 -29t-105 -76t-65.5 -114 t-35 -136t-9.5 -149zM1087 705h678q0 109 -36.5 196t-113.5 141t-183 54q-167 0 -254.5 -106t-90.5 -285z" />
<glyph unicode="&#x178;" horiz-adv-x="1138" d="M29 1520h155l385 -838l385 838h156l-473 -981v-539h-135v539zM319 1651v188h148v-188h-148zM672 1651v188h147v-188h-147z" />
<glyph unicode="&#x2c6;" horiz-adv-x="454" d="M-45 1346l176 278h193l176 -278h-123l-150 192l-149 -192h-123z" />
<glyph unicode="&#x2dc;" horiz-adv-x="454" d="M0 1432v145q56 47 109 47q51 0 116 -31.5t105 -31.5q42 0 70 15.5t55 47.5v-145q-25 -28 -62 -44t-74 -16q-30 0 -101 35t-105 35q-64 0 -113 -57z" />
<glyph unicode="&#x2000;" horiz-adv-x="979" />
<glyph unicode="&#x2001;" horiz-adv-x="1958" />
<glyph unicode="&#x2002;" horiz-adv-x="979" />
<glyph unicode="&#x2003;" horiz-adv-x="1958" />
<glyph unicode="&#x2004;" horiz-adv-x="652" />
<glyph unicode="&#x2005;" horiz-adv-x="489" />
<glyph unicode="&#x2006;" horiz-adv-x="326" />
<glyph unicode="&#x2007;" horiz-adv-x="326" />
<glyph unicode="&#x2008;" horiz-adv-x="244" />
<glyph unicode="&#x2009;" horiz-adv-x="391" />
<glyph unicode="&#x200a;" horiz-adv-x="108" />
<glyph unicode="&#x2010;" horiz-adv-x="796" d="M162 586v135h473v-135h-473z" />
<glyph unicode="&#x2011;" horiz-adv-x="796" d="M162 586v135h473v-135h-473z" />
<glyph unicode="&#x2012;" horiz-adv-x="796" d="M162 586v135h473v-135h-473z" />
<glyph unicode="&#x2013;" horiz-adv-x="1024" d="M0 586v135h1024v-135h-1024z" />
<glyph unicode="&#x2014;" horiz-adv-x="2048" d="M0 586v135h2048v-135h-2048z" />
<glyph unicode="&#x2018;" horiz-adv-x="569" d="M154 1108l163 412h119l-125 -412h-157z" />
<glyph unicode="&#x2019;" horiz-adv-x="569" d="M133 1108l125 412h158l-164 -412h-119z" />
<glyph unicode="&#x201a;" horiz-adv-x="569" d="M154 -223l125 411h157l-164 -411h-118z" />
<glyph unicode="&#x201c;" horiz-adv-x="796" d="M125 1108l164 412h119l-125 -412h-158zM389 1108l164 412h119l-125 -412h-158z" />
<glyph unicode="&#x201d;" horiz-adv-x="796" d="M125 1108l125 412h158l-164 -412h-119zM389 1108l125 412h158l-164 -412h-119z" />
<glyph unicode="&#x201e;" horiz-adv-x="796" d="M125 -223l125 411h158l-164 -411h-119zM389 -223l125 411h158l-164 -411h-119z" />
<glyph unicode="&#x2022;" horiz-adv-x="1024" d="M133 760q0 157 111 269t268 112t269 -112t112 -269t-112 -268t-269 -111t-268 111t-111 268z" />
<glyph unicode="&#x2026;" horiz-adv-x="2048" d="M268 0v205h148v-205h-148zM950 0v205h148v-205h-148zM1632 0v205h148v-205h-148z" />
<glyph unicode="&#x202f;" horiz-adv-x="391" />
<glyph unicode="&#x2039;" horiz-adv-x="454" d="M51 653l238 379h143l-223 -379l223 -379h-143z" />
<glyph unicode="&#x203a;" horiz-adv-x="454" d="M23 274l223 379l-223 379h143l237 -379l-237 -379h-143z" />
<glyph unicode="&#x205f;" horiz-adv-x="489" />
<glyph unicode="&#x20ac;" horiz-adv-x="1138" d="M20 569l37 103h115q-2 29 -2 88q0 73 2 108h-147l36 103h119q16 141 56.5 247t90 166.5t114.5 98t121.5 49.5t119.5 12q257 0 399 -229v-225l-4 4q-62 141 -155.5 222t-239.5 81q-153 0 -245 -100t-120 -326h664l-37 -103h-635q-2 -37 -2 -114q0 -55 2 -82h568l-37 -103 h-523q12 -95 38 -174t69 -144.5t108.5 -102.5t149.5 -37q73 0 133.5 23.5t108 69.5t83 102t70.5 132l4 4v-225q-67 -122 -173.5 -182t-225.5 -60q-98 0 -177.5 32t-134.5 86.5t-95 132t-62 161.5t-33 182h-160z" />
<glyph unicode="&#x2122;" horiz-adv-x="2027" d="M131 1409v111h668v-111h-267v-733h-135v733h-266zM973 676v844h217l244 -639l245 639h217v-844h-135v708h-4l-278 -708h-88l-279 708h-4v-708h-135z" />
<glyph unicode="&#xe000;" horiz-adv-x="1218" d="M0 0v1219h1219v-1219h-1219z" />
<glyph unicode="&#xfb01;" d="M16 922v135h189v153q0 113 39 205.5t121.5 150.5t197.5 58q145 0 234 -86v-170q-41 61 -89 85t-130 24q-117 0 -171.5 -75.5t-54.5 -209.5v-135h445v-135h-445v-922h-147v922h-189zM940 0v1219h147v-1219h-147zM940 1407v217h147v-217h-147z" />
<glyph unicode="&#xfb02;" d="M16 922v135h189v153q0 113 39 205.5t121.5 150.5t197.5 58q145 0 234 -86v-170q-41 61 -89 85t-130 24q-117 0 -171.5 -75.5t-54.5 -209.5v-135h445v-135h-445v-922h-147v922h-189zM940 0v1624h147v-1624h-147z" />
</font>
</defs>
</svg>
