<?xml version="1.0" standalone="no"?>
<!DOCTYPE svg PUBLIC "-//W3C//DTD SVG 1.1//EN" "http://www.w3.org/Graphics/SVG/1.1/DTD/svg11.dtd" >
<svg xmlns="http://www.w3.org/2000/svg">
<metadata></metadata>
<defs>
<font id="antique_olive_stdbold" horiz-adv-x="1366" >
<font-face units-per-em="2048" ascent="1585" descent="-463" />
<missing-glyph horiz-adv-x="569" />
<glyph horiz-adv-x="2048" />
<glyph horiz-adv-x="2048" />
<glyph unicode="&#xd;" horiz-adv-x="2048" />
<glyph unicode=" "  horiz-adv-x="569" />
<glyph unicode="&#x09;" horiz-adv-x="569" />
<glyph unicode="&#xa0;" horiz-adv-x="569" />
<glyph unicode="!" horiz-adv-x="679" d="M168 98q0 74 40.5 104.5t131.5 30.5t131.5 -30.5t40.5 -104.5t-40.5 -104.5t-131.5 -30.5t-131.5 30.5t-40.5 104.5zM193 1038v379q0 63 31 83t108 20q89 0 122 -20t33 -83v-379l-45 -671h-204z" />
<glyph unicode="&#x22;" horiz-adv-x="909" d="M182 1028v492h221v-492h-221zM506 1028v492h221v-492h-221z" />
<glyph unicode="#" horiz-adv-x="1138" d="M63 432v197h189l37 262h-162v196h188l60 433h196l-59 -433h207l59 433h197l-60 -433h160v-196h-188l-35 -262h160v-197h-189l-59 -432h-197l60 432h-207l-60 -432h-196l59 432h-160zM449 629h206l35 262h-205z" />
<glyph unicode="$" horiz-adv-x="1138" d="M76 1094q0 186 125.5 313.5t316.5 148.5v211h135v-211q135 -11 224.5 -65.5t130.5 -110.5v-366q-124 235 -390 235q-49 0 -90.5 -8.5t-78 -27.5t-57.5 -55t-21 -85q0 -37 23.5 -66.5t63.5 -50t92 -39.5t109.5 -39t115 -43t109.5 -57t92 -76.5t63.5 -106t23.5 -140.5 q0 -203 -112.5 -335t-297.5 -157v-219h-135v219q-240 14 -397 176v357q57 -125 168.5 -194t242.5 -69q248 0 248 170q0 61 -39 102.5t-101 65.5t-137 46t-150 55t-137 81t-101 135t-39 206z" />
<glyph unicode="%" horiz-adv-x="1820" d="M180 1159q0 69 7.5 125t27.5 108t52.5 87t85 56t122.5 21q72 0 125 -22t84 -57t49.5 -88.5t24.5 -107t6 -122.5q0 -85 -16 -156.5t-49 -129.5t-90 -90.5t-134 -32.5q-79 0 -137.5 32.5t-92 90.5t-49.5 129t-16 157zM365 1159q0 -35 1.5 -61.5t8 -59.5t17.5 -54 t32.5 -35.5t50.5 -14.5q34 0 56.5 20t32.5 57t13 70t3 78q0 42 -3 71.5t-13 62t-32.5 50t-56.5 17.5q-36 0 -59.5 -17t-34 -50t-13.5 -62.5t-3 -71.5zM387 27l903 1540l129 -64l-903 -1550zM1057 373q0 69 7.5 125t27.5 108t52.5 87t85 56t122.5 21q72 0 125 -22t84 -57 t49 -89t24 -107t6 -122q0 -68 -9.5 -127t-31.5 -111.5t-54.5 -90t-81.5 -59.5t-111 -22q-63 0 -113.5 22t-84 59.5t-56 90t-32 111.5t-9.5 127zM1241 373q0 -45 3.5 -78t13.5 -70.5t34 -57.5t60 -20q28 0 48 14.5t30.5 36t16.5 54.5t7.5 59.5t1.5 61.5q0 33 -1.5 57 t-7.5 52.5t-16.5 47t-30.5 31t-48 12.5q-29 0 -50.5 -12.5t-33 -31t-18 -47t-8 -52.5t-1.5 -57z" />
<glyph unicode="&#x26;" d="M96 348q0 258 279 465q-164 179 -164 381q0 174 114 268t298 94q105 0 189 -35.5t136.5 -109t52.5 -174.5q0 -220 -290 -426l247 -311q122 175 236 530v-485q-57 -113 -115 -203l262 -342h-350l-102 125q-162 -162 -391 -162q-171 0 -286.5 101t-115.5 284zM379 393 q0 -74 51 -123t125 -49q61 0 106.5 21t94.5 65l-254 328q-54 -50 -88.5 -113.5t-34.5 -128.5zM494 1190q0 -89 57 -176l37 -56q92 101 123.5 147t31.5 95q0 53 -34 88t-91 35q-52 0 -88 -38.5t-36 -94.5z" />
<glyph unicode="'" horiz-adv-x="569" d="M174 1028v492h221v-492h-221z" />
<glyph unicode="(" horiz-adv-x="681" d="M115 760q0 204 60 401t175 359h252q-123 -129 -176 -334.5t-53 -425.5q0 -486 229 -760h-254q-111 169 -172 365t-61 395z" />
<glyph unicode=")" horiz-adv-x="681" d="M80 0q123 129 176 334.5t53 425.5q0 486 -229 760h254q111 -169 172 -365t61 -395q0 -204 -60 -401t-175 -359h-252z" />
<glyph unicode="*" horiz-adv-x="909" d="M98 1169l58 217l237 -126l-53 260h219l-53 -260l233 126l72 -217l-270 -28l207 -187l-189 -131l-108 246l-107 -246l-184 131l194 187z" />
<glyph unicode="+" horiz-adv-x="1228" d="M98 408v221h406v407h221v-407h405v-221h-405v-408h-221v408h-406z" />
<glyph unicode="," horiz-adv-x="569" d="M143 -274q37 117 37 315q0 98 -10 176h256q0 -69 -2.5 -123t-11 -126t-29 -134t-51.5 -108h-189z" />
<glyph unicode="-" horiz-adv-x="796" d="M129 532v283h539v-283h-539z" />
<glyph unicode="." horiz-adv-x="569" d="M113 98q0 74 40.5 104.5t131.5 30.5t131.5 -30.5t40.5 -104.5t-40.5 -104.5t-131.5 -30.5t-131.5 30.5t-40.5 104.5z" />
<glyph unicode="/" horiz-adv-x="1024" d="M-14 76l860 1480l192 -108l-862 -1485z" />
<glyph unicode="0" horiz-adv-x="1138" d="M41 760q0 150 13.5 264.5t49 218t94 170t152 105t219.5 38.5q106 0 188.5 -25.5t140 -76.5t97 -118.5t62 -160.5t32 -192t9.5 -223q0 -797 -529 -797q-528 0 -528 797zM311 760q0 -83 6 -151t23 -138t44.5 -117.5t74.5 -77.5t110 -30t110 30t74.5 77.5t44.5 117.5t23 138 t6 151q0 78 -3.5 135t-12.5 115t-27 96.5t-46 69.5t-70.5 46t-98.5 15t-98.5 -15t-70.5 -46t-46 -69.5t-27 -96.5t-12.5 -115t-3.5 -135z" />
<glyph unicode="1" horiz-adv-x="1138" d="M31 963v247q260 119 542 310h261v-1520h-308v1229q-45 -29 -91.5 -56.5t-105.5 -59t-92 -48l-109 -54.5t-97 -48z" />
<glyph unicode="2" horiz-adv-x="1138" d="M59 1239q52 108 112 174.5t153 104.5t221 38q228 0 359.5 -114.5t131.5 -313.5q0 -106 -35.5 -208t-74 -169.5t-131.5 -162t-137 -132.5t-162 -134q-39 -32 -58 -48v-4h604v-270h-936v238q21 20 86.5 80.5t112 106.5t116 116t118 131t95 128.5t71 131.5t24.5 119 q0 93 -59 145.5t-168 52.5q-59 0 -113.5 -21.5t-91 -49t-75.5 -76t-57.5 -78.5t-47 -81t-35.5 -62h-4q10 117 10 141q0 144 -29 217z" />
<glyph unicode="3" horiz-adv-x="1138" d="M86 190q14 60 14 138q0 51 -8 153q139 -248 363 -248q123 0 206.5 58.5t83.5 165.5q0 51 -17.5 91.5t-46.5 67t-69.5 44t-83.5 25t-90 7.5q-136 0 -239 -49v234l454 344v4h-557v295h899v-312l-428 -331l8 -5q57 5 70 5q177 0 292.5 -107.5t115.5 -288.5 q0 -223 -150.5 -370.5t-380.5 -147.5q-68 0 -127 13t-97.5 29.5t-76 45.5t-56 48t-45 50.5t-34.5 40.5z" />
<glyph unicode="4" horiz-adv-x="1138" d="M18 252v383l459 885h481v-1010h144v-258h-144v-252h-299v252h-641zM240 510h424v788h-5z" />
<glyph unicode="5" horiz-adv-x="1138" d="M111 172q16 110 16 166q0 78 -2 117q65 -111 147 -172.5t197 -61.5q123 0 202 65t79 187q0 130 -83.5 193t-213.5 63q-179 0 -316 -86l13 877h835v-295h-596v-318q40 27 102 41.5t115 14.5q206 0 322 -124.5t116 -338.5q0 -242 -152.5 -389.5t-391.5 -147.5 q-227 0 -389 209z" />
<glyph unicode="6" horiz-adv-x="1138" d="M61 694q0 95 4.5 173.5t19 170t39 163t67 140.5t99.5 114.5t140 73t186 27.5q291 0 414 -190q-5 -13 -8.5 -26t-5.5 -29t-3.5 -26t-2 -30t-0.5 -26v-29v-26q0 -68 6 -130q-43 106 -135 162t-209 56q-63 0 -113 -16.5t-84 -42t-59.5 -68t-39.5 -81t-24 -95.5t-13.5 -98 t-6.5 -101h4q59 113 135.5 167t200.5 54q178 0 291.5 -133t113.5 -369q0 -229 -133.5 -372.5t-363.5 -143.5q-121 0 -214 42.5t-149.5 111.5t-92.5 167t-49.5 196.5t-13.5 213.5zM356 475q0 -105 61 -179.5t165 -74.5q109 0 167 72t58 184q0 114 -59 186t-166 72 q-106 0 -166 -72t-60 -188z" />
<glyph unicode="7" horiz-adv-x="1138" d="M74 1200v320h991v-363l-557 -1157h-295l532 1200h-671z" />
<glyph unicode="8" horiz-adv-x="1138" d="M47 393q0 167 85 260.5t255 124.5v4q-148 8 -236 101.5t-88 263.5q0 107 38 187t107.5 128t159.5 71t201 23t201 -23t159.5 -71t107.5 -128t38 -187q0 -170 -88 -263.5t-235 -101.5v-4q170 -31 255 -124.5t85 -260.5q0 -184 -143 -307t-380 -123t-379.5 123t-142.5 307z M317 428q0 -102 69.5 -154.5t182.5 -52.5t182.5 52.5t69.5 154.5q0 106 -70 161.5t-182 55.5t-182 -55.5t-70 -161.5zM346 1077q0 -94 60.5 -146t162.5 -52t163 52t61 146q0 97 -60.5 147t-163.5 50t-163 -50t-60 -147z" />
<glyph unicode="9" horiz-adv-x="1138" d="M61 1001q0 142 39 251t107.5 174t156 97.5t191.5 32.5q107 0 190 -25t139.5 -74.5t95 -113t59.5 -150t29.5 -174.5t8.5 -198q0 -109 -11.5 -208.5t-36 -198.5t-69 -178.5t-105.5 -142t-150.5 -96.5t-198.5 -34q-252 0 -391 162q20 81 20 174q0 21 -2 62t-2 61 q153 -189 361 -189q57 0 103 17.5t77.5 45.5t55 70t37 84.5t21.5 95.5t10.5 97t2.5 94h-4q-51 -105 -129 -158t-195 -53q-189 0 -299.5 129t-110.5 346zM330 1026q0 -110 61 -182t172 -72q91 0 160.5 74t69.5 178q0 105 -59.5 171.5t-170.5 66.5t-172 -66.5t-61 -169.5z" />
<glyph unicode=":" horiz-adv-x="569" d="M113 98q0 74 40.5 104.5t131.5 30.5t131.5 -30.5t40.5 -104.5t-40.5 -104.5t-131.5 -30.5t-131.5 30.5t-40.5 104.5zM113 872q0 74 40.5 105t131.5 31t131.5 -31t40.5 -105t-40.5 -104.5t-131.5 -30.5t-131.5 30.5t-40.5 104.5z" />
<glyph unicode=";" horiz-adv-x="569" d="M113 872q0 74 40.5 105t131.5 31t131.5 -31t40.5 -105t-40.5 -104.5t-131.5 -30.5t-131.5 30.5t-40.5 104.5zM143 -274q37 117 37 315q0 98 -10 176h256q0 -69 -2.5 -123t-11 -126t-29 -134t-51.5 -108h-189z" />
<glyph unicode="&#x3c;" horiz-adv-x="1228" d="M98 436v164l1032 453v-219l-731 -316l731 -315v-219z" />
<glyph unicode="=" horiz-adv-x="1228" d="M98 188v222h1032v-222h-1032zM98 627v221h1032v-221h-1032z" />
<glyph unicode="&#x3e;" horiz-adv-x="1228" d="M98 -16v219l731 315l-731 316v219l1032 -453v-164z" />
<glyph unicode="?" horiz-adv-x="1138" d="M135 1016v311q20 40 54 77.5t85 73t126 57t163 21.5q190 0 315.5 -113.5t125.5 -301.5q0 -43 -9.5 -84t-20.5 -72t-38 -67.5t-43.5 -57.5t-56.5 -57t-58.5 -51t-67.5 -53.5t-65 -51.5q-67 -54 -67 -153q0 -51 10 -109h-209q-10 71 -10 174q0 64 20 112t68 91 q22 20 80.5 63t98.5 75t74.5 82.5t34.5 100.5q0 90 -63.5 140.5t-165.5 50.5q-121 0 -224 -72.5t-157 -185.5zM319 98q0 74 41 104.5t132 30.5t131.5 -30.5t40.5 -104.5t-40.5 -104.5t-131.5 -30.5t-132 30.5t-41 104.5z" />
<glyph unicode="@" horiz-adv-x="1638" d="M23 762q0 164 64.5 311.5t175 253t263.5 167.5t324 62q154 0 293.5 -47.5t244 -130.5t166.5 -206t62 -265q0 -125 -40.5 -231.5t-103 -176t-139 -118.5t-146.5 -70.5t-128 -21.5q-50 0 -85 32t-38 91h-6q-95 -123 -232 -123q-136 0 -233.5 107t-97.5 255 q0 101 33.5 197.5t92 173t146.5 123.5t190 47q168 0 252 -139l33 110h186l-135 -553q-10 -42 -10 -80q0 -31 10.5 -46t44.5 -15q44 0 94.5 49.5t88 143t37.5 200.5q0 251 -154.5 380.5t-427.5 129.5q-184 0 -325.5 -81t-216.5 -220t-75 -313q0 -152 47 -269.5t133 -191.5 t202.5 -112t258.5 -38q140 0 260 45t205 130h205q-108 -173 -287 -266t-395 -93q-178 0 -330.5 53t-265.5 152.5t-177 252t-64 341.5zM588 680q0 -75 45 -128.5t112 -53.5q114 0 188.5 89.5t74.5 203.5q0 85 -46 138.5t-118 53.5q-111 0 -183.5 -83.5t-72.5 -219.5z" />
<glyph unicode="A" d="M23 0l423 1520h484l413 -1520h-317l-104 375h-476l-106 -375h-317zM500 657h362l-178 654h-4z" />
<glyph unicode="B" d="M154 0v1520h753q355 0 355 -361q0 -180 -112 -272.5t-306 -100.5v-4q69 -3 120.5 -10t105 -21t90 -39t66 -62t44 -91t14.5 -125q0 -120 -38 -205t-111 -134.5t-169 -72t-223 -22.5h-589zM461 258h284q123 0 177.5 46.5t54.5 144.5q0 99 -54.5 145.5t-177.5 46.5h-284 v-383zM461 887h274q219 0 219 182q0 93 -50.5 136.5t-158.5 43.5h-284v-362z" />
<glyph unicode="C" horiz-adv-x="1251" d="M72 766q0 238 69.5 414t212.5 276t348 100q134 0 241.5 -43.5t203.5 -142.5v-416l-8 7q-50 120 -150 192t-239 72q-70 0 -127.5 -17.5t-96.5 -46.5t-68.5 -70.5t-46.5 -84t-27 -93.5t-13.5 -92t-3.5 -86q0 -223 104 -356t272 -133q132 0 237 86.5t167 214.5v-336 q-82 -117 -196 -182.5t-249 -65.5q-130 0 -236.5 44.5t-178.5 120.5t-121.5 179.5t-71.5 218t-22 240.5z" />
<glyph unicode="D" horiz-adv-x="1478" d="M154 0v1520h714q80 0 152.5 -19t144 -68.5t123.5 -126t84.5 -200t32.5 -281.5q0 -206 -55.5 -365.5t-155 -259t-231.5 -150t-291 -50.5h-518zM461 295h233q404 0 404 516q0 64 -9 117.5t-23.5 92t-38 69t-46 50.5t-54.5 34t-57 21.5t-60.5 11.5t-57.5 4.5t-54 0.5h-237 v-917z" />
<glyph unicode="E" horiz-adv-x="1251" d="M154 0v1520h979v-308h-672v-303h669v-295h-669v-331h667v-283h-974z" />
<glyph unicode="F" horiz-adv-x="1251" d="M154 0v1520h993v-308h-686v-333h684v-295h-684v-584h-307z" />
<glyph unicode="G" d="M72 766q0 238 69.5 414t212.5 276t348 100q107 0 190.5 -16.5t141.5 -48.5t94 -63.5t72 -75.5v-400q-72 147 -181.5 216t-273.5 69q-99 0 -173.5 -38.5t-118 -108t-65 -159.5t-21.5 -200q0 -77 10.5 -146.5t37 -137t66.5 -117t103 -79.5t143 -30q56 0 115 18.5t98 53.5 v481h307v-514q-122 -165 -240.5 -231t-304.5 -66q-130 0 -236.5 44.5t-178.5 120.5t-121.5 179.5t-71.5 218t-22 240.5z" />
<glyph unicode="H" horiz-adv-x="1478" d="M154 0v1520h307v-580h557v580h307v-1520h-307v621h-557v-621h-307z" />
<glyph unicode="I" horiz-adv-x="569" d="M131 0v1520h307v-1520h-307z" />
<glyph unicode="J" horiz-adv-x="909" d="M14 63v244q49 -42 120 -70t147 -28q54 0 90 23t53.5 66.5t24 89.5t6.5 108v1024h307v-1069q0 -239 -97 -363.5t-323 -124.5q-88 0 -176.5 27t-151.5 73z" />
<glyph unicode="K" d="M154 0v1520h307v-664h4l471 664h389l-571 -758l573 -762h-383l-479 659h-4v-659h-307z" />
<glyph unicode="L" horiz-adv-x="1024" d="M154 0v1520h307v-1225h520v-295h-827z" />
<glyph unicode="M" horiz-adv-x="1820" d="M154 0v1520h495l258 -1078h4l267 1078h489v-1520h-295v1147h-4l-313 -1147h-293l-309 1147h-4v-1147h-295z" />
<glyph unicode="N" horiz-adv-x="1478" d="M147 0v1520h459l426 -1022h4v1022h295v-1520h-389l-496 1157h-4v-1157h-295z" />
<glyph unicode="O" horiz-adv-x="1478" d="M80 811q0 178 34 311t109 232.5t204.5 150.5t311.5 51t311.5 -51t205 -150.5t109.5 -232.5t34 -311q0 -110 -15 -211t-46.5 -197.5t-84.5 -175.5t-124 -138.5t-170.5 -92.5t-219.5 -33t-219.5 33t-170.5 92.5t-124 138.5t-84 175.5t-46 197.5t-15 211zM375 793 q0 -68 7 -130.5t22 -128t43 -118t67 -94.5t96.5 -65.5t128.5 -23.5t128.5 23.5t96.5 65.5t67 94.5t43.5 117.5t22.5 128t7 131q0 94 -19.5 171.5t-60.5 140t-113.5 97.5t-171.5 35q-79 0 -142 -23.5t-104 -63.5t-68 -97t-38.5 -121t-11.5 -139z" />
<glyph unicode="P" d="M154 0v1520h641q248 0 371.5 -120.5t123.5 -377.5q0 -126 -41 -228t-113 -167.5t-167.5 -100t-206.5 -34.5h-301v-492h-307zM461 762h297q41 0 78.5 12t71.5 38t54.5 73.5t20.5 111.5q0 44 -9 78t-22.5 56.5t-37.5 38t-45.5 23.5t-56.5 12.5t-60 5.5t-66 1h-225v-450z " />
<glyph unicode="Q" horiz-adv-x="1478" d="M80 811q0 178 34 311t109 232.5t204.5 150.5t311.5 51t311.5 -51t205 -150.5t109.5 -232.5t34 -311q0 -113 -15 -216.5t-50.5 -202.5t-88.5 -177.5t-133.5 -138t-181.5 -88.5l114 -209h-307l-106 192q-119 16 -213.5 71t-157 135t-104 185t-59 216t-17.5 233zM375 793 q0 -68 7 -130.5t22 -128t43 -118t67 -94.5t96.5 -65.5t128.5 -23.5t128.5 23.5t96.5 65.5t67 94.5t43.5 117.5t22.5 128t7 131q0 94 -19.5 171.5t-60.5 140t-113.5 97.5t-171.5 35q-79 0 -142 -23.5t-104 -63.5t-68 -97t-38.5 -121t-11.5 -139z" />
<glyph unicode="R" d="M154 0v1520h706q90 0 164 -24.5t131 -73t89 -129.5t32 -187q0 -230 -121 -340q-118 -107 -336 -107h-12l516 -659h-389l-469 653h-4v-653h-307zM457 852h262q53 0 93.5 7.5t78 27t58 60t20.5 100.5q0 90 -60 134t-168 44h-284v-373z" />
<glyph unicode="S" horiz-adv-x="1138" d="M76 1094q0 202 147 332t361 130q88 0 165 -19t127.5 -49t81.5 -56.5t50 -51.5v-366q-124 235 -390 235q-49 0 -90.5 -8.5t-78 -27.5t-57.5 -55t-21 -85q0 -37 23.5 -66.5t63.5 -50t92 -39.5t109.5 -39t115 -43t109.5 -57t92 -76.5t63.5 -106t23.5 -140.5 q0 -228 -140 -360t-368 -132q-263 0 -434 176v357q57 -125 168.5 -194t242.5 -69q248 0 248 170q0 61 -39 102.5t-101 65.5t-137 46t-150 55t-137 81t-101 135t-39 206z" />
<glyph unicode="T" horiz-adv-x="1138" d="M25 1212v308h1089v-308h-391v-1212h-307v1212h-391z" />
<glyph unicode="U" horiz-adv-x="1478" d="M145 578v942h308v-858q0 -47 0.5 -77.5t3.5 -70.5t8.5 -66t16 -57t25 -50.5t36 -39.5t49 -30.5t65 -17.5t82.5 -7t82.5 7t65 18t49.5 30.5t36.5 39t24.5 50.5t16 57t9 66t3.5 70.5t0.5 77.5v858h307v-942q0 -301 -150.5 -458t-443.5 -157t-443.5 157t-150.5 458z" />
<glyph unicode="V" d="M23 1520h333l328 -1170h4l326 1170h329l-456 -1520h-416z" />
<glyph unicode="W" horiz-adv-x="2048" d="M43 1520h324l229 -1151h4l231 1151h392l225 -1139l2 -12h4l238 1151h313l-375 -1520h-375l-227 1188h-4l-246 -1188h-377z" />
<glyph unicode="X" d="M23 0l462 768l-438 752h365l284 -527l289 527h358l-454 -756l454 -764h-368l-293 526l-297 -526h-362z" />
<glyph unicode="Y" d="M23 1520h354l301 -629l313 629h352l-516 -959v-561h-307v561z" />
<glyph unicode="Z" horiz-adv-x="1138" d="M74 0v299l624 901h-624v320h991v-316l-627 -909h627v-295h-991z" />
<glyph unicode="[" horiz-adv-x="681" d="M156 0v1520h413v-209h-155v-1102h155v-209h-413z" />
<glyph unicode="\" horiz-adv-x="1024" d="M-14 1448l192 108l860 -1480l-190 -113z" />
<glyph unicode="]" horiz-adv-x="681" d="M113 0v209h155v1102h-155v209h413v-1520h-413z" />
<glyph unicode="^" horiz-adv-x="1228" d="M129 627l395 807h181l395 -807h-223l-265 557l-260 -557h-223z" />
<glyph unicode="_" horiz-adv-x="1024" d="M0 -154h1024v-102h-1024v102z" />
<glyph unicode="`" horiz-adv-x="569" d="M-4 1655h311l266 -234h-243z" />
<glyph unicode="a" horiz-adv-x="1251" d="M70 317q0 77 25.5 138.5t69 101t99.5 69.5t118 49.5t123.5 35.5t117.5 32.5t99.5 36t69 50t25.5 71.5q0 67 -59.5 98t-157.5 31q-153 0 -271 -63.5t-196 -175.5v301q106 124 216 172.5t286 48.5q216 0 342.5 -96.5t126.5 -292.5v-924h-283v246h-4q-42 -146 -138 -214.5 t-251 -68.5t-256.5 101.5t-101.5 252.5zM365 334q0 -75 44 -112.5t121 -37.5q75 0 133 31.5t92 85t51 118.5t17 138v74q-25 -24 -83.5 -47.5t-120 -43.5t-120.5 -46t-96.5 -66.5t-37.5 -93.5z" />
<glyph unicode="b" d="M143 0v1585h308v-581h4q61 157 150.5 233t248.5 76q89 0 159.5 -28.5t116.5 -80.5t78.5 -115t49 -142t23.5 -150.5t7 -151.5q0 -129 -30 -249t-86.5 -217.5t-149 -156.5t-207.5 -59q-84 0 -150 23t-109.5 64.5t-71.5 87.5t-48 104h-4v-242h-289zM432 631q0 -74 7 -131 t26.5 -111.5t52 -89.5t86 -56.5t125.5 -21.5q121 0 199 112.5t78 280.5q0 72 -7 127t-26.5 106.5t-51.5 85t-84.5 53.5t-123.5 20q-63 0 -113 -24t-81 -61.5t-51 -88.5t-28 -100.5t-8 -100.5z" />
<glyph unicode="c" horiz-adv-x="1138" d="M78 664q0 136 34.5 252t100.5 205.5t173 140.5t243 51q259 0 411 -168v-391q-38 112 -139 182t-219 70q-322 0 -322 -363q0 -85 16.5 -157.5t51.5 -133.5t97 -96t145 -35q132 0 225 74.5t145 204.5v-320q-163 -217 -411 -217q-116 0 -215.5 45.5t-174.5 132t-118 221 t-43 302.5z" />
<glyph unicode="d" d="M78 625q0 105 14 199.5t48.5 185.5t87.5 157t138 106t193 40q135 0 227 -69.5t125 -203.5h4v545h308v-1585h-289v303h-4q-39 -156 -133 -248t-246 -92q-81 0 -148 20.5t-115 55t-85.5 85.5t-60.5 107t-38 124t-20.5 133t-5.5 137zM360 614q0 -393 277 -393 q76 0 134.5 36.5t91.5 97t49 130.5t16 146q0 375 -275 375q-78 0 -136.5 -33t-91.5 -90.5t-49 -124.5t-16 -144z" />
<glyph unicode="e" horiz-adv-x="1251" d="M78 645q0 309 150 488.5t419 179.5q527 0 527 -623q0 -18 -11 -158h-790q3 -163 92.5 -243t255.5 -80q62 0 113 12t88.5 31t72 52t59.5 65.5t56 81.5v-271q-81 -99 -194.5 -158t-235.5 -59q-154 0 -270 49.5t-188 141t-108 214.5t-36 277zM373 778h592 q-4 121 -90.5 186.5t-210.5 65.5q-112 0 -196.5 -67t-94.5 -185z" />
<glyph unicode="f" horiz-adv-x="909" d="M0 856v246h219v141v17q0 148 99 234q105 91 288 91q144 0 303 -53v-244q-73 51 -231 51q-99 0 -156 -44t-57 -138q0 -34 8 -55h404v-246h-351v-856h-307v856h-219z" />
<glyph unicode="g" d="M78 707q0 104 13.5 189.5t47.5 165t88.5 133.5t141.5 86t200 32q301 0 367 -242h4v205h283v-1106q0 -102 -28 -183t-77 -135.5t-119 -90.5t-151.5 -52t-177.5 -16q-297 0 -484 139v252q73 -78 180.5 -118t227.5 -40q46 0 88 6.5t88.5 26t80 50t55.5 84t22 122.5v150h-4 q-56 -119 -150 -186.5t-217 -67.5q-107 0 -191 35t-137 92t-88 136t-49 160.5t-14 172.5zM360 690q0 -143 73.5 -238.5t209.5 -95.5q74 0 130.5 28t89.5 77.5t49 112t16 137.5q0 152 -64.5 235.5t-214.5 83.5q-80 0 -138 -26.5t-90 -75t-46.5 -107t-14.5 -131.5z" />
<glyph unicode="h" d="M141 0v1585h308v-606h4q16 66 49 124.5t82 106t118 75.5t148 28q90 0 158 -26t108.5 -67.5t65.5 -104t34 -126.5t9 -143v-846h-307v705q0 61 -3 102t-14.5 84.5t-32.5 68.5t-58.5 41.5t-90.5 16.5q-72 0 -126.5 -29.5t-84.5 -80t-44.5 -110t-14.5 -128.5v-670h-308z" />
<glyph unicode="i" horiz-adv-x="569" d="M100 1499q0 75 43 102t142 27t141.5 -27t42.5 -102q0 -129 -184 -129q-185 0 -185 129zM131 0v1276q59 -35 158 -35q84 0 149 35v-1276h-307z" />
<glyph unicode="j" horiz-adv-x="569" d="M-90 -100q55 -11 76 -11q40 0 68.5 13t43 31t22.5 49t9.5 55t1.5 61v1178q59 -35 158 -35q84 0 149 35v-1215q0 -40 -1.5 -68.5t-8.5 -70t-20 -70.5t-37.5 -61t-59 -52t-87 -33t-118.5 -13q-86 0 -196 20v187zM100 1499q0 75 43 102t142 27t141.5 -27t42.5 -102 q0 -129 -184 -129q-185 0 -185 129z" />
<glyph unicode="k" horiz-adv-x="1251" d="M133 0v1585h307v-919h4l416 610h391l-497 -641l501 -635h-411l-400 596h-4v-596h-307z" />
<glyph unicode="l" horiz-adv-x="569" d="M131 0v1585h307v-1585h-307z" />
<glyph unicode="m" horiz-adv-x="2048" d="M141 0v1276h295v-285h4q41 155 131.5 238.5t247.5 83.5q71 0 126.5 -18t91.5 -47t62 -71t39.5 -82.5t22.5 -90.5h4q44 153 136.5 231t246.5 78q359 0 359 -393v-920h-308v725q0 49 -2 82t-12 76.5t-28 70t-53.5 45.5t-84.5 19q-46 0 -83 -15t-61.5 -38t-43 -57 t-28.5 -66.5t-16 -72t-7.5 -68.5t-1.5 -60v-641h-308v725q0 49 -2 82t-12 76.5t-28 70t-53.5 45.5t-84.5 19q-46 0 -83 -15t-61.5 -38t-43 -57t-28.5 -66.5t-16 -72t-7.5 -68.5t-1.5 -60v-641h-308z" />
<glyph unicode="n" d="M141 0v1276h295v-318h4q43 154 149 254.5t261 100.5q90 0 158 -26t108.5 -67.5t65.5 -104t34 -126.5t9 -143v-846h-307v705q0 61 -3 102t-14.5 84.5t-32.5 68.5t-58.5 41.5t-90.5 16.5q-72 0 -126.5 -29.5t-84.5 -80t-44.5 -110t-14.5 -128.5v-670h-308z" />
<glyph unicode="o" d="M82 657q0 323 145 489.5t455 166.5q311 0 456.5 -166.5t145.5 -489.5q0 -338 -153.5 -516t-448.5 -178q-294 0 -447 178t-153 516zM365 647q0 -199 76 -312.5t241 -113.5q85 0 147.5 31t99.5 89t54.5 133.5t17.5 172.5q0 359 -317 359q-319 0 -319 -359z" />
<glyph unicode="p" d="M143 -307v1583h289v-313h4q37 94 73 155t85 107.5t112 67t148 20.5q89 0 159.5 -28.5t116.5 -80.5t78.5 -115t49 -142t23.5 -150.5t7 -151.5q0 -129 -30 -249t-86.5 -217.5t-149 -156.5t-207.5 -59q-65 0 -121 15.5t-93.5 39t-68 56t-48 62t-29.5 61.5h-4v-504h-308z M432 631q0 -74 7 -131t26.5 -111.5t52 -89.5t86 -56.5t125.5 -21.5q121 0 199 112.5t78 280.5q0 72 -7 127t-26.5 106.5t-51.5 85t-84.5 53.5t-123.5 20q-63 0 -113 -24t-81 -61.5t-51 -88.5t-28 -100.5t-8 -100.5z" />
<glyph unicode="q" d="M78 625q0 105 14 199.5t48.5 185.5t87.5 157t138 106t193 40q142 0 239.5 -80.5t131.5 -243.5h4v287h289v-1583h-308v559h-4q-12 -53 -39.5 -102t-70.5 -92t-108 -69t-142 -26q-81 0 -148 20.5t-115 55t-85.5 85.5t-60.5 107t-38 124t-20.5 133t-5.5 137zM360 614 q0 -393 277 -393q76 0 134.5 36.5t91.5 97t49 130.5t16 146q0 375 -275 375q-78 0 -136.5 -33t-91.5 -90.5t-49 -124.5t-16 -144z" />
<glyph unicode="r" horiz-adv-x="909" d="M147 0v1276h285v-367h4q11 90 33 161t57.5 128t90.5 87q52 28 117 28h9q103 -5 162 -53v-357q-61 90 -176 90q-66 0 -116.5 -28.5t-79.5 -71.5t-47.5 -102.5t-24.5 -113t-6 -110.5v-567h-308z" />
<glyph unicode="s" horiz-adv-x="1024" d="M90 883q0 192 130.5 311t328.5 119q106 0 195.5 -38t142.5 -110v-331q-40 97 -128.5 146.5t-199.5 49.5q-74 0 -130 -37.5t-56 -93.5q0 -39 24 -66.5t63.5 -42t90 -30.5t103 -29.5t103 -41t90 -64t63.5 -100t24 -146.5q0 -124 -62 -220t-165 -146t-228 -50 q-111 0 -192.5 35t-171.5 113v329q109 -219 358 -219q42 0 82.5 12t74.5 48t34 90q0 36 -24.5 63t-65 43t-92 33.5t-105.5 33t-105.5 43.5t-92 64t-65 95.5t-24.5 136.5z" />
<glyph unicode="t" horiz-adv-x="909" d="M29 993v215q128 29 219 134t129 243h141l-8 -309h371v-283h-377q-1 -72 -5.5 -253t-4.5 -279q0 -43 3.5 -77t14 -68t28 -56.5t47.5 -36.5t70 -14q76 0 120.5 39t84.5 119v-277q-64 -65 -134.5 -96t-170.5 -31q-87 0 -152.5 25t-104 64.5t-62 99t-31.5 119.5t-8 135 q0 104 2 204t5.5 217t4.5 166h-182z" />
<glyph unicode="u" d="M141 430v846h308v-717q0 -48 0.5 -74.5t4.5 -65t11.5 -59.5t22 -46t35 -37.5t52 -21.5t72.5 -9q72 0 126.5 31t85 83t45 111t14.5 123v682h307v-1276h-295v307h-4q-101 -344 -410 -344q-90 0 -158 26t-108.5 67.5t-65.5 104t-34 126.5t-9 143z" />
<glyph unicode="v" horiz-adv-x="1251" d="M16 1276h336l269 -920h4l282 920h328l-426 -1276h-375z" />
<glyph unicode="w" horiz-adv-x="1933" d="M51 1276h324l219 -897h4l174 897h387l166 -897h4l240 897h313l-391 -1276h-352l-174 969h-4l-179 -969h-352z" />
<glyph unicode="x" horiz-adv-x="1251" d="M18 0l408 637l-403 639h372l238 -420l239 420h361l-412 -641l406 -635h-365l-244 426l-241 -426h-359z" />
<glyph unicode="y" horiz-adv-x="1251" d="M18 1276h332l289 -813h4l272 813h318l-559 -1583h-326l139 377z" />
<glyph unicode="z" horiz-adv-x="1138" d="M119 0v305l594 701h-594v270h901v-326l-598 -704h598v-246h-901z" />
<glyph unicode="{" horiz-adv-x="681" d="M57 680v160q63 0 113.5 43t50.5 121v282q0 104 76 169t184 65h170v-172h-96q-51 0 -69.5 -36.5t-18.5 -101.5v-223q-1 -62 -23 -107.5t-58 -69t-68 -34t-66 -14.5v-4q26 -3 51.5 -9.5t56 -23t53 -40t38 -63.5t16.5 -90v-223q0 -64 18.5 -100.5t69.5 -36.5h96v-172h-170 q-108 0 -184 64.5t-76 168.5v283q0 78 -50.5 121t-113.5 43z" />
<glyph unicode="|" horiz-adv-x="454" d="M117 -512v2048h221v-2048h-221z" />
<glyph unicode="}" horiz-adv-x="681" d="M31 0v172h96q51 0 69.5 36.5t18.5 100.5v223q1 50 16.5 90t38 63.5t53 40t56 23t51.5 9.5v4q-34 4 -66 14.5t-68 34t-58 69t-23 107.5v223q0 65 -18.5 101.5t-69.5 36.5h-96v172h170q108 0 184 -65t76 -169v-282q0 -78 50.5 -121t113.5 -43v-160q-63 0 -113.5 -43 t-50.5 -121v-283q0 -104 -76 -168.5t-184 -64.5h-170z" />
<glyph unicode="~" horiz-adv-x="1228" d="M141 516q93 178 246 178q93 0 238 -67q17 -7 53 -24.5t56 -26.5t48.5 -17t51.5 -8q29 0 54.5 11.5t50 37.5t38 44t37.5 54l73 -178q-23 -33 -38 -52.5t-41.5 -46.5t-50 -42t-56.5 -26t-70 -11q-52 0 -100.5 17.5t-112.5 52.5q-73 41 -119.5 57t-107.5 16 q-63 0 -104 -40.5t-72 -106.5z" />
<glyph unicode="&#xa1;" horiz-adv-x="679" d="M168 1151q0 74 40.5 104.5t131.5 30.5t131.5 -30.5t40.5 -104.5t-40.5 -104.5t-131.5 -30.5t-131.5 30.5t-40.5 104.5zM193 -168v379l45 672h204l45 -672v-379q0 -63 -31 -82.5t-108 -19.5q-89 0 -122 19.5t-33 82.5z" />
<glyph unicode="&#xa2;" horiz-adv-x="1138" d="M78 664q0 136 34.5 252t100.5 205.5t173 140.5t243 51q92 0 168 -23l71 236l121 -35l-76 -246q73 -40 127 -100v-391q-26 74 -81.5 132t-127.5 89l-233 -746q31 -8 72 -8q132 0 225 74.5t145 204.5v-320q-163 -217 -411 -217q-53 0 -109 12l-71 -229l-115 35l72 231 q-150 69 -239 236.5t-89 415.5zM360 643q0 -252 127 -360l222 723h-27q-322 0 -322 -363z" />
<glyph unicode="&#xa3;" horiz-adv-x="1138" d="M80 180q94 74 118.5 146.5t30.5 267.5h-129v221h111q-21 161 -21 295q0 198 128 322t341 124q212 0 394 -149v-340q-57 91 -144.5 149t-187.5 58q-105 0 -170.5 -60t-65.5 -165q0 -129 9 -234h360v-221h-367q2 -121 -30 -209t-113 -158l4 -4q93 60 176 60q40 0 139 -25 t148 -25q142 0 274 148v-293q-128 -88 -251 -88q-64 0 -193.5 22.5t-196.5 22.5q-137 0 -249 -82z" />
<glyph unicode="&#xa4;" horiz-adv-x="1138" d="M45 354l111 111q-95 135 -95 295q0 163 95 295l-111 110l119 119l110 -110q134 94 295 94q164 0 295 -94l111 110l119 -119l-111 -110q94 -134 94 -295q0 -162 -94 -293l111 -113l-119 -118l-111 110q-131 -94 -295 -94t-295 94l-110 -110zM283 760q0 -119 84 -203 t202 -84q119 0 203 84.5t84 202.5t-84 202.5t-203 84.5q-118 0 -202 -84t-84 -203z" />
<glyph unicode="&#xa5;" horiz-adv-x="1138" d="M-29 1520h336l262 -629l267 629h331l-374 -742h194v-172h-268v-151h268v-172h-268v-283h-307v283h-269v172h269v151h-269v172h195z" />
<glyph unicode="&#xa6;" horiz-adv-x="454" d="M117 358h221v-716h-221v716zM117 666v716h221v-716h-221z" />
<glyph unicode="&#xa7;" horiz-adv-x="1138" d="M113 561v12q0 92 59 167.5t152 123.5q-90 45 -141.5 122t-51.5 173q0 186 130.5 291.5t326.5 105.5q95 0 195 -30t180 -78q1 0 2 -1t2 -1v-303q-78 69 -177.5 118.5t-187.5 49.5q-72 0 -124 -37t-52 -105q0 -21 6.5 -39t14.5 -31.5t26.5 -27t29 -21t36.5 -18t35 -14 t38 -13t33 -10.5q156 -51 219 -86q161 -90 162 -241q0 -99 -53 -175.5t-146 -123.5q85 -46 128.5 -131.5t43.5 -194.5q0 -71 -24 -130t-64.5 -99t-96 -68t-116.5 -40.5t-127 -12.5q-128 0 -222 34.5t-193 108.5v291q177 -188 376 -188q39 0 76.5 11t67 39t29.5 68 q0 26 -7 48t-24.5 40t-32 31t-44.5 27t-45.5 21t-51.5 20.5t-47 17.5q-142 51 -194 81q-140 80 -146 218zM309 682q0 -29 14 -54t40 -43.5t48.5 -30t53.5 -24.5q29 -12 289 -118q7 8 25.5 29t26 31.5t15.5 30t8 40.5q0 30 -9 55t-20.5 40.5t-36.5 32.5t-41 25.5t-50 24.5 q-40 18 -86 35.5t-103.5 38.5t-87.5 32q-10 -12 -29 -32.5t-29 -33t-19 -33.5t-9 -46z" />
<glyph unicode="&#xa8;" horiz-adv-x="569" d="M-51 1544q0 67 29 92t100 25t100 -25t29 -92q0 -69 -30 -99t-99 -30t-99 30t-30 99zM362 1544q0 67 29.5 92t100.5 25t100 -25t29 -92q0 -69 -30 -99t-99 -30t-99.5 30t-30.5 99z" />
<glyph unicode="&#xa9;" horiz-adv-x="1638" d="M23 760q0 162 63 309.5t169.5 254t254 169.5t309.5 63t309.5 -63t254.5 -169.5t170 -254t63 -309.5t-63 -309.5t-170 -254.5t-254.5 -170t-309.5 -63t-309.5 63t-254 170t-169.5 254.5t-63 309.5zM244 762q0 -174 72.5 -314t204.5 -220.5t298 -80.5t298 80.5t205 221 t73 313.5q0 172 -70 310t-202.5 219t-303.5 81t-303 -81t-202 -219t-70 -310zM385 766q0 211 121.5 343t339.5 132q152 0 257 -86.5t128 -243.5h-180q-13 64 -72 105t-133 41q-112 0 -176 -80t-64 -207q0 -122 69.5 -208.5t174.5 -86.5q78 0 135 43.5t66 110.5h188 q-27 -156 -135 -247t-254 -91q-222 0 -343.5 133.5t-121.5 341.5z" />
<glyph unicode="&#xaa;" horiz-adv-x="813" d="M35 958q0 101 57 153.5t174 80.5q17 4 43.5 10t42.5 9.5t38.5 9t36.5 10t30.5 10.5t26.5 12t19 13t13 15.5t4 18.5q0 40 -40.5 56t-117.5 16q-183 0 -286 -125v178q67 76 139 103.5t186 27.5q150 0 234 -78.5t84 -215.5v-494h-197v150h-4q-26 -90 -87.5 -131.5 t-162.5 -41.5t-167 61t-66 152zM231 969q0 -43 29 -65.5t80 -22.5q94 0 139 62t45 159v45q-36 -19 -95.5 -38.5t-98 -32t-69 -40.5t-30.5 -67z" />
<glyph unicode="&#xab;" horiz-adv-x="909" d="M94 674l148 368h221l-135 -368l135 -369h-221zM446 674l148 368h221l-135 -368l135 -369h-221z" />
<glyph unicode="&#xac;" horiz-adv-x="1228" d="M98 627v221h1032v-627h-221v406h-811z" />
<glyph unicode="&#xad;" horiz-adv-x="796" d="M129 532v283h539v-283h-539z" />
<glyph unicode="&#xae;" horiz-adv-x="1638" d="M23 760q0 162 63 309.5t169.5 254t254 169.5t309.5 63t309.5 -63t254.5 -169.5t170 -254t63 -309.5t-63 -309.5t-170 -254.5t-254.5 -170t-309.5 -63t-309.5 63t-254 170t-169.5 254.5t-63 309.5zM244 762q0 -174 72.5 -314t204.5 -220.5t298 -80.5t298 80.5t205 221 t73 313.5q0 172 -70 310t-202.5 219t-303.5 81t-303 -81t-202 -219t-70 -310zM498 315v893h370q166 0 243 -60t77 -200q0 -125 -64.5 -185.5t-165.5 -68.5l222 -379h-201l-207 369h-78v-369h-196zM694 831h131q35 0 61 4.5t52 17.5t39.5 40.5t13.5 67.5q0 32 -12 52.5 t-36.5 30.5t-52.5 13.5t-71 3.5h-125v-230z" />
<glyph unicode="&#xaf;" horiz-adv-x="569" d="M-61 1448v160h692v-160h-692z" />
<glyph unicode="&#xb0;" horiz-adv-x="819" d="M117 1264q0 123 85 207.5t208 84.5t207.5 -84.5t84.5 -207.5t-84.5 -208t-207.5 -85t-208 85t-85 208zM264 1264q0 -60 43 -103t103 -43t102.5 43t42.5 103t-42.5 102.5t-102.5 42.5t-103 -42.5t-43 -102.5z" />
<glyph unicode="&#xb1;" horiz-adv-x="1228" d="M98 0v221h1032v-221h-1032zM98 565v221h406v275h221v-275h405v-221h-405v-274h-221v274h-406z" />
<glyph unicode="&#xb2;" horiz-adv-x="739" d="M39 1366q97 190 315 190q148 0 235 -66t87 -181q0 -149 -86 -252q-59 -75 -134 -141.5t-132 -104.5v-4h354v-184h-608v159q82 65 175.5 156.5t135.5 146.5q45 56 59.5 88.5t14.5 75.5q0 46 -35.5 72.5t-95.5 26.5q-42 0 -81 -15t-65.5 -35t-53 -51t-39.5 -50.5t-28 -45.5 h-6q0 3 3 35.5t3 48.5q0 85 -18 131z" />
<glyph unicode="&#xb3;" horiz-adv-x="739" d="M55 745q11 34 11 82q0 36 -7 97q98 -140 246 -140q87 0 133.5 32t46.5 85q0 119 -172 119q-115 0 -184 -31v160l283 197v4h-349v184h584v-186l-272 -197v-4q31 8 96 8q43 0 81 -13.5t71 -41t52 -76t19 -113.5q0 -151 -96 -231t-258 -80q-86 0 -162 45t-123 100z" />
<glyph unicode="&#xb4;" horiz-adv-x="569" d="M-4 1421l264 234h313l-333 -234h-244z" />
<glyph unicode="&#xb5;" d="M141 -307v1583h308v-717q0 -48 0.5 -74.5t4.5 -65t11.5 -59.5t22 -46t35 -37.5t52 -21.5t72.5 -9q72 0 126.5 31t85 83t45 111t14.5 123v682h307v-1276h-295v295h-4q-52 -158 -136.5 -232.5t-181.5 -74.5q-58 0 -92.5 12t-66.5 37v-344h-308z" />
<glyph unicode="&#xb6;" horiz-adv-x="1228" d="M23 1143q0 377 487 377h577v-1827h-208v1642h-203v-1642h-209v1087q-205 0 -324.5 99.5t-119.5 263.5z" />
<glyph unicode="&#xb7;" horiz-adv-x="569" d="M137 612q0 62 43.5 105t104.5 43t104 -43t43 -105t-43 -104.5t-104 -42.5q-62 0 -105 43t-43 104z" />
<glyph unicode="&#xb8;" horiz-adv-x="569" d="M94 -272l135 282h222l-123 -282h-234z" />
<glyph unicode="&#xb9;" horiz-adv-x="739" d="M78 1182v168q178 75 352 184h184v-911h-221v718q-33 -21 -77 -45t-71 -36.5t-89 -41t-78 -36.5z" />
<glyph unicode="&#xba;" horiz-adv-x="888" d="M53 1163q0 194 95.5 293.5t300.5 99.5q207 0 297 -98.5t90 -294.5q0 -199 -105 -308.5t-282 -109.5q-174 0 -285 110.5t-111 307.5zM262 1157q0 -115 49 -179.5t138 -64.5q83 0 130.5 65t47.5 179q0 203 -178 203q-187 0 -187 -203z" />
<glyph unicode="&#xbb;" horiz-adv-x="909" d="M94 305l135 369l-135 368h221l148 -368l-148 -369h-221zM446 305l136 369l-136 368h222l147 -368l-147 -369h-222z" />
<glyph unicode="&#xbc;" horiz-adv-x="1708" d="M16 1182v168q181 77 353 184h184v-911h-221v718q-33 -21 -77 -44.5t-72.5 -37t-88 -41t-78.5 -36.5zM356 -37l858 1593h164l-856 -1593h-166zM981 141v240l297 530h319v-598h95v-172h-95v-141h-221v141h-395zM1128 313h248v439h-4z" />
<glyph unicode="&#xbd;" horiz-adv-x="1708" d="M16 1182v168q181 77 353 184h184v-911h-221v718q-33 -21 -77 -44.5t-72.5 -37t-88 -41t-78.5 -36.5zM319 -37l859 1593h163l-856 -1593h-166zM1028 743q98 191 315 191q148 0 235 -66.5t87 -181.5q0 -149 -86 -252q-59 -75 -134 -141.5t-132 -104.5v-4h354v-184h-608v160 q82 65 175.5 156.5t135.5 146.5q45 56 59.5 88.5t14.5 75.5q0 46 -35.5 72t-95.5 26q-42 0 -81 -15.5t-65.5 -35t-52.5 -50.5t-38.5 -50.5t-28.5 -45.5h-7q1 9 4 38.5t3 45.5q0 82 -19 131z" />
<glyph unicode="&#xbe;" horiz-adv-x="1708" d="M55 745q11 34 11 82q0 36 -7 97q98 -140 246 -140q87 0 133.5 32t46.5 85q0 119 -172 119q-115 0 -184 -31v160l283 197v4h-349v184h584v-186l-272 -197v-4q31 8 96 8q43 0 81 -13.5t71 -41t52 -76t19 -113.5q0 -151 -96 -231t-258 -80q-86 0 -162 45t-123 100zM389 -37 l858 1593h164l-856 -1593h-166zM981 141v240l297 530h319v-598h95v-172h-95v-141h-221v141h-395zM1128 313h248v439h-4z" />
<glyph unicode="&#xbf;" horiz-adv-x="1138" d="M135 109q0 35 5.5 67.5t14 60t24.5 56t30.5 50t38.5 48t42 44t48.5 43t49.5 40.5t53 42t53 42q67 54 67 154q0 50 -10 108h209q10 -71 10 -174q0 -64 -20 -112t-68 -91q-22 -20 -80.5 -63t-99 -75t-75 -82.5t-34.5 -100.5q0 -90 63.5 -140.5t166.5 -50.5q121 0 224 72.5 t157 185.5v-311q-20 -40 -54 -77.5t-85.5 -73t-126.5 -57t-163 -21.5q-190 0 -315 114t-125 302zM475 1151q0 74 40.5 104.5t131.5 30.5t131.5 -30.5t40.5 -104.5t-40.5 -104.5t-131.5 -30.5t-131.5 30.5t-40.5 104.5z" />
<glyph unicode="&#xc0;" d="M23 0l423 1520h484l413 -1520h-317l-104 375h-476l-106 -375h-317zM336 1843h311l266 -233h-243zM500 657h362l-178 654h-4z" />
<glyph unicode="&#xc1;" d="M23 0l423 1520h484l413 -1520h-317l-104 375h-476l-106 -375h-317zM469 1610l264 233h314l-334 -233h-244zM500 657h362l-178 654h-4z" />
<glyph unicode="&#xc2;" d="M23 0l423 1520h484l413 -1520h-317l-104 375h-476l-106 -375h-317zM354 1610l166 233h340l154 -233h-213l-115 143l-119 -143h-213zM500 657h362l-178 654h-4z" />
<glyph unicode="&#xc3;" d="M23 0l423 1520h484l413 -1520h-317l-104 375h-476l-106 -375h-317zM391 1585v203q76 72 160 72q50 0 145 -36t138 -36q84 0 143 80v-201q-66 -63 -168 -63q-41 0 -135 29.5t-142 29.5q-85 0 -141 -78zM500 657h362l-178 654h-4z" />
<glyph unicode="&#xc4;" d="M23 0l423 1520h484l413 -1520h-317l-104 375h-476l-106 -375h-317zM348 1733q0 67 29 91.5t100 24.5t100 -24.5t29 -91.5q0 -69 -30 -99t-99 -30t-99 30t-30 99zM500 657h362l-178 654h-4zM762 1733q0 67 29 91.5t100 24.5t100 -24.5t29 -91.5q0 -69 -30 -99t-99 -30 t-99 30t-30 99z" />
<glyph unicode="&#xc5;" d="M23 0l423 1520h484l413 -1520h-317l-104 375h-476l-106 -375h-317zM463 1788q0 92 64.5 156.5t156.5 64.5t156.5 -64.5t64.5 -156.5t-64.5 -156.5t-156.5 -64.5t-156.5 64.5t-64.5 156.5zM500 657h362l-178 654h-4zM573 1788q0 -46 32.5 -78.5t78.5 -32.5t78.5 32.5 t32.5 78.5t-32.5 78t-78.5 32t-78.5 -32t-32.5 -78z" />
<glyph unicode="&#xc6;" horiz-adv-x="2048" d="M6 0l719 1520h1190v-308h-610v-303h606v-295h-606v-331h606v-283h-901v375h-494l-174 -375h-336zM647 657h363v629h-66z" />
<glyph unicode="&#xc7;" horiz-adv-x="1251" d="M72 766q0 238 69.5 414t212.5 276t348 100q134 0 241.5 -43.5t203.5 -142.5v-416l-8 7q-50 120 -150 192t-239 72q-70 0 -127.5 -17.5t-96.5 -46.5t-68.5 -70.5t-46.5 -84t-27 -93.5t-13.5 -92t-3.5 -86q0 -223 104 -356t272 -133q132 0 237 86.5t167 214.5v-336 q-150 -213 -373 -242l-104 -241h-234l119 252q-123 28 -218 104t-151.5 184t-85 233.5t-28.5 264.5z" />
<glyph unicode="&#xc8;" horiz-adv-x="1251" d="M154 0v1520h979v-308h-672v-303h669v-295h-669v-331h667v-283h-974zM279 1843h311l266 -233h-244z" />
<glyph unicode="&#xc9;" horiz-adv-x="1251" d="M154 0v1520h979v-308h-672v-303h669v-295h-669v-331h667v-283h-974zM412 1610l264 233h313l-334 -233h-243z" />
<glyph unicode="&#xca;" horiz-adv-x="1251" d="M154 0v1520h979v-308h-672v-303h669v-295h-669v-331h667v-283h-974zM297 1610l166 233h340l153 -233h-213l-114 143l-119 -143h-213z" />
<glyph unicode="&#xcb;" horiz-adv-x="1251" d="M154 0v1520h979v-308h-672v-303h669v-295h-669v-331h667v-283h-974zM291 1733q0 67 29 91.5t100 24.5t100 -24.5t29 -91.5q0 -69 -30 -99t-99 -30t-99 30t-30 99zM705 1733q0 67 29 91.5t100 24.5t100 -24.5t29 -91.5q0 -69 -30 -99t-99 -30t-99 30t-30 99z" />
<glyph unicode="&#xcc;" horiz-adv-x="569" d="M-88 1843h311l266 -233h-243zM131 0v1520h307v-1520h-307z" />
<glyph unicode="&#xcd;" horiz-adv-x="569" d="M70 1610l264 233h313l-334 -233h-243zM131 0v1520h307v-1520h-307z" />
<glyph unicode="&#xce;" horiz-adv-x="569" d="M-45 1610l166 233h340l153 -233h-213l-114 143l-119 -143h-213zM131 0v1520h307v-1520h-307z" />
<glyph unicode="&#xcf;" horiz-adv-x="569" d="M-51 1733q0 67 29 91.5t100 24.5t100 -24.5t29 -91.5q0 -69 -30 -99t-99 -30t-99 30t-30 99zM131 0v1520h307v-1520h-307zM362 1733q0 67 29.5 91.5t100.5 24.5t100 -24.5t29 -91.5q0 -69 -30 -99t-99 -30t-99.5 30t-30.5 99z" />
<glyph unicode="&#xd0;" horiz-adv-x="1478" d="M0 713v196h154v611h714q80 0 152.5 -19t144 -68.5t123.5 -126t84.5 -200t32.5 -281.5q0 -206 -55.5 -365.5t-155 -259t-231.5 -150t-291 -50.5h-518v713h-154zM461 295h233q404 0 404 516q0 64 -9 117.5t-23.5 92t-38 69t-46 50.5t-54.5 34t-57 21.5t-60.5 11.5 t-57.5 4.5t-54 0.5h-237v-303h295v-196h-295v-418z" />
<glyph unicode="&#xd1;" horiz-adv-x="1478" d="M147 0v1520h459l426 -1022h4v1022h295v-1520h-389l-496 1157h-4v-1157h-295zM446 1585v203q76 72 160 72q50 0 145 -36t138 -36q84 0 143 80v-201q-66 -63 -168 -63q-41 0 -134.5 29.5t-141.5 29.5q-86 0 -142 -78z" />
<glyph unicode="&#xd2;" horiz-adv-x="1478" d="M80 811q0 178 34 311t109 232.5t204.5 150.5t311.5 51t311.5 -51t205 -150.5t109.5 -232.5t34 -311q0 -110 -15 -211t-46.5 -197.5t-84.5 -175.5t-124 -138.5t-170.5 -92.5t-219.5 -33t-219.5 33t-170.5 92.5t-124 138.5t-84 175.5t-46 197.5t-15 211zM375 793 q0 -68 7 -130.5t22 -128t43 -118t67 -94.5t96.5 -65.5t128.5 -23.5t128.5 23.5t96.5 65.5t67 94.5t43.5 117.5t22.5 128t7 131q0 94 -19.5 171.5t-60.5 140t-113.5 97.5t-171.5 35q-79 0 -142 -23.5t-104 -63.5t-68 -97t-38.5 -121t-11.5 -139zM391 1843h311l267 -233h-244z " />
<glyph unicode="&#xd3;" horiz-adv-x="1478" d="M80 811q0 178 34 311t109 232.5t204.5 150.5t311.5 51t311.5 -51t205 -150.5t109.5 -232.5t34 -311q0 -110 -15 -211t-46.5 -197.5t-84.5 -175.5t-124 -138.5t-170.5 -92.5t-219.5 -33t-219.5 33t-170.5 92.5t-124 138.5t-84 175.5t-46 197.5t-15 211zM375 793 q0 -68 7 -130.5t22 -128t43 -118t67 -94.5t96.5 -65.5t128.5 -23.5t128.5 23.5t96.5 65.5t67 94.5t43.5 117.5t22.5 128t7 131q0 94 -19.5 171.5t-60.5 140t-113.5 97.5t-171.5 35q-79 0 -142 -23.5t-104 -63.5t-68 -97t-38.5 -121t-11.5 -139zM524 1610l264 233h314 l-334 -233h-244z" />
<glyph unicode="&#xd4;" horiz-adv-x="1478" d="M80 811q0 178 34 311t109 232.5t204.5 150.5t311.5 51t311.5 -51t205 -150.5t109.5 -232.5t34 -311q0 -110 -15 -211t-46.5 -197.5t-84.5 -175.5t-124 -138.5t-170.5 -92.5t-219.5 -33t-219.5 33t-170.5 92.5t-124 138.5t-84 175.5t-46 197.5t-15 211zM375 793 q0 -68 7 -130.5t22 -128t43 -118t67 -94.5t96.5 -65.5t128.5 -23.5t128.5 23.5t96.5 65.5t67 94.5t43.5 117.5t22.5 128t7 131q0 94 -19.5 171.5t-60.5 140t-113.5 97.5t-171.5 35q-79 0 -142 -23.5t-104 -63.5t-68 -97t-38.5 -121t-11.5 -139zM410 1610l165 233h340 l154 -233h-213l-115 143l-118 -143h-213z" />
<glyph unicode="&#xd5;" horiz-adv-x="1478" d="M80 811q0 178 34 311t109 232.5t204.5 150.5t311.5 51t311.5 -51t205 -150.5t109.5 -232.5t34 -311q0 -110 -15 -211t-46.5 -197.5t-84.5 -175.5t-124 -138.5t-170.5 -92.5t-219.5 -33t-219.5 33t-170.5 92.5t-124 138.5t-84 175.5t-46 197.5t-15 211zM375 793 q0 -68 7 -130.5t22 -128t43 -118t67 -94.5t96.5 -65.5t128.5 -23.5t128.5 23.5t96.5 65.5t67 94.5t43.5 117.5t22.5 128t7 131q0 94 -19.5 171.5t-60.5 140t-113.5 97.5t-171.5 35q-79 0 -142 -23.5t-104 -63.5t-68 -97t-38.5 -121t-11.5 -139zM446 1585v203q76 72 160 72 q50 0 145 -36t138 -36q84 0 143 80v-201q-66 -63 -168 -63q-41 0 -134.5 29.5t-141.5 29.5q-86 0 -142 -78z" />
<glyph unicode="&#xd6;" horiz-adv-x="1478" d="M80 811q0 178 34 311t109 232.5t204.5 150.5t311.5 51t311.5 -51t205 -150.5t109.5 -232.5t34 -311q0 -110 -15 -211t-46.5 -197.5t-84.5 -175.5t-124 -138.5t-170.5 -92.5t-219.5 -33t-219.5 33t-170.5 92.5t-124 138.5t-84 175.5t-46 197.5t-15 211zM375 793 q0 -68 7 -130.5t22 -128t43 -118t67 -94.5t96.5 -65.5t128.5 -23.5t128.5 23.5t96.5 65.5t67 94.5t43.5 117.5t22.5 128t7 131q0 94 -19.5 171.5t-60.5 140t-113.5 97.5t-171.5 35q-79 0 -142 -23.5t-104 -63.5t-68 -97t-38.5 -121t-11.5 -139zM403 1733q0 67 29 91.5 t100 24.5t100.5 -24.5t29.5 -91.5q0 -69 -30.5 -99t-99.5 -30t-99 30t-30 99zM817 1733q0 67 29 91.5t100 24.5t100 -24.5t29 -91.5q0 -69 -30 -99t-99 -30t-99 30t-30 99z" />
<glyph unicode="&#xd7;" horiz-adv-x="1228" d="M115 182l329 326l-329 326l168 172l329 -330l336 336l166 -166l-336 -336l330 -328l-170 -166l-328 328l-327 -328z" />
<glyph unicode="&#xd8;" horiz-adv-x="1478" d="M72 25l159 196q-151 219 -151 590q0 178 34 311t109 232.5t204.5 150.5t311.5 51q294 0 455 -139l119 150l94 -72l-133 -166q125 -178 125 -518q0 -110 -15 -211t-46.5 -197.5t-84.5 -175.5t-124 -138.5t-170.5 -92.5t-219.5 -33q-268 0 -432 164l-141 -174zM375 793 q0 -199 53 -326l553 686q-94 84 -242 84q-79 0 -142 -23.5t-104 -63.5t-68 -97t-38.5 -121t-11.5 -139zM487 352q92 -119 252 -119q71 0 128.5 23.5t96.5 65.5t67 94.5t43.5 117.5t22.5 128t7 131q0 159 -53 260z" />
<glyph unicode="&#xd9;" horiz-adv-x="1478" d="M145 578v942h308v-858q0 -47 0.5 -77.5t3.5 -70.5t8.5 -66t16 -57t25 -50.5t36 -39.5t49 -30.5t65 -17.5t82.5 -7t82.5 7t65 18t49.5 30.5t36.5 39t24.5 50.5t16 57t9 66t3.5 70.5t0.5 77.5v858h307v-942q0 -301 -150.5 -458t-443.5 -157t-443.5 157t-150.5 458z M391 1843h311l267 -233h-244z" />
<glyph unicode="&#xda;" horiz-adv-x="1478" d="M145 578v942h308v-858q0 -47 0.5 -77.5t3.5 -70.5t8.5 -66t16 -57t25 -50.5t36 -39.5t49 -30.5t65 -17.5t82.5 -7t82.5 7t65 18t49.5 30.5t36.5 39t24.5 50.5t16 57t9 66t3.5 70.5t0.5 77.5v858h307v-942q0 -301 -150.5 -458t-443.5 -157t-443.5 157t-150.5 458z M524 1610l264 233h314l-334 -233h-244z" />
<glyph unicode="&#xdb;" horiz-adv-x="1478" d="M145 578v942h308v-858q0 -47 0.5 -77.5t3.5 -70.5t8.5 -66t16 -57t25 -50.5t36 -39.5t49 -30.5t65 -17.5t82.5 -7t82.5 7t65 18t49.5 30.5t36.5 39t24.5 50.5t16 57t9 66t3.5 70.5t0.5 77.5v858h307v-942q0 -301 -150.5 -458t-443.5 -157t-443.5 157t-150.5 458z M410 1610l165 233h340l154 -233h-213l-115 143l-118 -143h-213z" />
<glyph unicode="&#xdc;" horiz-adv-x="1478" d="M145 578v942h308v-858q0 -47 0.5 -77.5t3.5 -70.5t8.5 -66t16 -57t25 -50.5t36 -39.5t49 -30.5t65 -17.5t82.5 -7t82.5 7t65 18t49.5 30.5t36.5 39t24.5 50.5t16 57t9 66t3.5 70.5t0.5 77.5v858h307v-942q0 -301 -150.5 -458t-443.5 -157t-443.5 157t-150.5 458z M403 1733q0 67 29 91.5t100 24.5t100.5 -24.5t29.5 -91.5q0 -69 -30.5 -99t-99.5 -30t-99 30t-30 99zM817 1733q0 67 29 91.5t100 24.5t100 -24.5t29 -91.5q0 -69 -30 -99t-99 -30t-99 30t-30 99z" />
<glyph unicode="&#xdd;" d="M23 1520h354l301 -629l313 629h352l-516 -959v-561h-307v561zM469 1610l264 233h314l-334 -233h-244z" />
<glyph unicode="&#xde;" d="M154 0v1520h307v-164h334q248 0 371.5 -120.5t123.5 -377.5q0 -126 -41 -228t-113 -167.5t-167.5 -100t-206.5 -34.5h-301v-328h-307zM461 598h297q41 0 78.5 12.5t71.5 38.5t54.5 73.5t20.5 111.5q0 44 -9 78t-22.5 56.5t-37.5 38t-45.5 23.5t-56.5 12.5t-60 5.5t-66 1 h-225v-451z" />
<glyph unicode="&#xdf;" horiz-adv-x="1251" d="M133 0v1042q0 269 132 406t407 137q79 0 147.5 -12.5t130 -42t105 -73.5t69 -110.5t25.5 -150.5q0 -91 -31.5 -162t-87.5 -116.5t-128 -71t-159 -31.5v-4q90 1 169.5 -21.5t143 -67t101 -118.5t37.5 -170q0 -209 -125.5 -334t-312.5 -125q-150 0 -240 45v216 q62 -39 164 -39q105 0 168 69.5t63 182.5q0 56 -24 98t-63 65t-81.5 34t-87.5 11q-87 0 -133 -10v264q49 -8 125 -8q93 0 156 56t63 169q0 43 -18 75.5t-48.5 50.5t-66.5 27t-76 9q-55 0 -95 -16.5t-63 -42t-36.5 -65.5t-18 -79.5t-4.5 -91.5v-995h-307z" />
<glyph unicode="&#xe0;" horiz-adv-x="1251" d="M70 317q0 77 25.5 138.5t69 101t99.5 69.5t118 49.5t123.5 35.5t117.5 32.5t99.5 36t69 50t25.5 71.5q0 67 -59.5 98t-157.5 31q-153 0 -271 -63.5t-196 -175.5v301q106 124 216 172.5t286 48.5q216 0 342.5 -96.5t126.5 -292.5v-924h-283v246h-4q-42 -146 -138 -214.5 t-251 -68.5t-256.5 101.5t-101.5 252.5zM297 1618h311l266 -234h-243zM365 334q0 -75 44 -112.5t121 -37.5q75 0 133 31.5t92 85t51 118.5t17 138v74q-25 -24 -83.5 -47.5t-120 -43.5t-120.5 -46t-96.5 -66.5t-37.5 -93.5z" />
<glyph unicode="&#xe1;" horiz-adv-x="1251" d="M70 317q0 77 25.5 138.5t69 101t99.5 69.5t118 49.5t123.5 35.5t117.5 32.5t99.5 36t69 50t25.5 71.5q0 67 -59.5 98t-157.5 31q-153 0 -271 -63.5t-196 -175.5v301q106 124 216 172.5t286 48.5q216 0 342.5 -96.5t126.5 -292.5v-924h-283v246h-4q-42 -146 -138 -214.5 t-251 -68.5t-256.5 101.5t-101.5 252.5zM365 334q0 -75 44 -112.5t121 -37.5q75 0 133 31.5t92 85t51 118.5t17 138v74q-25 -24 -83.5 -47.5t-120 -43.5t-120.5 -46t-96.5 -66.5t-37.5 -93.5zM461 1384l264 234h313l-333 -234h-244z" />
<glyph unicode="&#xe2;" horiz-adv-x="1251" d="M70 317q0 77 25.5 138.5t69 101t99.5 69.5t118 49.5t123.5 35.5t117.5 32.5t99.5 36t69 50t25.5 71.5q0 67 -59.5 98t-157.5 31q-153 0 -271 -63.5t-196 -175.5v301q106 124 216 172.5t286 48.5q216 0 342.5 -96.5t126.5 -292.5v-924h-283v246h-4q-42 -146 -138 -214.5 t-251 -68.5t-256.5 101.5t-101.5 252.5zM297 1384l166 234h340l153 -234h-213l-114 144l-119 -144h-213zM365 334q0 -75 44 -112.5t121 -37.5q75 0 133 31.5t92 85t51 118.5t17 138v74q-25 -24 -83.5 -47.5t-120 -43.5t-120.5 -46t-96.5 -66.5t-37.5 -93.5z" />
<glyph unicode="&#xe3;" horiz-adv-x="1251" d="M70 317q0 77 25.5 138.5t69 101t99.5 69.5t118 49.5t123.5 35.5t117.5 32.5t99.5 36t69 50t25.5 71.5q0 67 -59.5 98t-157.5 31q-153 0 -271 -63.5t-196 -175.5v301q106 124 216 172.5t286 48.5q216 0 342.5 -96.5t126.5 -292.5v-924h-283v246h-4q-42 -146 -138 -214.5 t-251 -68.5t-256.5 101.5t-101.5 252.5zM334 1360v203q75 71 160 71q50 0 144.5 -35.5t137.5 -35.5q86 0 144 79v-200q-67 -64 -168 -64q-41 0 -135 30t-142 30q-85 0 -141 -78zM365 334q0 -75 44 -112.5t121 -37.5q75 0 133 31.5t92 85t51 118.5t17 138v74 q-25 -24 -83.5 -47.5t-120 -43.5t-120.5 -46t-96.5 -66.5t-37.5 -93.5z" />
<glyph unicode="&#xe4;" horiz-adv-x="1251" d="M70 317q0 77 25.5 138.5t69 101t99.5 69.5t118 49.5t123.5 35.5t117.5 32.5t99.5 36t69 50t25.5 71.5q0 67 -59.5 98t-157.5 31q-153 0 -271 -63.5t-196 -175.5v301q106 124 216 172.5t286 48.5q216 0 342.5 -96.5t126.5 -292.5v-924h-283v246h-4q-42 -146 -138 -214.5 t-251 -68.5t-256.5 101.5t-101.5 252.5zM291 1507q0 67 29 92t100 25t100 -25t29 -92q0 -69 -30 -99t-99 -30t-99 30t-30 99zM365 334q0 -75 44 -112.5t121 -37.5q75 0 133 31.5t92 85t51 118.5t17 138v74q-25 -24 -83.5 -47.5t-120 -43.5t-120.5 -46t-96.5 -66.5 t-37.5 -93.5zM705 1507q0 67 29 92t100 25t100 -25t29 -92q0 -69 -30 -99t-99 -30t-99 30t-30 99z" />
<glyph unicode="&#xe5;" horiz-adv-x="1251" d="M70 317q0 77 25.5 138.5t69 101t99.5 69.5t118 49.5t123.5 35.5t117.5 32.5t99.5 36t69 50t25.5 71.5q0 67 -59.5 98t-157.5 31q-153 0 -271 -63.5t-196 -175.5v301q106 124 216 172.5t286 48.5q216 0 342.5 -96.5t126.5 -292.5v-924h-283v246h-4q-42 -146 -138 -214.5 t-251 -68.5t-256.5 101.5t-101.5 252.5zM365 334q0 -75 44 -112.5t121 -37.5q75 0 133 31.5t92 85t51 118.5t17 138v74q-25 -24 -83.5 -47.5t-120 -43.5t-120.5 -46t-96.5 -66.5t-37.5 -93.5zM406 1606q0 92 64.5 156.5t156.5 64.5t156.5 -64.5t64.5 -156.5t-64.5 -157 t-156.5 -65t-156.5 65t-64.5 157zM516 1606q0 -46 32.5 -78.5t78.5 -32.5t78 32.5t32 78.5t-32 78t-78 32t-78.5 -32t-32.5 -78z" />
<glyph unicode="&#xe6;" horiz-adv-x="1933" d="M82 330q0 74 24 132.5t64.5 97t92.5 68t110 48.5t116 35.5t110 33t92.5 36.5t64.5 50t24 70q0 61 -51.5 95t-142.5 34q-143 0 -270.5 -67t-176.5 -179v312q18 26 55.5 59.5t93.5 70.5t134 62t158 25q303 0 411 -219q104 219 385 219q113 0 198.5 -35.5t137 -93.5 t84 -142.5t44 -171t11.5 -190.5q0 -28 -3 -82.5t-3 -65.5h-794q13 -160 101.5 -241.5t223.5 -81.5q118 0 232.5 65t175.5 168v-264q-60 -57 -104 -92.5t-98.5 -65.5t-115.5 -43.5t-135 -13.5q-154 0 -272 71t-180 218q-63 -150 -165 -219.5t-257 -69.5q-172 0 -273.5 97 t-101.5 270zM377 330q0 -146 145 -146q63 0 114 21t84 56.5t55.5 84.5t32 102.5t9.5 112.5v66q-85 -43 -274 -121q-59 -24 -112.5 -72.5t-53.5 -103.5zM1051 778h591q-51 252 -294 252t-297 -252z" />
<glyph unicode="&#xe7;" horiz-adv-x="1138" d="M78 664q0 136 34.5 252t100.5 205.5t173 140.5t243 51q259 0 411 -168v-391q-38 112 -139 182t-219 70q-322 0 -322 -363q0 -85 16.5 -157.5t51.5 -133.5t97 -96t145 -35q132 0 225 74.5t145 204.5v-320q-133 -176 -321 -209l-107 -243h-233l121 252q-190 44 -306 221.5 t-116 462.5z" />
<glyph unicode="&#xe8;" horiz-adv-x="1251" d="M78 645q0 309 150 488.5t419 179.5q527 0 527 -623q0 -18 -11 -158h-790q3 -163 92.5 -243t255.5 -80q62 0 113 12t88.5 31t72 52t59.5 65.5t56 81.5v-271q-81 -99 -194.5 -158t-235.5 -59q-154 0 -270 49.5t-188 141t-108 214.5t-36 277zM297 1618h311l266 -234h-243z M373 778h592q-4 121 -90.5 186.5t-210.5 65.5q-112 0 -196.5 -67t-94.5 -185z" />
<glyph unicode="&#xe9;" horiz-adv-x="1251" d="M78 645q0 309 150 488.5t419 179.5q527 0 527 -623q0 -18 -11 -158h-790q3 -163 92.5 -243t255.5 -80q62 0 113 12t88.5 31t72 52t59.5 65.5t56 81.5v-271q-81 -99 -194.5 -158t-235.5 -59q-154 0 -270 49.5t-188 141t-108 214.5t-36 277zM373 778h592 q-4 121 -90.5 186.5t-210.5 65.5q-112 0 -196.5 -67t-94.5 -185zM461 1384l264 234h313l-333 -234h-244z" />
<glyph unicode="&#xea;" horiz-adv-x="1251" d="M78 645q0 309 150 488.5t419 179.5q527 0 527 -623q0 -18 -11 -158h-790q3 -163 92.5 -243t255.5 -80q62 0 113 12t88.5 31t72 52t59.5 65.5t56 81.5v-271q-81 -99 -194.5 -158t-235.5 -59q-154 0 -270 49.5t-188 141t-108 214.5t-36 277zM297 1384l166 234h340l153 -234 h-213l-114 144l-119 -144h-213zM373 778h592q-4 121 -90.5 186.5t-210.5 65.5q-112 0 -196.5 -67t-94.5 -185z" />
<glyph unicode="&#xeb;" horiz-adv-x="1251" d="M78 645q0 309 150 488.5t419 179.5q527 0 527 -623q0 -18 -11 -158h-790q3 -163 92.5 -243t255.5 -80q62 0 113 12t88.5 31t72 52t59.5 65.5t56 81.5v-271q-81 -99 -194.5 -158t-235.5 -59q-154 0 -270 49.5t-188 141t-108 214.5t-36 277zM291 1507q0 67 29 92t100 25 t100 -25t29 -92q0 -69 -30 -99t-99 -30t-99 30t-30 99zM373 778h592q-4 121 -90.5 186.5t-210.5 65.5q-112 0 -196.5 -67t-94.5 -185zM705 1507q0 67 29 92t100 25t100 -25t29 -92q0 -69 -30 -99t-99 -30t-99 30t-30 99z" />
<glyph unicode="&#xec;" horiz-adv-x="569" d="M-119 1618h312l266 -234h-244zM131 0v1276q59 -35 158 -35q84 0 149 35v-1276h-307z" />
<glyph unicode="&#xed;" horiz-adv-x="569" d="M119 1384l264 234h313l-334 -234h-243zM131 0v1276q59 -35 158 -35q84 0 149 35v-1276h-307z" />
<glyph unicode="&#xee;" horiz-adv-x="569" d="M-45 1384l166 234h340l153 -234h-213l-114 144l-119 -144h-213zM131 0v1276q59 -35 158 -35q84 0 149 35v-1276h-307z" />
<glyph unicode="&#xef;" horiz-adv-x="569" d="M-51 1507q0 67 29 92t100 25t100 -25t29 -92q0 -69 -30 -99t-99 -30t-99 30t-30 99zM131 0v1276q59 -35 158 -35q84 0 149 35v-1276h-307zM362 1507q0 67 29.5 92t100.5 25t100 -25t29 -92q0 -69 -30 -99t-99 -30t-99.5 30t-30.5 99z" />
<glyph unicode="&#xf0;" d="M82 610q0 102 20 187t53 144.5t81.5 105t100 73t113 44.5t117 23.5t115.5 6.5q54 0 114.5 -20.5t96.5 -63.5h12q-63 135 -237 252l-283 -137l-119 135l217 104q-123 60 -225 84l170 181q176 -53 317 -138l283 138l119 -136l-238 -114q180 -149 277.5 -351.5t97.5 -443.5 q0 -178 -43.5 -316t-123.5 -226t-190 -133.5t-245 -45.5q-89 0 -173.5 23t-162.5 74t-136 125t-93 183.5t-35 241.5zM365 592q3 -167 87.5 -269t233.5 -102q151 0 233 103t82 276q0 166 -75.5 251t-241.5 85q-162 0 -239 -86.5t-80 -257.5z" />
<glyph unicode="&#xf1;" d="M141 0v1276h295v-318h4q43 154 149 254.5t261 100.5q90 0 158 -26t108.5 -67.5t65.5 -104t34 -126.5t9 -143v-846h-307v705q0 61 -3 102t-14.5 84.5t-32.5 68.5t-58.5 41.5t-90.5 16.5q-72 0 -126.5 -29.5t-84.5 -80t-44.5 -110t-14.5 -128.5v-670h-308zM391 1360v203 q75 71 160 71q50 0 145 -35.5t138 -35.5q85 0 143 79v-200q-67 -64 -168 -64q-41 0 -135 30t-142 30q-85 0 -141 -78z" />
<glyph unicode="&#xf2;" d="M82 657q0 323 145 489.5t455 166.5q311 0 456.5 -166.5t145.5 -489.5q0 -338 -153.5 -516t-448.5 -178q-294 0 -447 178t-153 516zM354 1618h312l266 -234h-244zM365 647q0 -199 76 -312.5t241 -113.5q85 0 147.5 31t99.5 89t54.5 133.5t17.5 172.5q0 359 -317 359 q-319 0 -319 -359z" />
<glyph unicode="&#xf3;" d="M82 657q0 323 145 489.5t455 166.5q311 0 456.5 -166.5t145.5 -489.5q0 -338 -153.5 -516t-448.5 -178q-294 0 -447 178t-153 516zM365 647q0 -199 76 -312.5t241 -113.5q85 0 147.5 31t99.5 89t54.5 133.5t17.5 172.5q0 359 -317 359q-319 0 -319 -359zM518 1384 l264 234h314l-334 -234h-244z" />
<glyph unicode="&#xf4;" d="M82 657q0 323 145 489.5t455 166.5q311 0 456.5 -166.5t145.5 -489.5q0 -338 -153.5 -516t-448.5 -178q-294 0 -447 178t-153 516zM354 1384l166 234h340l154 -234h-213l-115 144l-119 -144h-213zM365 647q0 -199 76 -312.5t241 -113.5q85 0 147.5 31t99.5 89t54.5 133.5 t17.5 172.5q0 359 -317 359q-319 0 -319 -359z" />
<glyph unicode="&#xf5;" d="M82 657q0 323 145 489.5t455 166.5q311 0 456.5 -166.5t145.5 -489.5q0 -338 -153.5 -516t-448.5 -178q-294 0 -447 178t-153 516zM365 647q0 -199 76 -312.5t241 -113.5q85 0 147.5 31t99.5 89t54.5 133.5t17.5 172.5q0 359 -317 359q-319 0 -319 -359zM391 1360v203 q75 71 160 71q50 0 145 -35.5t138 -35.5q85 0 143 79v-200q-67 -64 -168 -64q-41 0 -135 30t-142 30q-85 0 -141 -78z" />
<glyph unicode="&#xf6;" d="M82 657q0 323 145 489.5t455 166.5q311 0 456.5 -166.5t145.5 -489.5q0 -338 -153.5 -516t-448.5 -178q-294 0 -447 178t-153 516zM348 1507q0 67 29 92t100 25t100 -25t29 -92q0 -69 -30 -99t-99 -30t-99 30t-30 99zM365 647q0 -199 76 -312.5t241 -113.5q85 0 147.5 31 t99.5 89t54.5 133.5t17.5 172.5q0 359 -317 359q-319 0 -319 -359zM762 1507q0 67 29 92t100 25t100 -25t29 -92q0 -69 -30 -99t-99 -30t-99 30t-30 99z" />
<glyph unicode="&#xf7;" horiz-adv-x="1228" d="M98 408v221h1032v-221h-1032zM451 942q0 69 48 117.5t117 48.5t117.5 -48.5t48.5 -117.5t-48.5 -117.5t-117.5 -48.5t-117 48.5t-48 117.5zM453 94q0 69 48 117.5t117 48.5t117.5 -48.5t48.5 -117.5t-48.5 -117.5t-117.5 -48.5t-117 48.5t-48 117.5z" />
<glyph unicode="&#xf8;" d="M59 35l140 158q-117 175 -117 464q0 323 145 489.5t455 166.5q257 0 405 -117l115 129l92 -80l-123 -139q113 -162 113 -449q0 -338 -153.5 -516t-448.5 -178q-256 0 -403 135l-129 -145zM365 647q0 -141 34 -227l475 536q-71 50 -190 50q-319 0 -319 -359zM465 307 q77 -86 217 -86q85 0 147.5 31t99.5 89t54.5 133.5t17.5 172.5q0 132 -45 215z" />
<glyph unicode="&#xf9;" d="M141 430v846h308v-717q0 -48 0.5 -74.5t4.5 -65t11.5 -59.5t22 -46t35 -37.5t52 -21.5t72.5 -9q72 0 126.5 31t85 83t45 111t14.5 123v682h307v-1276h-295v307h-4q-101 -344 -410 -344q-90 0 -158 26t-108.5 67.5t-65.5 104t-34 126.5t-9 143zM231 1655h312l266 -234 h-244z" />
<glyph unicode="&#xfa;" d="M141 430v846h308v-717q0 -48 0.5 -74.5t4.5 -65t11.5 -59.5t22 -46t35 -37.5t52 -21.5t72.5 -9q72 0 126.5 31t85 83t45 111t14.5 123v682h307v-1276h-295v307h-4q-101 -344 -410 -344q-90 0 -158 26t-108.5 67.5t-65.5 104t-34 126.5t-9 143zM518 1384l264 234h314 l-334 -234h-244z" />
<glyph unicode="&#xfb;" d="M141 430v846h308v-717q0 -48 0.5 -74.5t4.5 -65t11.5 -59.5t22 -46t35 -37.5t52 -21.5t72.5 -9q72 0 126.5 31t85 83t45 111t14.5 123v682h307v-1276h-295v307h-4q-101 -344 -410 -344q-90 0 -158 26t-108.5 67.5t-65.5 104t-34 126.5t-9 143zM354 1421l166 234h340 l154 -234h-213l-115 144l-119 -144h-213z" />
<glyph unicode="&#xfc;" d="M141 430v846h308v-717q0 -48 0.5 -74.5t4.5 -65t11.5 -59.5t22 -46t35 -37.5t52 -21.5t72.5 -9q72 0 126.5 31t85 83t45 111t14.5 123v682h307v-1276h-295v307h-4q-101 -344 -410 -344q-90 0 -158 26t-108.5 67.5t-65.5 104t-34 126.5t-9 143zM348 1544q0 67 29 92 t100 25t100 -25t29 -92q0 -69 -30 -99t-99 -30t-99 30t-30 99zM762 1544q0 67 29 92t100 25t100 -25t29 -92q0 -69 -30 -99t-99 -30t-99 30t-30 99z" />
<glyph unicode="&#xfd;" horiz-adv-x="1251" d="M18 1276h332l289 -813h4l272 813h318l-559 -1583h-326l139 377zM461 1421l264 234h313l-333 -234h-244z" />
<glyph unicode="&#xfe;" d="M143 -307v1892h308v-581h4q61 157 150.5 233t248.5 76q89 0 159.5 -28.5t116.5 -80.5t78.5 -115t49 -142t23.5 -150.5t7 -151.5q0 -129 -30 -249t-86.5 -217.5t-149 -156.5t-207.5 -59q-65 0 -121 15.5t-93.5 39t-68 56t-48 62t-29.5 61.5h-4v-504h-308zM432 631 q0 -74 7 -131t26.5 -111.5t52 -89.5t86 -56.5t125.5 -21.5q121 0 199 112.5t78 280.5q0 72 -7 127t-26.5 106.5t-51.5 85t-84.5 53.5t-123.5 20q-63 0 -113 -24t-81 -61.5t-51 -88.5t-28 -100.5t-8 -100.5z" />
<glyph unicode="&#xff;" horiz-adv-x="1251" d="M18 1276h332l289 -813h4l272 813h318l-559 -1583h-326l139 377zM291 1544q0 67 29 92t100 25t100 -25t29 -92q0 -69 -30 -99t-99 -30t-99 30t-30 99zM705 1544q0 67 29 92t100 25t100 -25t29 -92q0 -69 -30 -99t-99 -30t-99 30t-30 99z" />
<glyph unicode="&#x152;" horiz-adv-x="2048" d="M72 819q0 116 18.5 219.5t62.5 199.5t109.5 165.5t165.5 111t225 41.5q134 0 228.5 -46t152.5 -152h4v162h885v-308h-614v-303h612v-295h-612v-331h608v-283h-879v193h-4q-32 -58 -61.5 -95.5t-71.5 -70.5t-98 -48.5t-129 -15.5q-130 0 -235 52.5t-172 137.5t-112.5 199 t-64 230t-18.5 237zM367 762q0 -57 6.5 -113.5t20 -118t39 -113.5t60.5 -94t87 -66t116 -24q84 0 147.5 35.5t99.5 89.5t58.5 130.5t29.5 145t7 146.5q0 86 -16.5 162.5t-53 145t-103.5 109t-158 40.5q-340 0 -340 -475z" />
<glyph unicode="&#x153;" horiz-adv-x="2048" d="M70 653q0 660 577 660q313 0 457 -230q62 123 156.5 176.5t242.5 53.5q113 0 198.5 -35.5t137 -93.5t84 -142.5t44 -171t11.5 -190.5q0 -28 -3 -82.5t-3 -65.5h-794q13 -160 101.5 -241.5t223.5 -81.5q118 0 232.5 65t175.5 168v-264q-60 -57 -104 -92.5t-98.5 -65.5 t-115.5 -43.5t-135 -13.5q-146 0 -258 59t-172 185q-125 -244 -416 -244q-254 0 -398 176.5t-144 513.5zM352 664q0 -71 8.5 -133t29 -120t52.5 -99t81.5 -66t113.5 -25q62 0 111.5 25t80.5 66t51.5 99t29 120t8.5 133q0 57 -8 105t-28.5 93t-51.5 76t-80.5 49.5 t-112.5 18.5q-80 0 -137.5 -27.5t-88.5 -77t-45 -107.5t-14 -130zM1178 778h591q-51 252 -294 252t-297 -252z" />
<glyph unicode="&#x178;" d="M23 1520h354l301 -629l313 629h352l-516 -959v-561h-307v561zM348 1733q0 67 29 91.5t100 24.5t100 -24.5t29 -91.5q0 -69 -30 -99t-99 -30t-99 30t-30 99zM762 1733q0 67 29 91.5t100 24.5t100 -24.5t29 -91.5q0 -69 -30 -99t-99 -30t-99 30t-30 99z" />
<glyph unicode="&#x2c6;" horiz-adv-x="569" d="M-45 1421l166 234h340l153 -234h-213l-114 144l-119 -144h-213z" />
<glyph unicode="&#x2dc;" horiz-adv-x="569" d="M-8 1397v202q76 72 160 72q50 0 144.5 -36t137.5 -36q85 0 144 80v-200q-67 -64 -168 -64q-41 0 -135 30t-142 30q-85 0 -141 -78z" />
<glyph unicode="&#x2000;" horiz-adv-x="1004" />
<glyph unicode="&#x2001;" horiz-adv-x="2009" />
<glyph unicode="&#x2002;" horiz-adv-x="1004" />
<glyph unicode="&#x2003;" horiz-adv-x="2009" />
<glyph unicode="&#x2004;" horiz-adv-x="669" />
<glyph unicode="&#x2005;" horiz-adv-x="502" />
<glyph unicode="&#x2006;" horiz-adv-x="334" />
<glyph unicode="&#x2007;" horiz-adv-x="334" />
<glyph unicode="&#x2008;" horiz-adv-x="251" />
<glyph unicode="&#x2009;" horiz-adv-x="401" />
<glyph unicode="&#x200a;" horiz-adv-x="111" />
<glyph unicode="&#x2010;" horiz-adv-x="796" d="M129 532v283h539v-283h-539z" />
<glyph unicode="&#x2011;" horiz-adv-x="796" d="M129 532v283h539v-283h-539z" />
<glyph unicode="&#x2012;" horiz-adv-x="796" d="M129 532v283h539v-283h-539z" />
<glyph unicode="&#x2013;" horiz-adv-x="1138" d="M0 532v283h1139v-283h-1139z" />
<glyph unicode="&#x2014;" horiz-adv-x="2048" d="M0 532v283h2048v-283h-2048z" />
<glyph unicode="&#x2018;" horiz-adv-x="569" d="M143 1028q0 353 95 492h188q-37 -117 -37 -316q0 -98 10 -176h-256z" />
<glyph unicode="&#x2019;" horiz-adv-x="569" d="M143 1028q37 117 37 315q0 99 -10 177h256q0 -96 -4.5 -168t-26.5 -168t-63 -156h-189z" />
<glyph unicode="&#x201a;" horiz-adv-x="569" d="M143 -274q37 117 37 315q0 98 -10 176h256q0 -69 -2.5 -123t-11 -126t-29 -134t-51.5 -108h-189z" />
<glyph unicode="&#x201c;" horiz-adv-x="909" d="M147 1028q0 353 95 492h188q-37 -117 -37 -316q0 -98 10 -176h-256zM479 1028q0 96 4.5 168t26.5 168t63 156h189q-37 -117 -37 -316q0 -98 10 -176h-256z" />
<glyph unicode="&#x201d;" horiz-adv-x="909" d="M147 1028q37 117 37 315q0 99 -10 177h256q0 -96 -4.5 -168t-26.5 -168t-63 -156h-189zM479 1028q37 117 37 315q0 99 -10 177h256q0 -96 -4.5 -168t-26.5 -168t-63 -156h-189z" />
<glyph unicode="&#x201e;" horiz-adv-x="909" d="M147 -274q37 117 37 315q0 98 -10 176h256q0 -69 -2.5 -123t-11 -126t-29 -134t-51.5 -108h-189zM479 -274q37 117 37 315q0 98 -10 176h256q0 -69 -2.5 -123t-11 -126t-29 -134t-51.5 -108h-189z" />
<glyph unicode="&#x2022;" horiz-adv-x="1024" d="M131 760q0 158 111.5 269.5t269.5 111.5t269.5 -111.5t111.5 -269.5t-111.5 -269.5t-269.5 -111.5t-269.5 111.5t-111.5 269.5z" />
<glyph unicode="&#x2026;" horiz-adv-x="2048" d="M170 98q0 74 40.5 104.5t131.5 30.5t131.5 -30.5t40.5 -104.5t-40.5 -104.5t-131.5 -30.5t-131.5 30.5t-40.5 104.5zM852 98q0 74 40.5 104.5t131.5 30.5t131.5 -30.5t40.5 -104.5t-40.5 -104.5t-131.5 -30.5t-131.5 30.5t-40.5 104.5zM1534 98q0 74 40.5 104.5 t131.5 30.5t131.5 -30.5t40.5 -104.5t-40.5 -104.5t-131.5 -30.5t-131.5 30.5t-40.5 104.5z" />
<glyph unicode="&#x202f;" horiz-adv-x="401" />
<glyph unicode="&#x2039;" horiz-adv-x="569" d="M100 674l148 368h221l-135 -368l135 -369h-221z" />
<glyph unicode="&#x203a;" horiz-adv-x="569" d="M100 305l136 369l-136 368h222l147 -368l-147 -369h-222z" />
<glyph unicode="&#x205f;" horiz-adv-x="502" />
<glyph unicode="&#x20ac;" horiz-adv-x="1138" d="M12 473l56 209h65q-4 29 -4 84q0 39 2 55h-119l56 209h86q47 249 186.5 387.5t361.5 138.5q122 0 219.5 -43.5t184.5 -142.5v-416q-56 125 -146.5 198t-214.5 73q-213 0 -296 -195h497l-57 -209h-488q-4 -31 -4 -86q0 -37 4 -53h459l-57 -209h-359q41 -108 118.5 -167.5 t176.5 -59.5q121 0 216.5 86.5t150.5 214.5v-336q-74 -117 -177.5 -182.5t-226.5 -65.5q-112 0 -204 39t-157 109.5t-109 161t-68 200.5h-152z" />
<glyph unicode="&#x2122;" horiz-adv-x="2027" d="M127 1348v172h688v-172h-240v-672h-208v672h-240zM920 676v844h288l205 -555l205 555h287v-844h-197v598h-4l-215 -598h-154l-215 598h-4v-598h-196z" />
<glyph unicode="&#xe000;" horiz-adv-x="1280" d="M0 0v1280h1280v-1280h-1280z" />
<glyph unicode="&#xfb01;" horiz-adv-x="1478" d="M0 856v246h219v141q-6 160 99 251t288 91q192 0 303 -53v-244q-73 51 -231 51q-99 0 -156 -44t-57 -138q0 -34 8 -55h404v-246h-351v-856h-307v856h-219zM1010 1499q0 75 42.5 102t141.5 27t141.5 -27t42.5 -102q0 -129 -184 -129t-184 129zM1040 0v1276q59 -35 158 -35 q85 0 150 35v-1276h-308z" />
<glyph unicode="&#xfb02;" horiz-adv-x="1478" d="M0 856v246h219v141q-6 160 99 251t288 91q192 0 303 -53v-244q-73 51 -231 51q-99 0 -156 -44t-57 -138q0 -34 8 -55h404v-246h-351v-856h-307v856h-219zM1040 0v1585h308v-1585h-308z" />
</font>
</defs>
</svg>
